<?xml version="1.0" encoding="utf-8" standalone="no"?>
<!DOCTYPE svg PUBLIC "-//W3C//DTD SVG 1.1//EN"
  "http://www.w3.org/Graphics/SVG/1.1/DTD/svg11.dtd">
<svg height="288pt" version="1.1" viewBox="0 0 432 288" width="432pt" xmlns="http://www.w3.org/2000/svg" xmlns:xlink="http://www.w3.org/1999/xlink">
 <metadata>
  <rdf:RDF xmlns:cc="http://creativecommons.org/ns#" xmlns:dc="http://purl.org/dc/elements/1.1/" xmlns:rdf="http://www.w3.org/1999/02/22-rdf-syntax-ns#">
   <cc:Work>
    <dc:type rdf:resource="http://purl.org/dc/dcmitype/StillImage"/>
    <dc:date>2022-05-19T12:30:36.318898</dc:date>
    <dc:format>image/svg+xml</dc:format>
    <dc:creator>
     <cc:Agent>
      <dc:title>Matplotlib v3.4.3, https://matplotlib.org/</dc:title>
     </cc:Agent>
    </dc:creator>
   </cc:Work>
  </rdf:RDF>
 </metadata>
 <defs>
  <style type="text/css">*{stroke-linecap:butt;stroke-linejoin:round;}</style>
 </defs>
 <g id="figure_1">
  <g id="patch_1">
   <path d="M 0 288 
L 432 288 
L 432 0 
L 0 0 
z
" style="fill:none;"/>
  </g>
  <g id="axes_1">
   <g id="patch_2">
    <path d="M 54 252 
L 388.8 252 
L 388.8 34.56 
L 54 34.56 
z
" style="fill:#ffffff;"/>
   </g>
   <g id="matplotlib.axis_1">
    <g id="xtick_1">
     <g id="line2d_1">
      <defs>
       <path d="M 0 0 
L 0 3.5 
" id="m9c97d76545" style="stroke:#000000;stroke-width:0.8;"/>
      </defs>
      <g>
       <use style="stroke:#000000;stroke-width:0.8;" x="69.218182" xlink:href="#m9c97d76545" y="252"/>
      </g>
     </g>
     <g id="text_1">
      <!-- 0 -->
      <g transform="translate(66.036932 266.598437)scale(0.1 -0.1)">
       <defs>
        <path d="M 2034 4250 
Q 1547 4250 1301 3770 
Q 1056 3291 1056 2328 
Q 1056 1369 1301 889 
Q 1547 409 2034 409 
Q 2525 409 2770 889 
Q 3016 1369 3016 2328 
Q 3016 3291 2770 3770 
Q 2525 4250 2034 4250 
z
M 2034 4750 
Q 2819 4750 3233 4129 
Q 3647 3509 3647 2328 
Q 3647 1150 3233 529 
Q 2819 -91 2034 -91 
Q 1250 -91 836 529 
Q 422 1150 422 2328 
Q 422 3509 836 4129 
Q 1250 4750 2034 4750 
z
" id="DejaVuSans-30" transform="scale(0.015625)"/>
       </defs>
       <use xlink:href="#DejaVuSans-30"/>
      </g>
     </g>
    </g>
    <g id="xtick_2">
     <g id="line2d_2">
      <g>
       <use style="stroke:#000000;stroke-width:0.8;" x="130.705785" xlink:href="#m9c97d76545" y="252"/>
      </g>
     </g>
     <g id="text_2">
      <!-- 20 -->
      <g transform="translate(124.343285 266.598437)scale(0.1 -0.1)">
       <defs>
        <path d="M 1228 531 
L 3431 531 
L 3431 0 
L 469 0 
L 469 531 
Q 828 903 1448 1529 
Q 2069 2156 2228 2338 
Q 2531 2678 2651 2914 
Q 2772 3150 2772 3378 
Q 2772 3750 2511 3984 
Q 2250 4219 1831 4219 
Q 1534 4219 1204 4116 
Q 875 4013 500 3803 
L 500 4441 
Q 881 4594 1212 4672 
Q 1544 4750 1819 4750 
Q 2544 4750 2975 4387 
Q 3406 4025 3406 3419 
Q 3406 3131 3298 2873 
Q 3191 2616 2906 2266 
Q 2828 2175 2409 1742 
Q 1991 1309 1228 531 
z
" id="DejaVuSans-32" transform="scale(0.015625)"/>
       </defs>
       <use xlink:href="#DejaVuSans-32"/>
       <use x="63.623047" xlink:href="#DejaVuSans-30"/>
      </g>
     </g>
    </g>
    <g id="xtick_3">
     <g id="line2d_3">
      <g>
       <use style="stroke:#000000;stroke-width:0.8;" x="192.193388" xlink:href="#m9c97d76545" y="252"/>
      </g>
     </g>
     <g id="text_3">
      <!-- 40 -->
      <g transform="translate(185.830888 266.598437)scale(0.1 -0.1)">
       <defs>
        <path d="M 2419 4116 
L 825 1625 
L 2419 1625 
L 2419 4116 
z
M 2253 4666 
L 3047 4666 
L 3047 1625 
L 3713 1625 
L 3713 1100 
L 3047 1100 
L 3047 0 
L 2419 0 
L 2419 1100 
L 313 1100 
L 313 1709 
L 2253 4666 
z
" id="DejaVuSans-34" transform="scale(0.015625)"/>
       </defs>
       <use xlink:href="#DejaVuSans-34"/>
       <use x="63.623047" xlink:href="#DejaVuSans-30"/>
      </g>
     </g>
    </g>
    <g id="xtick_4">
     <g id="line2d_4">
      <g>
       <use style="stroke:#000000;stroke-width:0.8;" x="253.680992" xlink:href="#m9c97d76545" y="252"/>
      </g>
     </g>
     <g id="text_4">
      <!-- 60 -->
      <g transform="translate(247.318492 266.598437)scale(0.1 -0.1)">
       <defs>
        <path d="M 2113 2584 
Q 1688 2584 1439 2293 
Q 1191 2003 1191 1497 
Q 1191 994 1439 701 
Q 1688 409 2113 409 
Q 2538 409 2786 701 
Q 3034 994 3034 1497 
Q 3034 2003 2786 2293 
Q 2538 2584 2113 2584 
z
M 3366 4563 
L 3366 3988 
Q 3128 4100 2886 4159 
Q 2644 4219 2406 4219 
Q 1781 4219 1451 3797 
Q 1122 3375 1075 2522 
Q 1259 2794 1537 2939 
Q 1816 3084 2150 3084 
Q 2853 3084 3261 2657 
Q 3669 2231 3669 1497 
Q 3669 778 3244 343 
Q 2819 -91 2113 -91 
Q 1303 -91 875 529 
Q 447 1150 447 2328 
Q 447 3434 972 4092 
Q 1497 4750 2381 4750 
Q 2619 4750 2861 4703 
Q 3103 4656 3366 4563 
z
" id="DejaVuSans-36" transform="scale(0.015625)"/>
       </defs>
       <use xlink:href="#DejaVuSans-36"/>
       <use x="63.623047" xlink:href="#DejaVuSans-30"/>
      </g>
     </g>
    </g>
    <g id="xtick_5">
     <g id="line2d_5">
      <g>
       <use style="stroke:#000000;stroke-width:0.8;" x="315.168595" xlink:href="#m9c97d76545" y="252"/>
      </g>
     </g>
     <g id="text_5">
      <!-- 80 -->
      <g transform="translate(308.806095 266.598437)scale(0.1 -0.1)">
       <defs>
        <path d="M 2034 2216 
Q 1584 2216 1326 1975 
Q 1069 1734 1069 1313 
Q 1069 891 1326 650 
Q 1584 409 2034 409 
Q 2484 409 2743 651 
Q 3003 894 3003 1313 
Q 3003 1734 2745 1975 
Q 2488 2216 2034 2216 
z
M 1403 2484 
Q 997 2584 770 2862 
Q 544 3141 544 3541 
Q 544 4100 942 4425 
Q 1341 4750 2034 4750 
Q 2731 4750 3128 4425 
Q 3525 4100 3525 3541 
Q 3525 3141 3298 2862 
Q 3072 2584 2669 2484 
Q 3125 2378 3379 2068 
Q 3634 1759 3634 1313 
Q 3634 634 3220 271 
Q 2806 -91 2034 -91 
Q 1263 -91 848 271 
Q 434 634 434 1313 
Q 434 1759 690 2068 
Q 947 2378 1403 2484 
z
M 1172 3481 
Q 1172 3119 1398 2916 
Q 1625 2713 2034 2713 
Q 2441 2713 2670 2916 
Q 2900 3119 2900 3481 
Q 2900 3844 2670 4047 
Q 2441 4250 2034 4250 
Q 1625 4250 1398 4047 
Q 1172 3844 1172 3481 
z
" id="DejaVuSans-38" transform="scale(0.015625)"/>
       </defs>
       <use xlink:href="#DejaVuSans-38"/>
       <use x="63.623047" xlink:href="#DejaVuSans-30"/>
      </g>
     </g>
    </g>
    <g id="xtick_6">
     <g id="line2d_6">
      <g>
       <use style="stroke:#000000;stroke-width:0.8;" x="376.656198" xlink:href="#m9c97d76545" y="252"/>
      </g>
     </g>
     <g id="text_6">
      <!-- 100 -->
      <g transform="translate(367.112448 266.598437)scale(0.1 -0.1)">
       <defs>
        <path d="M 794 531 
L 1825 531 
L 1825 4091 
L 703 3866 
L 703 4441 
L 1819 4666 
L 2450 4666 
L 2450 531 
L 3481 531 
L 3481 0 
L 794 0 
L 794 531 
z
" id="DejaVuSans-31" transform="scale(0.015625)"/>
       </defs>
       <use xlink:href="#DejaVuSans-31"/>
       <use x="63.623047" xlink:href="#DejaVuSans-30"/>
       <use x="127.246094" xlink:href="#DejaVuSans-30"/>
      </g>
     </g>
    </g>
    <g id="text_7">
     <!-- Iter -->
     <g transform="translate(212.832813 280.276563)scale(0.1 -0.1)">
      <defs>
       <path d="M 628 4666 
L 1259 4666 
L 1259 0 
L 628 0 
L 628 4666 
z
" id="DejaVuSans-49" transform="scale(0.015625)"/>
       <path d="M 1172 4494 
L 1172 3500 
L 2356 3500 
L 2356 3053 
L 1172 3053 
L 1172 1153 
Q 1172 725 1289 603 
Q 1406 481 1766 481 
L 2356 481 
L 2356 0 
L 1766 0 
Q 1100 0 847 248 
Q 594 497 594 1153 
L 594 3053 
L 172 3053 
L 172 3500 
L 594 3500 
L 594 4494 
L 1172 4494 
z
" id="DejaVuSans-74" transform="scale(0.015625)"/>
       <path d="M 3597 1894 
L 3597 1613 
L 953 1613 
Q 991 1019 1311 708 
Q 1631 397 2203 397 
Q 2534 397 2845 478 
Q 3156 559 3463 722 
L 3463 178 
Q 3153 47 2828 -22 
Q 2503 -91 2169 -91 
Q 1331 -91 842 396 
Q 353 884 353 1716 
Q 353 2575 817 3079 
Q 1281 3584 2069 3584 
Q 2775 3584 3186 3129 
Q 3597 2675 3597 1894 
z
M 3022 2063 
Q 3016 2534 2758 2815 
Q 2500 3097 2075 3097 
Q 1594 3097 1305 2825 
Q 1016 2553 972 2059 
L 3022 2063 
z
" id="DejaVuSans-65" transform="scale(0.015625)"/>
       <path d="M 2631 2963 
Q 2534 3019 2420 3045 
Q 2306 3072 2169 3072 
Q 1681 3072 1420 2755 
Q 1159 2438 1159 1844 
L 1159 0 
L 581 0 
L 581 3500 
L 1159 3500 
L 1159 2956 
Q 1341 3275 1631 3429 
Q 1922 3584 2338 3584 
Q 2397 3584 2469 3576 
Q 2541 3569 2628 3553 
L 2631 2963 
z
" id="DejaVuSans-72" transform="scale(0.015625)"/>
      </defs>
      <use xlink:href="#DejaVuSans-49"/>
      <use x="29.492188" xlink:href="#DejaVuSans-74"/>
      <use x="68.701172" xlink:href="#DejaVuSans-65"/>
      <use x="130.224609" xlink:href="#DejaVuSans-72"/>
     </g>
    </g>
   </g>
   <g id="matplotlib.axis_2">
    <g id="ytick_1">
     <g id="line2d_7">
      <defs>
       <path d="M 0 0 
L -3.5 0 
" id="meae173f39c" style="stroke:#000000;stroke-width:0.8;"/>
      </defs>
      <g>
       <use style="stroke:#000000;stroke-width:0.8;" x="54" xlink:href="#meae173f39c" y="227.477257"/>
      </g>
     </g>
     <g id="text_8">
      <!-- −1.4 -->
      <g transform="translate(22.717187 231.276476)scale(0.1 -0.1)">
       <defs>
        <path d="M 678 2272 
L 4684 2272 
L 4684 1741 
L 678 1741 
L 678 2272 
z
" id="DejaVuSans-2212" transform="scale(0.015625)"/>
        <path d="M 684 794 
L 1344 794 
L 1344 0 
L 684 0 
L 684 794 
z
" id="DejaVuSans-2e" transform="scale(0.015625)"/>
       </defs>
       <use xlink:href="#DejaVuSans-2212"/>
       <use x="83.789062" xlink:href="#DejaVuSans-31"/>
       <use x="147.412109" xlink:href="#DejaVuSans-2e"/>
       <use x="179.199219" xlink:href="#DejaVuSans-34"/>
      </g>
     </g>
    </g>
    <g id="ytick_2">
     <g id="line2d_8">
      <g>
       <use style="stroke:#000000;stroke-width:0.8;" x="54" xlink:href="#meae173f39c" y="201.33086"/>
      </g>
     </g>
     <g id="text_9">
      <!-- −1.2 -->
      <g transform="translate(22.717187 205.130079)scale(0.1 -0.1)">
       <use xlink:href="#DejaVuSans-2212"/>
       <use x="83.789062" xlink:href="#DejaVuSans-31"/>
       <use x="147.412109" xlink:href="#DejaVuSans-2e"/>
       <use x="179.199219" xlink:href="#DejaVuSans-32"/>
      </g>
     </g>
    </g>
    <g id="ytick_3">
     <g id="line2d_9">
      <g>
       <use style="stroke:#000000;stroke-width:0.8;" x="54" xlink:href="#meae173f39c" y="175.184462"/>
      </g>
     </g>
     <g id="text_10">
      <!-- −1.0 -->
      <g transform="translate(22.717187 178.983681)scale(0.1 -0.1)">
       <use xlink:href="#DejaVuSans-2212"/>
       <use x="83.789062" xlink:href="#DejaVuSans-31"/>
       <use x="147.412109" xlink:href="#DejaVuSans-2e"/>
       <use x="179.199219" xlink:href="#DejaVuSans-30"/>
      </g>
     </g>
    </g>
    <g id="ytick_4">
     <g id="line2d_10">
      <g>
       <use style="stroke:#000000;stroke-width:0.8;" x="54" xlink:href="#meae173f39c" y="149.038065"/>
      </g>
     </g>
     <g id="text_11">
      <!-- −0.8 -->
      <g transform="translate(22.717187 152.837284)scale(0.1 -0.1)">
       <use xlink:href="#DejaVuSans-2212"/>
       <use x="83.789062" xlink:href="#DejaVuSans-30"/>
       <use x="147.412109" xlink:href="#DejaVuSans-2e"/>
       <use x="179.199219" xlink:href="#DejaVuSans-38"/>
      </g>
     </g>
    </g>
    <g id="ytick_5">
     <g id="line2d_11">
      <g>
       <use style="stroke:#000000;stroke-width:0.8;" x="54" xlink:href="#meae173f39c" y="122.891667"/>
      </g>
     </g>
     <g id="text_12">
      <!-- −0.6 -->
      <g transform="translate(22.717187 126.690886)scale(0.1 -0.1)">
       <use xlink:href="#DejaVuSans-2212"/>
       <use x="83.789062" xlink:href="#DejaVuSans-30"/>
       <use x="147.412109" xlink:href="#DejaVuSans-2e"/>
       <use x="179.199219" xlink:href="#DejaVuSans-36"/>
      </g>
     </g>
    </g>
    <g id="ytick_6">
     <g id="line2d_12">
      <g>
       <use style="stroke:#000000;stroke-width:0.8;" x="54" xlink:href="#meae173f39c" y="96.74527"/>
      </g>
     </g>
     <g id="text_13">
      <!-- −0.4 -->
      <g transform="translate(22.717187 100.544489)scale(0.1 -0.1)">
       <use xlink:href="#DejaVuSans-2212"/>
       <use x="83.789062" xlink:href="#DejaVuSans-30"/>
       <use x="147.412109" xlink:href="#DejaVuSans-2e"/>
       <use x="179.199219" xlink:href="#DejaVuSans-34"/>
      </g>
     </g>
    </g>
    <g id="ytick_7">
     <g id="line2d_13">
      <g>
       <use style="stroke:#000000;stroke-width:0.8;" x="54" xlink:href="#meae173f39c" y="70.598873"/>
      </g>
     </g>
     <g id="text_14">
      <!-- −0.2 -->
      <g transform="translate(22.717187 74.398091)scale(0.1 -0.1)">
       <use xlink:href="#DejaVuSans-2212"/>
       <use x="83.789062" xlink:href="#DejaVuSans-30"/>
       <use x="147.412109" xlink:href="#DejaVuSans-2e"/>
       <use x="179.199219" xlink:href="#DejaVuSans-32"/>
      </g>
     </g>
    </g>
    <g id="ytick_8">
     <g id="line2d_14">
      <g>
       <use style="stroke:#000000;stroke-width:0.8;" x="54" xlink:href="#meae173f39c" y="44.452475"/>
      </g>
     </g>
     <g id="text_15">
      <!-- 0.0 -->
      <g transform="translate(31.096875 48.251694)scale(0.1 -0.1)">
       <use xlink:href="#DejaVuSans-30"/>
       <use x="63.623047" xlink:href="#DejaVuSans-2e"/>
       <use x="95.410156" xlink:href="#DejaVuSans-30"/>
      </g>
     </g>
    </g>
    <g id="text_16">
     <!-- loss -->
     <g transform="translate(16.6375 152.937813)rotate(-90)scale(0.1 -0.1)">
      <defs>
       <path d="M 603 4863 
L 1178 4863 
L 1178 0 
L 603 0 
L 603 4863 
z
" id="DejaVuSans-6c" transform="scale(0.015625)"/>
       <path d="M 1959 3097 
Q 1497 3097 1228 2736 
Q 959 2375 959 1747 
Q 959 1119 1226 758 
Q 1494 397 1959 397 
Q 2419 397 2687 759 
Q 2956 1122 2956 1747 
Q 2956 2369 2687 2733 
Q 2419 3097 1959 3097 
z
M 1959 3584 
Q 2709 3584 3137 3096 
Q 3566 2609 3566 1747 
Q 3566 888 3137 398 
Q 2709 -91 1959 -91 
Q 1206 -91 779 398 
Q 353 888 353 1747 
Q 353 2609 779 3096 
Q 1206 3584 1959 3584 
z
" id="DejaVuSans-6f" transform="scale(0.015625)"/>
       <path d="M 2834 3397 
L 2834 2853 
Q 2591 2978 2328 3040 
Q 2066 3103 1784 3103 
Q 1356 3103 1142 2972 
Q 928 2841 928 2578 
Q 928 2378 1081 2264 
Q 1234 2150 1697 2047 
L 1894 2003 
Q 2506 1872 2764 1633 
Q 3022 1394 3022 966 
Q 3022 478 2636 193 
Q 2250 -91 1575 -91 
Q 1294 -91 989 -36 
Q 684 19 347 128 
L 347 722 
Q 666 556 975 473 
Q 1284 391 1588 391 
Q 1994 391 2212 530 
Q 2431 669 2431 922 
Q 2431 1156 2273 1281 
Q 2116 1406 1581 1522 
L 1381 1569 
Q 847 1681 609 1914 
Q 372 2147 372 2553 
Q 372 3047 722 3315 
Q 1072 3584 1716 3584 
Q 2034 3584 2315 3537 
Q 2597 3491 2834 3397 
z
" id="DejaVuSans-73" transform="scale(0.015625)"/>
      </defs>
      <use xlink:href="#DejaVuSans-6c"/>
      <use x="27.783203" xlink:href="#DejaVuSans-6f"/>
      <use x="88.964844" xlink:href="#DejaVuSans-73"/>
      <use x="141.064453" xlink:href="#DejaVuSans-73"/>
     </g>
    </g>
    <g id="text_17">
     <!-- 1e6 -->
     <g transform="translate(54 31.56)scale(0.1 -0.1)">
      <use xlink:href="#DejaVuSans-31"/>
      <use x="63.623047" xlink:href="#DejaVuSans-65"/>
      <use x="125.146484" xlink:href="#DejaVuSans-36"/>
     </g>
    </g>
   </g>
   <g id="line2d_15">
    <path clip-path="url(#p429ffb507b)" d="M 69.218182 44.452559 
L 72.292562 44.477069 
L 75.366942 44.500725 
L 78.441322 44.524205 
L 81.515702 44.547744 
L 84.590083 44.571451 
L 87.664463 44.595382 
L 90.738843 44.619574 
L 93.813223 44.644045 
L 96.887603 44.66881 
L 99.961983 44.693877 
L 103.036364 44.719251 
L 106.110744 44.744933 
L 109.185124 44.770926 
L 112.259504 44.797228 
L 115.333884 44.823838 
L 118.408264 44.850753 
L 121.482645 44.877971 
L 124.557025 44.905487 
L 127.631405 44.933298 
L 130.705785 44.9614 
L 133.780165 44.989786 
L 136.854545 45.018454 
L 139.928926 45.047396 
L 143.003306 45.076609 
L 146.077686 45.106085 
L 149.152066 45.135821 
L 152.226446 45.165809 
L 155.300826 45.196045 
L 158.375207 45.226522 
L 161.449587 45.257235 
L 164.523967 45.288177 
L 167.598347 45.319344 
L 170.672727 45.350729 
L 173.747107 45.382327 
L 176.821488 45.414132 
L 179.895868 45.446138 
L 182.970248 45.478341 
L 186.044628 45.510734 
L 189.119008 45.543312 
L 192.193388 45.576071 
L 195.267769 45.609005 
L 198.342149 45.64211 
L 201.416529 45.675379 
L 204.490909 45.708809 
L 207.565289 45.742396 
L 210.639669 45.776133 
L 213.71405 45.810018 
L 216.78843 45.844046 
L 219.86281 45.878213 
L 222.93719 45.912514 
L 226.01157 45.946946 
L 229.08595 45.981504 
L 232.160331 46.016186 
L 235.234711 46.050989 
L 238.309091 46.085907 
L 241.383471 46.120938 
L 244.457851 46.156078 
L 247.532231 46.191326 
L 250.606612 46.226676 
L 253.680992 46.262127 
L 256.755372 46.297676 
L 259.829752 46.333319 
L 262.904132 46.369055 
L 265.978512 46.404881 
L 269.052893 46.440793 
L 272.127273 46.47679 
L 275.201653 46.51287 
L 278.276033 46.549029 
L 281.350413 46.585266 
L 284.424793 46.62158 
L 287.499174 46.657967 
L 290.573554 46.694425 
L 293.647934 46.730953 
L 296.722314 46.76755 
L 299.796694 46.804213 
L 302.871074 46.84094 
L 305.945455 46.87773 
L 309.019835 46.914581 
L 312.094215 46.951492 
L 315.168595 46.98846 
L 318.242975 47.025486 
L 321.317355 47.062566 
L 324.391736 47.099701 
L 327.466116 47.136887 
L 330.540496 47.174125 
L 333.614876 47.211413 
L 336.689256 47.24875 
L 339.763636 47.286134 
L 342.838017 47.323565 
L 345.912397 47.361041 
L 348.986777 47.398561 
L 352.061157 47.436124 
L 355.135537 47.47373 
L 358.209917 47.511376 
L 361.284298 47.549063 
L 364.358678 47.58679 
L 367.433058 47.624554 
L 370.507438 47.662356 
L 373.581818 47.700196 
" style="fill:none;stroke:#1f77b4;stroke-linecap:square;stroke-width:1.5;"/>
   </g>
   <g id="line2d_16">
    <path clip-path="url(#p429ffb507b)" d="M 69.218182 44.45244 
L 72.292562 45.149907 
L 75.366942 45.941403 
L 78.441322 46.855949 
L 81.515702 47.941071 
L 84.590083 49.131385 
L 87.664463 50.397332 
L 90.738843 51.71658 
L 93.813223 53.17265 
L 96.887603 54.640001 
L 99.961983 56.118981 
L 103.036364 57.636502 
L 106.110744 59.174517 
L 109.185124 60.827341 
L 112.259504 62.482765 
L 115.333884 64.253373 
L 118.408264 65.784152 
L 121.482645 67.567053 
L 124.557025 69.306387 
L 127.631405 71.051401 
L 130.705785 72.902505 
L 133.780165 74.654555 
L 136.854545 76.428294 
L 139.928926 78.348969 
L 143.003306 80.179958 
L 146.077686 82.12697 
L 149.152066 83.902237 
L 152.226446 85.941011 
L 155.300826 87.967173 
L 158.375207 90.020752 
L 161.449587 91.821074 
L 164.523967 93.788251 
L 167.598347 95.77184 
L 170.672727 97.713655 
L 173.747107 99.611124 
L 176.821488 101.626472 
L 179.895868 103.308245 
L 182.970248 105.359695 
L 186.044628 107.197979 
L 189.119008 109.143222 
L 192.193388 111.171316 
L 195.267769 113.307795 
L 198.342149 115.500963 
L 201.416529 117.459737 
L 204.490909 119.632396 
L 207.565289 121.535576 
L 210.639669 123.399504 
L 213.71405 125.509763 
L 216.78843 127.58935 
L 219.86281 129.632805 
L 222.93719 131.808038 
L 226.01157 133.476056 
L 229.08595 135.778132 
L 232.160331 137.911825 
L 235.234711 139.545305 
L 238.309091 141.970424 
L 241.383471 143.943709 
L 244.457851 146.175312 
L 247.532231 148.725084 
L 250.606612 151.040046 
L 253.680992 153.172456 
L 256.755372 155.291433 
L 259.829752 157.977526 
L 262.904132 160.245408 
L 265.978512 162.305858 
L 269.052893 164.380281 
L 272.127273 166.355159 
L 275.201653 168.702403 
L 278.276033 170.683033 
L 281.350413 172.893458 
L 284.424793 175.231804 
L 287.499174 177.729152 
L 290.573554 179.904949 
L 293.647934 182.247503 
L 296.722314 184.911184 
L 299.796694 187.362327 
L 302.871074 189.628811 
L 305.945455 191.78785 
L 309.019835 194.125125 
L 312.094215 195.998204 
L 315.168595 197.903966 
L 318.242975 199.879097 
L 321.317355 202.592015 
L 324.391736 205.452447 
L 327.466116 207.807143 
L 330.540496 210.146771 
L 333.614876 212.659064 
L 336.689256 215.313185 
L 339.763636 217.825756 
L 342.838017 220.271147 
L 345.912397 222.539641 
L 348.986777 224.835 
L 352.061157 226.834334 
L 355.135537 228.740896 
L 358.209917 231.120235 
L 361.284298 233.448261 
L 364.358678 235.917968 
L 367.433058 238.136915 
L 370.507438 240.05137 
L 373.581818 242.116364 
" style="fill:none;stroke:#ff7f0e;stroke-linecap:square;stroke-width:1.5;"/>
   </g>
   <g id="line2d_17">
    <path clip-path="url(#p429ffb507b)" d="M 69.218182 44.452482 
L 72.292562 44.459043 
L 75.366942 44.464948 
L 78.441322 44.465059 
L 81.515702 44.46658 
L 84.590083 44.46789 
L 87.664463 44.468087 
L 90.738843 44.468549 
L 93.813223 44.469483 
L 96.887603 44.47001 
L 99.961983 44.468839 
L 103.036364 44.468785 
L 106.110744 44.467992 
L 109.185124 44.467861 
L 112.259504 44.468063 
L 115.333884 44.46772 
L 118.408264 44.467121 
L 121.482645 44.467987 
L 124.557025 44.468272 
L 127.631405 44.467493 
L 130.705785 44.468179 
L 133.780165 44.467621 
L 136.854545 44.468264 
L 139.928926 44.46827 
L 143.003306 44.468368 
L 146.077686 44.468331 
L 149.152066 44.468527 
L 152.226446 44.468427 
L 155.300826 44.469059 
L 158.375207 44.468034 
L 161.449587 44.467994 
L 164.523967 44.468931 
L 167.598347 44.468698 
L 170.672727 44.468466 
L 173.747107 44.469465 
L 176.821488 44.469892 
L 179.895868 44.469533 
L 182.970248 44.469761 
L 186.044628 44.469894 
L 189.119008 44.470724 
L 192.193388 44.471166 
L 195.267769 44.471194 
L 198.342149 44.47164 
L 201.416529 44.471841 
L 204.490909 44.471609 
L 207.565289 44.471958 
L 210.639669 44.472221 
L 213.71405 44.471423 
L 216.78843 44.471749 
L 219.86281 44.471954 
L 222.93719 44.471353 
L 226.01157 44.471243 
L 229.08595 44.471113 
L 232.160331 44.471255 
L 235.234711 44.471659 
L 238.309091 44.472038 
L 241.383471 44.471758 
L 244.457851 44.47133 
L 247.532231 44.471577 
L 250.606612 44.472162 
L 253.680992 44.471982 
L 256.755372 44.47268 
L 259.829752 44.472039 
L 262.904132 44.472891 
L 265.978512 44.472218 
L 269.052893 44.472068 
L 272.127273 44.472754 
L 275.201653 44.472684 
L 278.276033 44.472784 
L 281.350413 44.472626 
L 284.424793 44.47288 
L 287.499174 44.473041 
L 290.573554 44.472976 
L 293.647934 44.472439 
L 296.722314 44.472883 
L 299.796694 44.472278 
L 302.871074 44.472255 
L 305.945455 44.472212 
L 309.019835 44.472251 
L 312.094215 44.472447 
L 315.168595 44.47234 
L 318.242975 44.472246 
L 321.317355 44.471965 
L 324.391736 44.471708 
L 327.466116 44.472341 
L 330.540496 44.472526 
L 333.614876 44.472095 
L 336.689256 44.472464 
L 339.763636 44.471811 
L 342.838017 44.471376 
L 345.912397 44.471256 
L 348.986777 44.471864 
L 352.061157 44.47175 
L 355.135537 44.472372 
L 358.209917 44.47217 
L 361.284298 44.472421 
L 364.358678 44.471546 
L 367.433058 44.472061 
L 370.507438 44.471417 
L 373.581818 44.471589 
" style="fill:none;stroke:#2ca02c;stroke-linecap:square;stroke-width:1.5;"/>
   </g>
   <g id="line2d_18">
    <path clip-path="url(#p429ffb507b)" d="M 69.218182 44.452453 
L 72.292562 44.45446 
L 75.366942 44.456563 
L 78.441322 44.456707 
L 81.515702 44.456881 
L 84.590083 44.457353 
L 87.664463 44.456949 
L 90.738843 44.456902 
L 93.813223 44.456809 
L 96.887603 44.456501 
L 99.961983 44.457047 
L 103.036364 44.457027 
L 106.110744 44.457087 
L 109.185124 44.456853 
L 112.259504 44.456889 
L 115.333884 44.456824 
L 118.408264 44.456652 
L 121.482645 44.456201 
L 124.557025 44.45627 
L 127.631405 44.456947 
L 130.705785 44.456341 
L 133.780165 44.456997 
L 136.854545 44.456674 
L 139.928926 44.456666 
L 143.003306 44.456507 
L 146.077686 44.456818 
L 149.152066 44.456855 
L 152.226446 44.457039 
L 155.300826 44.456796 
L 158.375207 44.456479 
L 161.449587 44.456365 
L 164.523967 44.456257 
L 167.598347 44.456179 
L 170.672727 44.456106 
L 173.747107 44.456048 
L 176.821488 44.455807 
L 179.895868 44.455909 
L 182.970248 44.456012 
L 186.044628 44.456034 
L 189.119008 44.45578 
L 192.193388 44.456158 
L 195.267769 44.455998 
L 198.342149 44.456193 
L 201.416529 44.455953 
L 204.490909 44.456156 
L 207.565289 44.456142 
L 210.639669 44.45576 
L 213.71405 44.455772 
L 216.78843 44.455745 
L 219.86281 44.455604 
L 222.93719 44.455597 
L 226.01157 44.455788 
L 229.08595 44.455779 
L 232.160331 44.455748 
L 235.234711 44.455691 
L 238.309091 44.455768 
L 241.383471 44.455693 
L 244.457851 44.456094 
L 247.532231 44.456115 
L 250.606612 44.456107 
L 253.680992 44.455994 
L 256.755372 44.456399 
L 259.829752 44.456381 
L 262.904132 44.456178 
L 265.978512 44.456066 
L 269.052893 44.456297 
L 272.127273 44.456291 
L 275.201653 44.456382 
L 278.276033 44.456638 
L 281.350413 44.456628 
L 284.424793 44.456661 
L 287.499174 44.456664 
L 290.573554 44.456669 
L 293.647934 44.456804 
L 296.722314 44.456826 
L 299.796694 44.456638 
L 302.871074 44.456767 
L 305.945455 44.456841 
L 309.019835 44.456513 
L 312.094215 44.456555 
L 315.168595 44.456866 
L 318.242975 44.456924 
L 321.317355 44.456949 
L 324.391736 44.457032 
L 327.466116 44.45709 
L 330.540496 44.456863 
L 333.614876 44.45691 
L 336.689256 44.45702 
L 339.763636 44.456935 
L 342.838017 44.45696 
L 345.912397 44.456876 
L 348.986777 44.456788 
L 352.061157 44.456711 
L 355.135537 44.456894 
L 358.209917 44.4569 
L 361.284298 44.456829 
L 364.358678 44.45682 
L 367.433058 44.457028 
L 370.507438 44.457022 
L 373.581818 44.457022 
" style="fill:none;stroke:#d62728;stroke-linecap:square;stroke-width:1.5;"/>
   </g>
   <g id="line2d_19">
    <path clip-path="url(#p429ffb507b)" d="M 69.218182 44.451829 
L 72.292562 44.4533 
L 75.366942 44.453831 
L 78.441322 44.454615 
L 81.515702 44.455133 
L 84.590083 44.455109 
L 87.664463 44.455309 
L 90.738843 44.454742 
L 93.813223 44.455311 
L 96.887603 44.454865 
L 99.961983 44.455009 
L 103.036364 44.455267 
L 106.110744 44.455137 
L 109.185124 44.45509 
L 112.259504 44.454904 
L 115.333884 44.455137 
L 118.408264 44.455107 
L 121.482645 44.455461 
L 124.557025 44.455381 
L 127.631405 44.455013 
L 130.705785 44.455219 
L 133.780165 44.455167 
L 136.854545 44.455172 
L 139.928926 44.454712 
L 143.003306 44.454829 
L 146.077686 44.454893 
L 149.152066 44.454969 
L 152.226446 44.455067 
L 155.300826 44.454729 
L 158.375207 44.454583 
L 161.449587 44.454704 
L 164.523967 44.454634 
L 167.598347 44.455028 
L 170.672727 44.454894 
L 173.747107 44.454939 
L 176.821488 44.4549 
L 179.895868 44.454947 
L 182.970248 44.454859 
L 186.044628 44.454911 
L 189.119008 44.454805 
L 192.193388 44.454922 
L 195.267769 44.455137 
L 198.342149 44.455031 
L 201.416529 44.455173 
L 204.490909 44.454881 
L 207.565289 44.454846 
L 210.639669 44.454878 
L 213.71405 44.454889 
L 216.78843 44.454992 
L 219.86281 44.455071 
L 222.93719 44.454979 
L 226.01157 44.454891 
L 229.08595 44.454934 
L 232.160331 44.454765 
L 235.234711 44.454717 
L 238.309091 44.454808 
L 241.383471 44.4548 
L 244.457851 44.454552 
L 247.532231 44.454541 
L 250.606612 44.454741 
L 253.680992 44.454656 
L 256.755372 44.45497 
L 259.829752 44.454771 
L 262.904132 44.454946 
L 265.978512 44.454854 
L 269.052893 44.454903 
L 272.127273 44.454842 
L 275.201653 44.454822 
L 278.276033 44.454719 
L 281.350413 44.454786 
L 284.424793 44.454952 
L 287.499174 44.45495 
L 290.573554 44.454904 
L 293.647934 44.454875 
L 296.722314 44.454915 
L 299.796694 44.455009 
L 302.871074 44.455101 
L 305.945455 44.455151 
L 309.019835 44.455209 
L 312.094215 44.455323 
L 315.168595 44.455331 
L 318.242975 44.455212 
L 321.317355 44.455159 
L 324.391736 44.455312 
L 327.466116 44.455188 
L 330.540496 44.455284 
L 333.614876 44.45533 
L 336.689256 44.455224 
L 339.763636 44.455145 
L 342.838017 44.455039 
L 345.912397 44.455036 
L 348.986777 44.45506 
L 352.061157 44.455206 
L 355.135537 44.455084 
L 358.209917 44.454984 
L 361.284298 44.455109 
L 364.358678 44.455111 
L 367.433058 44.455122 
L 370.507438 44.455186 
L 373.581818 44.455165 
" style="fill:none;stroke:#9467bd;stroke-linecap:square;stroke-width:1.5;"/>
   </g>
   <g id="line2d_20">
    <path clip-path="url(#p429ffb507b)" d="M 69.218182 44.452073 
L 72.292562 44.451897 
L 75.366942 44.454473 
L 78.441322 44.453358 
L 81.515702 44.453462 
L 84.590083 44.453882 
L 87.664463 44.453826 
L 90.738843 44.453975 
L 93.813223 44.454556 
L 96.887603 44.455102 
L 99.961983 44.454052 
L 103.036364 44.454249 
L 106.110744 44.454124 
L 109.185124 44.454036 
L 112.259504 44.453906 
L 115.333884 44.453889 
L 118.408264 44.453893 
L 121.482645 44.453997 
L 124.557025 44.453895 
L 127.631405 44.454126 
L 130.705785 44.454486 
L 133.780165 44.454776 
L 136.854545 44.454799 
L 139.928926 44.454776 
L 143.003306 44.454726 
L 146.077686 44.455258 
L 149.152066 44.455237 
L 152.226446 44.455522 
L 155.300826 44.455846 
L 158.375207 44.455888 
L 161.449587 44.45619 
L 164.523967 44.456144 
L 167.598347 44.455933 
L 170.672727 44.455806 
L 173.747107 44.455782 
L 176.821488 44.455775 
L 179.895868 44.455718 
L 182.970248 44.45556 
L 186.044628 44.455816 
L 189.119008 44.455876 
L 192.193388 44.455776 
L 195.267769 44.455311 
L 198.342149 44.455155 
L 201.416529 44.455377 
L 204.490909 44.455219 
L 207.565289 44.455546 
L 210.639669 44.455377 
L 213.71405 44.455277 
L 216.78843 44.455468 
L 219.86281 44.455488 
L 222.93719 44.455477 
L 226.01157 44.455209 
L 229.08595 44.454912 
L 232.160331 44.455074 
L 235.234711 44.454948 
L 238.309091 44.454891 
L 241.383471 44.455058 
L 244.457851 44.454732 
L 247.532231 44.454643 
L 250.606612 44.45446 
L 253.680992 44.454388 
L 256.755372 44.454552 
L 259.829752 44.454446 
L 262.904132 44.454956 
L 265.978512 44.454534 
L 269.052893 44.454769 
L 272.127273 44.454726 
L 275.201653 44.455204 
L 278.276033 44.454912 
L 281.350413 44.455077 
L 284.424793 44.455601 
L 287.499174 44.455381 
L 290.573554 44.455331 
L 293.647934 44.455513 
L 296.722314 44.455467 
L 299.796694 44.455437 
L 302.871074 44.455559 
L 305.945455 44.455581 
L 309.019835 44.455603 
L 312.094215 44.455585 
L 315.168595 44.455656 
L 318.242975 44.455514 
L 321.317355 44.455418 
L 324.391736 44.45533 
L 327.466116 44.45528 
L 330.540496 44.455197 
L 333.614876 44.45473 
L 336.689256 44.454547 
L 339.763636 44.454233 
L 342.838017 44.454542 
L 345.912397 44.454523 
L 348.986777 44.454556 
L 352.061157 44.454682 
L 355.135537 44.454674 
L 358.209917 44.454672 
L 361.284298 44.454712 
L 364.358678 44.454738 
L 367.433058 44.454477 
L 370.507438 44.454582 
L 373.581818 44.454466 
" style="fill:none;stroke:#8c564b;stroke-linecap:square;stroke-width:1.5;"/>
   </g>
   <g id="line2d_21">
    <path clip-path="url(#p429ffb507b)" d="M 69.218182 44.452568 
L 72.292562 44.450169 
L 75.366942 44.451768 
L 78.441322 44.453583 
L 81.515702 44.453431 
L 84.590083 44.453482 
L 87.664463 44.454145 
L 90.738843 44.454225 
L 93.813223 44.453667 
L 96.887603 44.454356 
L 99.961983 44.454525 
L 103.036364 44.45461 
L 106.110744 44.454669 
L 109.185124 44.455021 
L 112.259504 44.455177 
L 115.333884 44.454999 
L 118.408264 44.453786 
L 121.482645 44.454195 
L 124.557025 44.454649 
L 127.631405 44.454531 
L 130.705785 44.454719 
L 133.780165 44.45448 
L 136.854545 44.45397 
L 139.928926 44.453344 
L 143.003306 44.454392 
L 146.077686 44.454389 
L 149.152066 44.455074 
L 152.226446 44.45585 
L 155.300826 44.455776 
L 158.375207 44.455739 
L 161.449587 44.455655 
L 164.523967 44.456294 
L 167.598347 44.455675 
L 170.672727 44.4557 
L 173.747107 44.455945 
L 176.821488 44.456039 
L 179.895868 44.456199 
L 182.970248 44.45622 
L 186.044628 44.456482 
L 189.119008 44.456298 
L 192.193388 44.456422 
L 195.267769 44.456234 
L 198.342149 44.455965 
L 201.416529 44.455694 
L 204.490909 44.456035 
L 207.565289 44.456194 
L 210.639669 44.455955 
L 213.71405 44.456027 
L 216.78843 44.455793 
L 219.86281 44.455535 
L 222.93719 44.455527 
L 226.01157 44.455846 
L 229.08595 44.456115 
L 232.160331 44.456282 
L 235.234711 44.456177 
L 238.309091 44.456283 
L 241.383471 44.456177 
L 244.457851 44.456146 
L 247.532231 44.456033 
L 250.606612 44.456029 
L 253.680992 44.456052 
L 256.755372 44.456138 
L 259.829752 44.45631 
L 262.904132 44.456281 
L 265.978512 44.456415 
L 269.052893 44.456394 
L 272.127273 44.455948 
L 275.201653 44.455792 
L 278.276033 44.455817 
L 281.350413 44.455873 
L 284.424793 44.45574 
L 287.499174 44.455754 
L 290.573554 44.455674 
L 293.647934 44.455659 
L 296.722314 44.455822 
L 299.796694 44.455829 
L 302.871074 44.456331 
L 305.945455 44.456077 
L 309.019835 44.455862 
L 312.094215 44.455958 
L 315.168595 44.456362 
L 318.242975 44.456499 
L 321.317355 44.456314 
L 324.391736 44.456273 
L 327.466116 44.456444 
L 330.540496 44.456101 
L 333.614876 44.456364 
L 336.689256 44.456482 
L 339.763636 44.456263 
L 342.838017 44.456226 
L 345.912397 44.456393 
L 348.986777 44.456201 
L 352.061157 44.456107 
L 355.135537 44.456274 
L 358.209917 44.456272 
L 361.284298 44.456701 
L 364.358678 44.456617 
L 367.433058 44.456362 
L 370.507438 44.456521 
L 373.581818 44.45629 
" style="fill:none;stroke:#e377c2;stroke-linecap:square;stroke-width:1.5;"/>
   </g>
   <g id="line2d_22">
    <path clip-path="url(#p429ffb507b)" d="M 69.218182 44.451744 
L 72.292562 44.453817 
L 75.366942 44.455175 
L 78.441322 44.454787 
L 81.515702 44.453163 
L 84.590083 44.453166 
L 87.664463 44.454112 
L 90.738843 44.456144 
L 93.813223 44.456398 
L 96.887603 44.456396 
L 99.961983 44.456816 
L 103.036364 44.457102 
L 106.110744 44.456467 
L 109.185124 44.456613 
L 112.259504 44.456926 
L 115.333884 44.456906 
L 118.408264 44.457603 
L 121.482645 44.45737 
L 124.557025 44.458451 
L 127.631405 44.457229 
L 130.705785 44.457428 
L 133.780165 44.457351 
L 136.854545 44.456682 
L 139.928926 44.45687 
L 143.003306 44.456542 
L 146.077686 44.457157 
L 149.152066 44.45692 
L 152.226446 44.456763 
L 155.300826 44.457226 
L 158.375207 44.457805 
L 161.449587 44.458003 
L 164.523967 44.458063 
L 167.598347 44.457166 
L 170.672727 44.457532 
L 173.747107 44.457447 
L 176.821488 44.457443 
L 179.895868 44.457558 
L 182.970248 44.457311 
L 186.044628 44.45756 
L 189.119008 44.458379 
L 192.193388 44.457845 
L 195.267769 44.457513 
L 198.342149 44.457672 
L 201.416529 44.457089 
L 204.490909 44.457301 
L 207.565289 44.456656 
L 210.639669 44.457372 
L 213.71405 44.456488 
L 216.78843 44.456755 
L 219.86281 44.456625 
L 222.93719 44.456317 
L 226.01157 44.455982 
L 229.08595 44.455786 
L 232.160331 44.456193 
L 235.234711 44.456438 
L 238.309091 44.456679 
L 241.383471 44.456661 
L 244.457851 44.456856 
L 247.532231 44.456284 
L 250.606612 44.456036 
L 253.680992 44.456612 
L 256.755372 44.456465 
L 259.829752 44.456168 
L 262.904132 44.456315 
L 265.978512 44.455883 
L 269.052893 44.455865 
L 272.127273 44.455995 
L 275.201653 44.456022 
L 278.276033 44.455485 
L 281.350413 44.455645 
L 284.424793 44.454749 
L 287.499174 44.454908 
L 290.573554 44.454647 
L 293.647934 44.454261 
L 296.722314 44.454777 
L 299.796694 44.455072 
L 302.871074 44.454826 
L 305.945455 44.455111 
L 309.019835 44.455326 
L 312.094215 44.455371 
L 315.168595 44.455124 
L 318.242975 44.45527 
L 321.317355 44.454932 
L 324.391736 44.455091 
L 327.466116 44.455232 
L 330.540496 44.455017 
L 333.614876 44.455357 
L 336.689256 44.455179 
L 339.763636 44.454896 
L 342.838017 44.455099 
L 345.912397 44.455088 
L 348.986777 44.454888 
L 352.061157 44.455041 
L 355.135537 44.455231 
L 358.209917 44.45533 
L 361.284298 44.454857 
L 364.358678 44.454635 
L 367.433058 44.455061 
L 370.507438 44.455361 
L 373.581818 44.45578 
" style="fill:none;stroke:#7f7f7f;stroke-linecap:square;stroke-width:1.5;"/>
   </g>
   <g id="line2d_23">
    <path clip-path="url(#p429ffb507b)" d="M 69.218182 44.452765 
L 72.292562 44.452053 
L 75.366942 44.453752 
L 78.441322 44.453422 
L 81.515702 44.457138 
L 84.590083 44.456595 
L 87.664463 44.457985 
L 90.738843 44.456861 
L 93.813223 44.458247 
L 96.887603 44.458441 
L 99.961983 44.459239 
L 103.036364 44.458964 
L 106.110744 44.459341 
L 109.185124 44.459253 
L 112.259504 44.45977 
L 115.333884 44.460199 
L 118.408264 44.45934 
L 121.482645 44.458889 
L 124.557025 44.458405 
L 127.631405 44.457449 
L 130.705785 44.457998 
L 133.780165 44.458445 
L 136.854545 44.457996 
L 139.928926 44.457194 
L 143.003306 44.456523 
L 146.077686 44.457075 
L 149.152066 44.457927 
L 152.226446 44.458722 
L 155.300826 44.458834 
L 158.375207 44.459204 
L 161.449587 44.45858 
L 164.523967 44.45922 
L 167.598347 44.458923 
L 170.672727 44.458485 
L 173.747107 44.458701 
L 176.821488 44.458259 
L 179.895868 44.459067 
L 182.970248 44.45916 
L 186.044628 44.459038 
L 189.119008 44.459822 
L 192.193388 44.45882 
L 195.267769 44.458861 
L 198.342149 44.459679 
L 201.416529 44.459487 
L 204.490909 44.458414 
L 207.565289 44.45854 
L 210.639669 44.458657 
L 213.71405 44.458198 
L 216.78843 44.458026 
L 219.86281 44.457488 
L 222.93719 44.45772 
L 226.01157 44.457541 
L 229.08595 44.45713 
L 232.160331 44.457332 
L 235.234711 44.457632 
L 238.309091 44.457676 
L 241.383471 44.45775 
L 244.457851 44.456934 
L 247.532231 44.457423 
L 250.606612 44.457268 
L 253.680992 44.457654 
L 256.755372 44.458077 
L 259.829752 44.458529 
L 262.904132 44.459174 
L 265.978512 44.458485 
L 269.052893 44.458895 
L 272.127273 44.458978 
L 275.201653 44.458986 
L 278.276033 44.458871 
L 281.350413 44.459408 
L 284.424793 44.459116 
L 287.499174 44.459107 
L 290.573554 44.45942 
L 293.647934 44.458783 
L 296.722314 44.458752 
L 299.796694 44.459336 
L 302.871074 44.459813 
L 305.945455 44.459846 
L 309.019835 44.459719 
L 312.094215 44.459104 
L 315.168595 44.45883 
L 318.242975 44.45896 
L 321.317355 44.459161 
L 324.391736 44.458531 
L 327.466116 44.458353 
L 330.540496 44.458472 
L 333.614876 44.458846 
L 336.689256 44.459404 
L 339.763636 44.458701 
L 342.838017 44.458968 
L 345.912397 44.458379 
L 348.986777 44.45826 
L 352.061157 44.458874 
L 355.135537 44.459008 
L 358.209917 44.458999 
L 361.284298 44.459521 
L 364.358678 44.459209 
L 367.433058 44.458807 
L 370.507438 44.45843 
L 373.581818 44.458333 
" style="fill:none;stroke:#bcbd22;stroke-linecap:square;stroke-width:1.5;"/>
   </g>
   <g id="line2d_24">
    <path clip-path="url(#p429ffb507b)" d="M 69.218182 44.451474 
L 72.292562 44.447404 
L 75.366942 44.453737 
L 78.441322 44.456639 
L 81.515702 44.456182 
L 84.590083 44.456356 
L 87.664463 44.456815 
L 90.738843 44.456847 
L 93.813223 44.455156 
L 96.887603 44.45433 
L 99.961983 44.456352 
L 103.036364 44.456726 
L 106.110744 44.457445 
L 109.185124 44.456716 
L 112.259504 44.457249 
L 115.333884 44.456546 
L 118.408264 44.455191 
L 121.482645 44.454086 
L 124.557025 44.455398 
L 127.631405 44.454541 
L 130.705785 44.454543 
L 133.780165 44.455962 
L 136.854545 44.456097 
L 139.928926 44.456969 
L 143.003306 44.456837 
L 146.077686 44.456806 
L 149.152066 44.456586 
L 152.226446 44.457279 
L 155.300826 44.457487 
L 158.375207 44.457223 
L 161.449587 44.457173 
L 164.523967 44.458581 
L 167.598347 44.457128 
L 170.672727 44.45813 
L 173.747107 44.458104 
L 176.821488 44.457119 
L 179.895868 44.456361 
L 182.970248 44.457437 
L 186.044628 44.457815 
L 189.119008 44.45663 
L 192.193388 44.456785 
L 195.267769 44.457667 
L 198.342149 44.457002 
L 201.416529 44.455049 
L 204.490909 44.456731 
L 207.565289 44.455933 
L 210.639669 44.456329 
L 213.71405 44.45574 
L 216.78843 44.456383 
L 219.86281 44.454999 
L 222.93719 44.453961 
L 226.01157 44.452935 
L 229.08595 44.452335 
L 232.160331 44.452593 
L 235.234711 44.452878 
L 238.309091 44.45367 
L 241.383471 44.453666 
L 244.457851 44.453526 
L 247.532231 44.45407 
L 250.606612 44.453713 
L 253.680992 44.454333 
L 256.755372 44.453357 
L 259.829752 44.454421 
L 262.904132 44.454029 
L 265.978512 44.454309 
L 269.052893 44.45382 
L 272.127273 44.453658 
L 275.201653 44.454167 
L 278.276033 44.454946 
L 281.350413 44.45435 
L 284.424793 44.454302 
L 287.499174 44.454499 
L 290.573554 44.45521 
L 293.647934 44.455016 
L 296.722314 44.455649 
L 299.796694 44.456503 
L 302.871074 44.456934 
L 305.945455 44.456652 
L 309.019835 44.456152 
L 312.094215 44.456383 
L 315.168595 44.456539 
L 318.242975 44.456892 
L 321.317355 44.455967 
L 324.391736 44.455786 
L 327.466116 44.455697 
L 330.540496 44.455684 
L 333.614876 44.455981 
L 336.689256 44.456997 
L 339.763636 44.457557 
L 342.838017 44.457817 
L 345.912397 44.457443 
L 348.986777 44.457641 
L 352.061157 44.456435 
L 355.135537 44.45625 
L 358.209917 44.456178 
L 361.284298 44.455848 
L 364.358678 44.456446 
L 367.433058 44.456533 
L 370.507438 44.456633 
L 373.581818 44.456701 
" style="fill:none;stroke:#17becf;stroke-linecap:square;stroke-width:1.5;"/>
   </g>
   <g id="line2d_25">
    <path clip-path="url(#p429ffb507b)" d="M 69.218182 44.450503 
L 72.292562 44.455193 
L 75.366942 44.45667 
L 78.441322 44.459995 
L 81.515702 44.460591 
L 84.590083 44.463357 
L 87.664463 44.463344 
L 90.738843 44.464196 
L 93.813223 44.461669 
L 96.887603 44.465929 
L 99.961983 44.466833 
L 103.036364 44.466474 
L 106.110744 44.467896 
L 109.185124 44.466351 
L 112.259504 44.466083 
L 115.333884 44.465924 
L 118.408264 44.464897 
L 121.482645 44.466054 
L 124.557025 44.465638 
L 127.631405 44.463893 
L 130.705785 44.463368 
L 133.780165 44.464614 
L 136.854545 44.464142 
L 139.928926 44.463598 
L 143.003306 44.463396 
L 146.077686 44.462921 
L 149.152066 44.462465 
L 152.226446 44.462228 
L 155.300826 44.462453 
L 158.375207 44.462408 
L 161.449587 44.462753 
L 164.523967 44.461919 
L 167.598347 44.462078 
L 170.672727 44.461139 
L 173.747107 44.461338 
L 176.821488 44.460717 
L 179.895868 44.463943 
L 182.970248 44.464559 
L 186.044628 44.462059 
L 189.119008 44.463021 
L 192.193388 44.4621 
L 195.267769 44.462292 
L 198.342149 44.463437 
L 201.416529 44.463918 
L 204.490909 44.46286 
L 207.565289 44.463362 
L 210.639669 44.463295 
L 213.71405 44.464104 
L 216.78843 44.464516 
L 219.86281 44.463076 
L 222.93719 44.463465 
L 226.01157 44.463697 
L 229.08595 44.462054 
L 232.160331 44.461866 
L 235.234711 44.462259 
L 238.309091 44.461351 
L 241.383471 44.46197 
L 244.457851 44.461574 
L 247.532231 44.462056 
L 250.606612 44.462 
L 253.680992 44.462039 
L 256.755372 44.462067 
L 259.829752 44.461853 
L 262.904132 44.461235 
L 265.978512 44.461566 
L 269.052893 44.461309 
L 272.127273 44.46048 
L 275.201653 44.460459 
L 278.276033 44.460407 
L 281.350413 44.460741 
L 284.424793 44.461384 
L 287.499174 44.461383 
L 290.573554 44.460773 
L 293.647934 44.461752 
L 296.722314 44.462049 
L 299.796694 44.46272 
L 302.871074 44.462044 
L 305.945455 44.462873 
L 309.019835 44.463639 
L 312.094215 44.464222 
L 315.168595 44.464641 
L 318.242975 44.464701 
L 321.317355 44.464928 
L 324.391736 44.464028 
L 327.466116 44.463235 
L 330.540496 44.464344 
L 333.614876 44.465176 
L 336.689256 44.46601 
L 339.763636 44.465079 
L 342.838017 44.464976 
L 345.912397 44.465899 
L 348.986777 44.465489 
L 352.061157 44.46401 
L 355.135537 44.465401 
L 358.209917 44.466064 
L 361.284298 44.465191 
L 364.358678 44.465529 
L 367.433058 44.465797 
L 370.507438 44.466049 
L 373.581818 44.466801 
" style="fill:none;stroke:#1f77b4;stroke-linecap:square;stroke-width:1.5;"/>
   </g>
   <g id="line2d_26">
    <path clip-path="url(#p429ffb507b)" d="M 69.218182 44.448807 
L 72.292562 44.443636 
L 75.366942 44.451433 
L 78.441322 44.454423 
L 81.515702 44.454597 
L 84.590083 44.455926 
L 87.664463 44.455238 
L 90.738843 44.455466 
L 93.813223 44.458274 
L 96.887603 44.457618 
L 99.961983 44.45599 
L 103.036364 44.455325 
L 106.110744 44.453695 
L 109.185124 44.453859 
L 112.259504 44.453905 
L 115.333884 44.455492 
L 118.408264 44.455373 
L 121.482645 44.455093 
L 124.557025 44.456172 
L 127.631405 44.455414 
L 130.705785 44.455816 
L 133.780165 44.456754 
L 136.854545 44.456645 
L 139.928926 44.456424 
L 143.003306 44.456584 
L 146.077686 44.456529 
L 149.152066 44.455501 
L 152.226446 44.454873 
L 155.300826 44.454185 
L 158.375207 44.452361 
L 161.449587 44.452587 
L 164.523967 44.45441 
L 167.598347 44.45543 
L 170.672727 44.455788 
L 173.747107 44.455899 
L 176.821488 44.454691 
L 179.895868 44.455738 
L 182.970248 44.455064 
L 186.044628 44.453305 
L 189.119008 44.453366 
L 192.193388 44.454259 
L 195.267769 44.453998 
L 198.342149 44.453583 
L 201.416529 44.454481 
L 204.490909 44.454146 
L 207.565289 44.454788 
L 210.639669 44.455225 
L 213.71405 44.454934 
L 216.78843 44.454762 
L 219.86281 44.455591 
L 222.93719 44.453995 
L 226.01157 44.4549 
L 229.08595 44.454558 
L 232.160331 44.452357 
L 235.234711 44.452241 
L 238.309091 44.452145 
L 241.383471 44.453097 
L 244.457851 44.452335 
L 247.532231 44.450958 
L 250.606612 44.451479 
L 253.680992 44.452632 
L 256.755372 44.454041 
L 259.829752 44.453485 
L 262.904132 44.455551 
L 265.978512 44.454383 
L 269.052893 44.455262 
L 272.127273 44.45422 
L 275.201653 44.453257 
L 278.276033 44.454145 
L 281.350413 44.453721 
L 284.424793 44.45443 
L 287.499174 44.454882 
L 290.573554 44.455583 
L 293.647934 44.456127 
L 296.722314 44.457384 
L 299.796694 44.457421 
L 302.871074 44.458019 
L 305.945455 44.459126 
L 309.019835 44.459688 
L 312.094215 44.460194 
L 315.168595 44.460125 
L 318.242975 44.460341 
L 321.317355 44.459736 
L 324.391736 44.457588 
L 327.466116 44.456388 
L 330.540496 44.456689 
L 333.614876 44.456628 
L 336.689256 44.456385 
L 339.763636 44.455706 
L 342.838017 44.455854 
L 345.912397 44.456324 
L 348.986777 44.456859 
L 352.061157 44.455648 
L 355.135537 44.455863 
L 358.209917 44.456177 
L 361.284298 44.455653 
L 364.358678 44.455569 
L 367.433058 44.455527 
L 370.507438 44.456538 
L 373.581818 44.45648 
" style="fill:none;stroke:#ff7f0e;stroke-linecap:square;stroke-width:1.5;"/>
   </g>
   <g id="patch_3">
    <path d="M 54 252 
L 54 34.56 
" style="fill:none;stroke:#000000;stroke-linecap:square;stroke-linejoin:miter;stroke-width:0.8;"/>
   </g>
   <g id="patch_4">
    <path d="M 388.8 252 
L 388.8 34.56 
" style="fill:none;stroke:#000000;stroke-linecap:square;stroke-linejoin:miter;stroke-width:0.8;"/>
   </g>
   <g id="patch_5">
    <path d="M 54 252 
L 388.8 252 
" style="fill:none;stroke:#000000;stroke-linecap:square;stroke-linejoin:miter;stroke-width:0.8;"/>
   </g>
   <g id="patch_6">
    <path d="M 54 34.56 
L 388.8 34.56 
" style="fill:none;stroke:#000000;stroke-linecap:square;stroke-linejoin:miter;stroke-width:0.8;"/>
   </g>
   <g id="text_18">
    <!-- Loss across layers -->
    <g transform="translate(167.016563 28.56)scale(0.12 -0.12)">
     <defs>
      <path d="M 628 4666 
L 1259 4666 
L 1259 531 
L 3531 531 
L 3531 0 
L 628 0 
L 628 4666 
z
" id="DejaVuSans-4c" transform="scale(0.015625)"/>
      <path id="DejaVuSans-20" transform="scale(0.015625)"/>
      <path d="M 2194 1759 
Q 1497 1759 1228 1600 
Q 959 1441 959 1056 
Q 959 750 1161 570 
Q 1363 391 1709 391 
Q 2188 391 2477 730 
Q 2766 1069 2766 1631 
L 2766 1759 
L 2194 1759 
z
M 3341 1997 
L 3341 0 
L 2766 0 
L 2766 531 
Q 2569 213 2275 61 
Q 1981 -91 1556 -91 
Q 1019 -91 701 211 
Q 384 513 384 1019 
Q 384 1609 779 1909 
Q 1175 2209 1959 2209 
L 2766 2209 
L 2766 2266 
Q 2766 2663 2505 2880 
Q 2244 3097 1772 3097 
Q 1472 3097 1187 3025 
Q 903 2953 641 2809 
L 641 3341 
Q 956 3463 1253 3523 
Q 1550 3584 1831 3584 
Q 2591 3584 2966 3190 
Q 3341 2797 3341 1997 
z
" id="DejaVuSans-61" transform="scale(0.015625)"/>
      <path d="M 3122 3366 
L 3122 2828 
Q 2878 2963 2633 3030 
Q 2388 3097 2138 3097 
Q 1578 3097 1268 2742 
Q 959 2388 959 1747 
Q 959 1106 1268 751 
Q 1578 397 2138 397 
Q 2388 397 2633 464 
Q 2878 531 3122 666 
L 3122 134 
Q 2881 22 2623 -34 
Q 2366 -91 2075 -91 
Q 1284 -91 818 406 
Q 353 903 353 1747 
Q 353 2603 823 3093 
Q 1294 3584 2113 3584 
Q 2378 3584 2631 3529 
Q 2884 3475 3122 3366 
z
" id="DejaVuSans-63" transform="scale(0.015625)"/>
      <path d="M 2059 -325 
Q 1816 -950 1584 -1140 
Q 1353 -1331 966 -1331 
L 506 -1331 
L 506 -850 
L 844 -850 
Q 1081 -850 1212 -737 
Q 1344 -625 1503 -206 
L 1606 56 
L 191 3500 
L 800 3500 
L 1894 763 
L 2988 3500 
L 3597 3500 
L 2059 -325 
z
" id="DejaVuSans-79" transform="scale(0.015625)"/>
     </defs>
     <use xlink:href="#DejaVuSans-4c"/>
     <use x="53.962891" xlink:href="#DejaVuSans-6f"/>
     <use x="115.144531" xlink:href="#DejaVuSans-73"/>
     <use x="167.244141" xlink:href="#DejaVuSans-73"/>
     <use x="219.34375" xlink:href="#DejaVuSans-20"/>
     <use x="251.130859" xlink:href="#DejaVuSans-61"/>
     <use x="312.410156" xlink:href="#DejaVuSans-63"/>
     <use x="367.390625" xlink:href="#DejaVuSans-72"/>
     <use x="406.253906" xlink:href="#DejaVuSans-6f"/>
     <use x="467.435547" xlink:href="#DejaVuSans-73"/>
     <use x="519.535156" xlink:href="#DejaVuSans-73"/>
     <use x="571.634766" xlink:href="#DejaVuSans-20"/>
     <use x="603.421875" xlink:href="#DejaVuSans-6c"/>
     <use x="631.205078" xlink:href="#DejaVuSans-61"/>
     <use x="692.484375" xlink:href="#DejaVuSans-79"/>
     <use x="751.664062" xlink:href="#DejaVuSans-65"/>
     <use x="813.1875" xlink:href="#DejaVuSans-72"/>
     <use x="854.300781" xlink:href="#DejaVuSans-73"/>
    </g>
   </g>
   <g id="legend_1">
    <g id="patch_7">
     <path d="M 61 247 
L 105.725 247 
Q 107.725 247 107.725 245 
L 107.725 69.8625 
Q 107.725 67.8625 105.725 67.8625 
L 61 67.8625 
Q 59 67.8625 59 69.8625 
L 59 245 
Q 59 247 61 247 
z
" style="fill:#ffffff;opacity:0.8;stroke:#cccccc;stroke-linejoin:miter;"/>
    </g>
    <g id="line2d_27">
     <path d="M 63 75.960938 
L 83 75.960938 
" style="fill:none;stroke:#1f77b4;stroke-linecap:square;stroke-width:1.5;"/>
    </g>
    <g id="line2d_28"/>
    <g id="text_19">
     <!-- 0 -->
     <g transform="translate(91 79.460938)scale(0.1 -0.1)">
      <use xlink:href="#DejaVuSans-30"/>
     </g>
    </g>
    <g id="line2d_29">
     <path d="M 63 90.639063 
L 83 90.639063 
" style="fill:none;stroke:#ff7f0e;stroke-linecap:square;stroke-width:1.5;"/>
    </g>
    <g id="line2d_30"/>
    <g id="text_20">
     <!-- 1 -->
     <g transform="translate(91 94.139063)scale(0.1 -0.1)">
      <use xlink:href="#DejaVuSans-31"/>
     </g>
    </g>
    <g id="line2d_31">
     <path d="M 63 105.317188 
L 83 105.317188 
" style="fill:none;stroke:#2ca02c;stroke-linecap:square;stroke-width:1.5;"/>
    </g>
    <g id="line2d_32"/>
    <g id="text_21">
     <!-- 2 -->
     <g transform="translate(91 108.817188)scale(0.1 -0.1)">
      <use xlink:href="#DejaVuSans-32"/>
     </g>
    </g>
    <g id="line2d_33">
     <path d="M 63 119.995313 
L 83 119.995313 
" style="fill:none;stroke:#d62728;stroke-linecap:square;stroke-width:1.5;"/>
    </g>
    <g id="line2d_34"/>
    <g id="text_22">
     <!-- 3 -->
     <g transform="translate(91 123.495313)scale(0.1 -0.1)">
      <defs>
       <path d="M 2597 2516 
Q 3050 2419 3304 2112 
Q 3559 1806 3559 1356 
Q 3559 666 3084 287 
Q 2609 -91 1734 -91 
Q 1441 -91 1130 -33 
Q 819 25 488 141 
L 488 750 
Q 750 597 1062 519 
Q 1375 441 1716 441 
Q 2309 441 2620 675 
Q 2931 909 2931 1356 
Q 2931 1769 2642 2001 
Q 2353 2234 1838 2234 
L 1294 2234 
L 1294 2753 
L 1863 2753 
Q 2328 2753 2575 2939 
Q 2822 3125 2822 3475 
Q 2822 3834 2567 4026 
Q 2313 4219 1838 4219 
Q 1578 4219 1281 4162 
Q 984 4106 628 3988 
L 628 4550 
Q 988 4650 1302 4700 
Q 1616 4750 1894 4750 
Q 2613 4750 3031 4423 
Q 3450 4097 3450 3541 
Q 3450 3153 3228 2886 
Q 3006 2619 2597 2516 
z
" id="DejaVuSans-33" transform="scale(0.015625)"/>
      </defs>
      <use xlink:href="#DejaVuSans-33"/>
     </g>
    </g>
    <g id="line2d_35">
     <path d="M 63 134.673438 
L 83 134.673438 
" style="fill:none;stroke:#9467bd;stroke-linecap:square;stroke-width:1.5;"/>
    </g>
    <g id="line2d_36"/>
    <g id="text_23">
     <!-- 4 -->
     <g transform="translate(91 138.173438)scale(0.1 -0.1)">
      <use xlink:href="#DejaVuSans-34"/>
     </g>
    </g>
    <g id="line2d_37">
     <path d="M 63 149.351563 
L 83 149.351563 
" style="fill:none;stroke:#8c564b;stroke-linecap:square;stroke-width:1.5;"/>
    </g>
    <g id="line2d_38"/>
    <g id="text_24">
     <!-- 5 -->
     <g transform="translate(91 152.851563)scale(0.1 -0.1)">
      <defs>
       <path d="M 691 4666 
L 3169 4666 
L 3169 4134 
L 1269 4134 
L 1269 2991 
Q 1406 3038 1543 3061 
Q 1681 3084 1819 3084 
Q 2600 3084 3056 2656 
Q 3513 2228 3513 1497 
Q 3513 744 3044 326 
Q 2575 -91 1722 -91 
Q 1428 -91 1123 -41 
Q 819 9 494 109 
L 494 744 
Q 775 591 1075 516 
Q 1375 441 1709 441 
Q 2250 441 2565 725 
Q 2881 1009 2881 1497 
Q 2881 1984 2565 2268 
Q 2250 2553 1709 2553 
Q 1456 2553 1204 2497 
Q 953 2441 691 2322 
L 691 4666 
z
" id="DejaVuSans-35" transform="scale(0.015625)"/>
      </defs>
      <use xlink:href="#DejaVuSans-35"/>
     </g>
    </g>
    <g id="line2d_39">
     <path d="M 63 164.029688 
L 83 164.029688 
" style="fill:none;stroke:#e377c2;stroke-linecap:square;stroke-width:1.5;"/>
    </g>
    <g id="line2d_40"/>
    <g id="text_25">
     <!-- 6 -->
     <g transform="translate(91 167.529688)scale(0.1 -0.1)">
      <use xlink:href="#DejaVuSans-36"/>
     </g>
    </g>
    <g id="line2d_41">
     <path d="M 63 178.707813 
L 83 178.707813 
" style="fill:none;stroke:#7f7f7f;stroke-linecap:square;stroke-width:1.5;"/>
    </g>
    <g id="line2d_42"/>
    <g id="text_26">
     <!-- 7 -->
     <g transform="translate(91 182.207813)scale(0.1 -0.1)">
      <defs>
       <path d="M 525 4666 
L 3525 4666 
L 3525 4397 
L 1831 0 
L 1172 0 
L 2766 4134 
L 525 4134 
L 525 4666 
z
" id="DejaVuSans-37" transform="scale(0.015625)"/>
      </defs>
      <use xlink:href="#DejaVuSans-37"/>
     </g>
    </g>
    <g id="line2d_43">
     <path d="M 63 193.385938 
L 83 193.385938 
" style="fill:none;stroke:#bcbd22;stroke-linecap:square;stroke-width:1.5;"/>
    </g>
    <g id="line2d_44"/>
    <g id="text_27">
     <!-- 8 -->
     <g transform="translate(91 196.885938)scale(0.1 -0.1)">
      <use xlink:href="#DejaVuSans-38"/>
     </g>
    </g>
    <g id="line2d_45">
     <path d="M 63 208.064063 
L 83 208.064063 
" style="fill:none;stroke:#17becf;stroke-linecap:square;stroke-width:1.5;"/>
    </g>
    <g id="line2d_46"/>
    <g id="text_28">
     <!-- 9 -->
     <g transform="translate(91 211.564063)scale(0.1 -0.1)">
      <defs>
       <path d="M 703 97 
L 703 672 
Q 941 559 1184 500 
Q 1428 441 1663 441 
Q 2288 441 2617 861 
Q 2947 1281 2994 2138 
Q 2813 1869 2534 1725 
Q 2256 1581 1919 1581 
Q 1219 1581 811 2004 
Q 403 2428 403 3163 
Q 403 3881 828 4315 
Q 1253 4750 1959 4750 
Q 2769 4750 3195 4129 
Q 3622 3509 3622 2328 
Q 3622 1225 3098 567 
Q 2575 -91 1691 -91 
Q 1453 -91 1209 -44 
Q 966 3 703 97 
z
M 1959 2075 
Q 2384 2075 2632 2365 
Q 2881 2656 2881 3163 
Q 2881 3666 2632 3958 
Q 2384 4250 1959 4250 
Q 1534 4250 1286 3958 
Q 1038 3666 1038 3163 
Q 1038 2656 1286 2365 
Q 1534 2075 1959 2075 
z
" id="DejaVuSans-39" transform="scale(0.015625)"/>
      </defs>
      <use xlink:href="#DejaVuSans-39"/>
     </g>
    </g>
    <g id="line2d_47">
     <path d="M 63 222.742188 
L 83 222.742188 
" style="fill:none;stroke:#1f77b4;stroke-linecap:square;stroke-width:1.5;"/>
    </g>
    <g id="line2d_48"/>
    <g id="text_29">
     <!-- 10 -->
     <g transform="translate(91 226.242188)scale(0.1 -0.1)">
      <use xlink:href="#DejaVuSans-31"/>
      <use x="63.623047" xlink:href="#DejaVuSans-30"/>
     </g>
    </g>
    <g id="line2d_49">
     <path d="M 63 237.420312 
L 83 237.420312 
" style="fill:none;stroke:#ff7f0e;stroke-linecap:square;stroke-width:1.5;"/>
    </g>
    <g id="line2d_50"/>
    <g id="text_30">
     <!-- 11 -->
     <g transform="translate(91 240.920312)scale(0.1 -0.1)">
      <use xlink:href="#DejaVuSans-31"/>
      <use x="63.623047" xlink:href="#DejaVuSans-31"/>
     </g>
    </g>
   </g>
  </g>
 </g>
 <defs>
  <clipPath id="p429ffb507b">
   <rect height="217.44" width="334.8" x="54" y="34.56"/>
  </clipPath>
 </defs>
</svg>
