<?xml version="1.0" encoding="utf-8" standalone="no"?>
<!DOCTYPE svg PUBLIC "-//W3C//DTD SVG 1.1//EN"
  "http://www.w3.org/Graphics/SVG/1.1/DTD/svg11.dtd">
<svg height="288pt" version="1.1" viewBox="0 0 432 288" width="432pt" xmlns="http://www.w3.org/2000/svg" xmlns:xlink="http://www.w3.org/1999/xlink">
 <metadata>
  <rdf:RDF xmlns:cc="http://creativecommons.org/ns#" xmlns:dc="http://purl.org/dc/elements/1.1/" xmlns:rdf="http://www.w3.org/1999/02/22-rdf-syntax-ns#">
   <cc:Work>
    <dc:type rdf:resource="http://purl.org/dc/dcmitype/StillImage"/>
    <dc:date>2022-05-19T12:37:49.526892</dc:date>
    <dc:format>image/svg+xml</dc:format>
    <dc:creator>
     <cc:Agent>
      <dc:title>Matplotlib v3.4.3, https://matplotlib.org/</dc:title>
     </cc:Agent>
    </dc:creator>
   </cc:Work>
  </rdf:RDF>
 </metadata>
 <defs>
  <style type="text/css">*{stroke-linecap:butt;stroke-linejoin:round;}</style>
 </defs>
 <g id="figure_1">
  <g id="patch_1">
   <path d="M 0 288 
L 432 288 
L 432 0 
L 0 0 
z
" style="fill:none;"/>
  </g>
  <g id="axes_1">
   <g id="patch_2">
    <path d="M 54 252 
L 388.8 252 
L 388.8 34.56 
L 54 34.56 
z
" style="fill:#ffffff;"/>
   </g>
   <g id="matplotlib.axis_1">
    <g id="xtick_1">
     <g id="line2d_1">
      <defs>
       <path d="M 0 0 
L 0 3.5 
" id="mcc66b15568" style="stroke:#000000;stroke-width:0.8;"/>
      </defs>
      <g>
       <use style="stroke:#000000;stroke-width:0.8;" x="69.218182" xlink:href="#mcc66b15568" y="252"/>
      </g>
     </g>
     <g id="text_1">
      <!-- 0 -->
      <g transform="translate(66.036932 266.598437)scale(0.1 -0.1)">
       <defs>
        <path d="M 2034 4250 
Q 1547 4250 1301 3770 
Q 1056 3291 1056 2328 
Q 1056 1369 1301 889 
Q 1547 409 2034 409 
Q 2525 409 2770 889 
Q 3016 1369 3016 2328 
Q 3016 3291 2770 3770 
Q 2525 4250 2034 4250 
z
M 2034 4750 
Q 2819 4750 3233 4129 
Q 3647 3509 3647 2328 
Q 3647 1150 3233 529 
Q 2819 -91 2034 -91 
Q 1250 -91 836 529 
Q 422 1150 422 2328 
Q 422 3509 836 4129 
Q 1250 4750 2034 4750 
z
" id="DejaVuSans-30" transform="scale(0.015625)"/>
       </defs>
       <use xlink:href="#DejaVuSans-30"/>
      </g>
     </g>
    </g>
    <g id="xtick_2">
     <g id="line2d_2">
      <g>
       <use style="stroke:#000000;stroke-width:0.8;" x="130.705785" xlink:href="#mcc66b15568" y="252"/>
      </g>
     </g>
     <g id="text_2">
      <!-- 20 -->
      <g transform="translate(124.343285 266.598437)scale(0.1 -0.1)">
       <defs>
        <path d="M 1228 531 
L 3431 531 
L 3431 0 
L 469 0 
L 469 531 
Q 828 903 1448 1529 
Q 2069 2156 2228 2338 
Q 2531 2678 2651 2914 
Q 2772 3150 2772 3378 
Q 2772 3750 2511 3984 
Q 2250 4219 1831 4219 
Q 1534 4219 1204 4116 
Q 875 4013 500 3803 
L 500 4441 
Q 881 4594 1212 4672 
Q 1544 4750 1819 4750 
Q 2544 4750 2975 4387 
Q 3406 4025 3406 3419 
Q 3406 3131 3298 2873 
Q 3191 2616 2906 2266 
Q 2828 2175 2409 1742 
Q 1991 1309 1228 531 
z
" id="DejaVuSans-32" transform="scale(0.015625)"/>
       </defs>
       <use xlink:href="#DejaVuSans-32"/>
       <use x="63.623047" xlink:href="#DejaVuSans-30"/>
      </g>
     </g>
    </g>
    <g id="xtick_3">
     <g id="line2d_3">
      <g>
       <use style="stroke:#000000;stroke-width:0.8;" x="192.193388" xlink:href="#mcc66b15568" y="252"/>
      </g>
     </g>
     <g id="text_3">
      <!-- 40 -->
      <g transform="translate(185.830888 266.598437)scale(0.1 -0.1)">
       <defs>
        <path d="M 2419 4116 
L 825 1625 
L 2419 1625 
L 2419 4116 
z
M 2253 4666 
L 3047 4666 
L 3047 1625 
L 3713 1625 
L 3713 1100 
L 3047 1100 
L 3047 0 
L 2419 0 
L 2419 1100 
L 313 1100 
L 313 1709 
L 2253 4666 
z
" id="DejaVuSans-34" transform="scale(0.015625)"/>
       </defs>
       <use xlink:href="#DejaVuSans-34"/>
       <use x="63.623047" xlink:href="#DejaVuSans-30"/>
      </g>
     </g>
    </g>
    <g id="xtick_4">
     <g id="line2d_4">
      <g>
       <use style="stroke:#000000;stroke-width:0.8;" x="253.680992" xlink:href="#mcc66b15568" y="252"/>
      </g>
     </g>
     <g id="text_4">
      <!-- 60 -->
      <g transform="translate(247.318492 266.598437)scale(0.1 -0.1)">
       <defs>
        <path d="M 2113 2584 
Q 1688 2584 1439 2293 
Q 1191 2003 1191 1497 
Q 1191 994 1439 701 
Q 1688 409 2113 409 
Q 2538 409 2786 701 
Q 3034 994 3034 1497 
Q 3034 2003 2786 2293 
Q 2538 2584 2113 2584 
z
M 3366 4563 
L 3366 3988 
Q 3128 4100 2886 4159 
Q 2644 4219 2406 4219 
Q 1781 4219 1451 3797 
Q 1122 3375 1075 2522 
Q 1259 2794 1537 2939 
Q 1816 3084 2150 3084 
Q 2853 3084 3261 2657 
Q 3669 2231 3669 1497 
Q 3669 778 3244 343 
Q 2819 -91 2113 -91 
Q 1303 -91 875 529 
Q 447 1150 447 2328 
Q 447 3434 972 4092 
Q 1497 4750 2381 4750 
Q 2619 4750 2861 4703 
Q 3103 4656 3366 4563 
z
" id="DejaVuSans-36" transform="scale(0.015625)"/>
       </defs>
       <use xlink:href="#DejaVuSans-36"/>
       <use x="63.623047" xlink:href="#DejaVuSans-30"/>
      </g>
     </g>
    </g>
    <g id="xtick_5">
     <g id="line2d_5">
      <g>
       <use style="stroke:#000000;stroke-width:0.8;" x="315.168595" xlink:href="#mcc66b15568" y="252"/>
      </g>
     </g>
     <g id="text_5">
      <!-- 80 -->
      <g transform="translate(308.806095 266.598437)scale(0.1 -0.1)">
       <defs>
        <path d="M 2034 2216 
Q 1584 2216 1326 1975 
Q 1069 1734 1069 1313 
Q 1069 891 1326 650 
Q 1584 409 2034 409 
Q 2484 409 2743 651 
Q 3003 894 3003 1313 
Q 3003 1734 2745 1975 
Q 2488 2216 2034 2216 
z
M 1403 2484 
Q 997 2584 770 2862 
Q 544 3141 544 3541 
Q 544 4100 942 4425 
Q 1341 4750 2034 4750 
Q 2731 4750 3128 4425 
Q 3525 4100 3525 3541 
Q 3525 3141 3298 2862 
Q 3072 2584 2669 2484 
Q 3125 2378 3379 2068 
Q 3634 1759 3634 1313 
Q 3634 634 3220 271 
Q 2806 -91 2034 -91 
Q 1263 -91 848 271 
Q 434 634 434 1313 
Q 434 1759 690 2068 
Q 947 2378 1403 2484 
z
M 1172 3481 
Q 1172 3119 1398 2916 
Q 1625 2713 2034 2713 
Q 2441 2713 2670 2916 
Q 2900 3119 2900 3481 
Q 2900 3844 2670 4047 
Q 2441 4250 2034 4250 
Q 1625 4250 1398 4047 
Q 1172 3844 1172 3481 
z
" id="DejaVuSans-38" transform="scale(0.015625)"/>
       </defs>
       <use xlink:href="#DejaVuSans-38"/>
       <use x="63.623047" xlink:href="#DejaVuSans-30"/>
      </g>
     </g>
    </g>
    <g id="xtick_6">
     <g id="line2d_6">
      <g>
       <use style="stroke:#000000;stroke-width:0.8;" x="376.656198" xlink:href="#mcc66b15568" y="252"/>
      </g>
     </g>
     <g id="text_6">
      <!-- 100 -->
      <g transform="translate(367.112448 266.598437)scale(0.1 -0.1)">
       <defs>
        <path d="M 794 531 
L 1825 531 
L 1825 4091 
L 703 3866 
L 703 4441 
L 1819 4666 
L 2450 4666 
L 2450 531 
L 3481 531 
L 3481 0 
L 794 0 
L 794 531 
z
" id="DejaVuSans-31" transform="scale(0.015625)"/>
       </defs>
       <use xlink:href="#DejaVuSans-31"/>
       <use x="63.623047" xlink:href="#DejaVuSans-30"/>
       <use x="127.246094" xlink:href="#DejaVuSans-30"/>
      </g>
     </g>
    </g>
    <g id="text_7">
     <!-- Iter -->
     <g transform="translate(212.832813 280.276563)scale(0.1 -0.1)">
      <defs>
       <path d="M 628 4666 
L 1259 4666 
L 1259 0 
L 628 0 
L 628 4666 
z
" id="DejaVuSans-49" transform="scale(0.015625)"/>
       <path d="M 1172 4494 
L 1172 3500 
L 2356 3500 
L 2356 3053 
L 1172 3053 
L 1172 1153 
Q 1172 725 1289 603 
Q 1406 481 1766 481 
L 2356 481 
L 2356 0 
L 1766 0 
Q 1100 0 847 248 
Q 594 497 594 1153 
L 594 3053 
L 172 3053 
L 172 3500 
L 594 3500 
L 594 4494 
L 1172 4494 
z
" id="DejaVuSans-74" transform="scale(0.015625)"/>
       <path d="M 3597 1894 
L 3597 1613 
L 953 1613 
Q 991 1019 1311 708 
Q 1631 397 2203 397 
Q 2534 397 2845 478 
Q 3156 559 3463 722 
L 3463 178 
Q 3153 47 2828 -22 
Q 2503 -91 2169 -91 
Q 1331 -91 842 396 
Q 353 884 353 1716 
Q 353 2575 817 3079 
Q 1281 3584 2069 3584 
Q 2775 3584 3186 3129 
Q 3597 2675 3597 1894 
z
M 3022 2063 
Q 3016 2534 2758 2815 
Q 2500 3097 2075 3097 
Q 1594 3097 1305 2825 
Q 1016 2553 972 2059 
L 3022 2063 
z
" id="DejaVuSans-65" transform="scale(0.015625)"/>
       <path d="M 2631 2963 
Q 2534 3019 2420 3045 
Q 2306 3072 2169 3072 
Q 1681 3072 1420 2755 
Q 1159 2438 1159 1844 
L 1159 0 
L 581 0 
L 581 3500 
L 1159 3500 
L 1159 2956 
Q 1341 3275 1631 3429 
Q 1922 3584 2338 3584 
Q 2397 3584 2469 3576 
Q 2541 3569 2628 3553 
L 2631 2963 
z
" id="DejaVuSans-72" transform="scale(0.015625)"/>
      </defs>
      <use xlink:href="#DejaVuSans-49"/>
      <use x="29.492188" xlink:href="#DejaVuSans-74"/>
      <use x="68.701172" xlink:href="#DejaVuSans-65"/>
      <use x="130.224609" xlink:href="#DejaVuSans-72"/>
     </g>
    </g>
   </g>
   <g id="matplotlib.axis_2">
    <g id="ytick_1">
     <g id="line2d_7">
      <defs>
       <path d="M 0 0 
L -3.5 0 
" id="m79f4cfbce4" style="stroke:#000000;stroke-width:0.8;"/>
      </defs>
      <g>
       <use style="stroke:#000000;stroke-width:0.8;" x="54" xlink:href="#m79f4cfbce4" y="251.338202"/>
      </g>
     </g>
     <g id="text_8">
      <!-- −400000 -->
      <g transform="translate(0.445312 255.13742)scale(0.1 -0.1)">
       <defs>
        <path d="M 678 2272 
L 4684 2272 
L 4684 1741 
L 678 1741 
L 678 2272 
z
" id="DejaVuSans-2212" transform="scale(0.015625)"/>
       </defs>
       <use xlink:href="#DejaVuSans-2212"/>
       <use x="83.789062" xlink:href="#DejaVuSans-34"/>
       <use x="147.412109" xlink:href="#DejaVuSans-30"/>
       <use x="211.035156" xlink:href="#DejaVuSans-30"/>
       <use x="274.658203" xlink:href="#DejaVuSans-30"/>
       <use x="338.28125" xlink:href="#DejaVuSans-30"/>
       <use x="401.904297" xlink:href="#DejaVuSans-30"/>
      </g>
     </g>
    </g>
    <g id="ytick_2">
     <g id="line2d_8">
      <g>
       <use style="stroke:#000000;stroke-width:0.8;" x="54" xlink:href="#m79f4cfbce4" y="225.480466"/>
      </g>
     </g>
     <g id="text_9">
      <!-- −350000 -->
      <g transform="translate(0.445312 229.279685)scale(0.1 -0.1)">
       <defs>
        <path d="M 2597 2516 
Q 3050 2419 3304 2112 
Q 3559 1806 3559 1356 
Q 3559 666 3084 287 
Q 2609 -91 1734 -91 
Q 1441 -91 1130 -33 
Q 819 25 488 141 
L 488 750 
Q 750 597 1062 519 
Q 1375 441 1716 441 
Q 2309 441 2620 675 
Q 2931 909 2931 1356 
Q 2931 1769 2642 2001 
Q 2353 2234 1838 2234 
L 1294 2234 
L 1294 2753 
L 1863 2753 
Q 2328 2753 2575 2939 
Q 2822 3125 2822 3475 
Q 2822 3834 2567 4026 
Q 2313 4219 1838 4219 
Q 1578 4219 1281 4162 
Q 984 4106 628 3988 
L 628 4550 
Q 988 4650 1302 4700 
Q 1616 4750 1894 4750 
Q 2613 4750 3031 4423 
Q 3450 4097 3450 3541 
Q 3450 3153 3228 2886 
Q 3006 2619 2597 2516 
z
" id="DejaVuSans-33" transform="scale(0.015625)"/>
        <path d="M 691 4666 
L 3169 4666 
L 3169 4134 
L 1269 4134 
L 1269 2991 
Q 1406 3038 1543 3061 
Q 1681 3084 1819 3084 
Q 2600 3084 3056 2656 
Q 3513 2228 3513 1497 
Q 3513 744 3044 326 
Q 2575 -91 1722 -91 
Q 1428 -91 1123 -41 
Q 819 9 494 109 
L 494 744 
Q 775 591 1075 516 
Q 1375 441 1709 441 
Q 2250 441 2565 725 
Q 2881 1009 2881 1497 
Q 2881 1984 2565 2268 
Q 2250 2553 1709 2553 
Q 1456 2553 1204 2497 
Q 953 2441 691 2322 
L 691 4666 
z
" id="DejaVuSans-35" transform="scale(0.015625)"/>
       </defs>
       <use xlink:href="#DejaVuSans-2212"/>
       <use x="83.789062" xlink:href="#DejaVuSans-33"/>
       <use x="147.412109" xlink:href="#DejaVuSans-35"/>
       <use x="211.035156" xlink:href="#DejaVuSans-30"/>
       <use x="274.658203" xlink:href="#DejaVuSans-30"/>
       <use x="338.28125" xlink:href="#DejaVuSans-30"/>
       <use x="401.904297" xlink:href="#DejaVuSans-30"/>
      </g>
     </g>
    </g>
    <g id="ytick_3">
     <g id="line2d_9">
      <g>
       <use style="stroke:#000000;stroke-width:0.8;" x="54" xlink:href="#m79f4cfbce4" y="199.622731"/>
      </g>
     </g>
     <g id="text_10">
      <!-- −300000 -->
      <g transform="translate(0.445312 203.42195)scale(0.1 -0.1)">
       <use xlink:href="#DejaVuSans-2212"/>
       <use x="83.789062" xlink:href="#DejaVuSans-33"/>
       <use x="147.412109" xlink:href="#DejaVuSans-30"/>
       <use x="211.035156" xlink:href="#DejaVuSans-30"/>
       <use x="274.658203" xlink:href="#DejaVuSans-30"/>
       <use x="338.28125" xlink:href="#DejaVuSans-30"/>
       <use x="401.904297" xlink:href="#DejaVuSans-30"/>
      </g>
     </g>
    </g>
    <g id="ytick_4">
     <g id="line2d_10">
      <g>
       <use style="stroke:#000000;stroke-width:0.8;" x="54" xlink:href="#m79f4cfbce4" y="173.764996"/>
      </g>
     </g>
     <g id="text_11">
      <!-- −250000 -->
      <g transform="translate(0.445312 177.564215)scale(0.1 -0.1)">
       <use xlink:href="#DejaVuSans-2212"/>
       <use x="83.789062" xlink:href="#DejaVuSans-32"/>
       <use x="147.412109" xlink:href="#DejaVuSans-35"/>
       <use x="211.035156" xlink:href="#DejaVuSans-30"/>
       <use x="274.658203" xlink:href="#DejaVuSans-30"/>
       <use x="338.28125" xlink:href="#DejaVuSans-30"/>
       <use x="401.904297" xlink:href="#DejaVuSans-30"/>
      </g>
     </g>
    </g>
    <g id="ytick_5">
     <g id="line2d_11">
      <g>
       <use style="stroke:#000000;stroke-width:0.8;" x="54" xlink:href="#m79f4cfbce4" y="147.907261"/>
      </g>
     </g>
     <g id="text_12">
      <!-- −200000 -->
      <g transform="translate(0.445312 151.70648)scale(0.1 -0.1)">
       <use xlink:href="#DejaVuSans-2212"/>
       <use x="83.789062" xlink:href="#DejaVuSans-32"/>
       <use x="147.412109" xlink:href="#DejaVuSans-30"/>
       <use x="211.035156" xlink:href="#DejaVuSans-30"/>
       <use x="274.658203" xlink:href="#DejaVuSans-30"/>
       <use x="338.28125" xlink:href="#DejaVuSans-30"/>
       <use x="401.904297" xlink:href="#DejaVuSans-30"/>
      </g>
     </g>
    </g>
    <g id="ytick_6">
     <g id="line2d_12">
      <g>
       <use style="stroke:#000000;stroke-width:0.8;" x="54" xlink:href="#m79f4cfbce4" y="122.049526"/>
      </g>
     </g>
     <g id="text_13">
      <!-- −150000 -->
      <g transform="translate(0.445312 125.848744)scale(0.1 -0.1)">
       <use xlink:href="#DejaVuSans-2212"/>
       <use x="83.789062" xlink:href="#DejaVuSans-31"/>
       <use x="147.412109" xlink:href="#DejaVuSans-35"/>
       <use x="211.035156" xlink:href="#DejaVuSans-30"/>
       <use x="274.658203" xlink:href="#DejaVuSans-30"/>
       <use x="338.28125" xlink:href="#DejaVuSans-30"/>
       <use x="401.904297" xlink:href="#DejaVuSans-30"/>
      </g>
     </g>
    </g>
    <g id="ytick_7">
     <g id="line2d_13">
      <g>
       <use style="stroke:#000000;stroke-width:0.8;" x="54" xlink:href="#m79f4cfbce4" y="96.19179"/>
      </g>
     </g>
     <g id="text_14">
      <!-- −100000 -->
      <g transform="translate(0.445312 99.991009)scale(0.1 -0.1)">
       <use xlink:href="#DejaVuSans-2212"/>
       <use x="83.789062" xlink:href="#DejaVuSans-31"/>
       <use x="147.412109" xlink:href="#DejaVuSans-30"/>
       <use x="211.035156" xlink:href="#DejaVuSans-30"/>
       <use x="274.658203" xlink:href="#DejaVuSans-30"/>
       <use x="338.28125" xlink:href="#DejaVuSans-30"/>
       <use x="401.904297" xlink:href="#DejaVuSans-30"/>
      </g>
     </g>
    </g>
    <g id="ytick_8">
     <g id="line2d_14">
      <g>
       <use style="stroke:#000000;stroke-width:0.8;" x="54" xlink:href="#m79f4cfbce4" y="70.334055"/>
      </g>
     </g>
     <g id="text_15">
      <!-- −50000 -->
      <g transform="translate(6.807812 74.133274)scale(0.1 -0.1)">
       <use xlink:href="#DejaVuSans-2212"/>
       <use x="83.789062" xlink:href="#DejaVuSans-35"/>
       <use x="147.412109" xlink:href="#DejaVuSans-30"/>
       <use x="211.035156" xlink:href="#DejaVuSans-30"/>
       <use x="274.658203" xlink:href="#DejaVuSans-30"/>
       <use x="338.28125" xlink:href="#DejaVuSans-30"/>
      </g>
     </g>
    </g>
    <g id="ytick_9">
     <g id="line2d_15">
      <g>
       <use style="stroke:#000000;stroke-width:0.8;" x="54" xlink:href="#m79f4cfbce4" y="44.47632"/>
      </g>
     </g>
     <g id="text_16">
      <!-- 0 -->
      <g transform="translate(40.6375 48.275539)scale(0.1 -0.1)">
       <use xlink:href="#DejaVuSans-30"/>
      </g>
     </g>
    </g>
    <g id="text_17">
     <!-- loss -->
     <g transform="translate(-5.634375 152.937813)rotate(-90)scale(0.1 -0.1)">
      <defs>
       <path d="M 603 4863 
L 1178 4863 
L 1178 0 
L 603 0 
L 603 4863 
z
" id="DejaVuSans-6c" transform="scale(0.015625)"/>
       <path d="M 1959 3097 
Q 1497 3097 1228 2736 
Q 959 2375 959 1747 
Q 959 1119 1226 758 
Q 1494 397 1959 397 
Q 2419 397 2687 759 
Q 2956 1122 2956 1747 
Q 2956 2369 2687 2733 
Q 2419 3097 1959 3097 
z
M 1959 3584 
Q 2709 3584 3137 3096 
Q 3566 2609 3566 1747 
Q 3566 888 3137 398 
Q 2709 -91 1959 -91 
Q 1206 -91 779 398 
Q 353 888 353 1747 
Q 353 2609 779 3096 
Q 1206 3584 1959 3584 
z
" id="DejaVuSans-6f" transform="scale(0.015625)"/>
       <path d="M 2834 3397 
L 2834 2853 
Q 2591 2978 2328 3040 
Q 2066 3103 1784 3103 
Q 1356 3103 1142 2972 
Q 928 2841 928 2578 
Q 928 2378 1081 2264 
Q 1234 2150 1697 2047 
L 1894 2003 
Q 2506 1872 2764 1633 
Q 3022 1394 3022 966 
Q 3022 478 2636 193 
Q 2250 -91 1575 -91 
Q 1294 -91 989 -36 
Q 684 19 347 128 
L 347 722 
Q 666 556 975 473 
Q 1284 391 1588 391 
Q 1994 391 2212 530 
Q 2431 669 2431 922 
Q 2431 1156 2273 1281 
Q 2116 1406 1581 1522 
L 1381 1569 
Q 847 1681 609 1914 
Q 372 2147 372 2553 
Q 372 3047 722 3315 
Q 1072 3584 1716 3584 
Q 2034 3584 2315 3537 
Q 2597 3491 2834 3397 
z
" id="DejaVuSans-73" transform="scale(0.015625)"/>
      </defs>
      <use xlink:href="#DejaVuSans-6c"/>
      <use x="27.783203" xlink:href="#DejaVuSans-6f"/>
      <use x="88.964844" xlink:href="#DejaVuSans-73"/>
      <use x="141.064453" xlink:href="#DejaVuSans-73"/>
     </g>
    </g>
   </g>
   <g id="line2d_16">
    <path clip-path="url(#p293c916249)" d="M 69.218182 44.475098 
L 72.292562 44.610468 
L 75.366942 44.741125 
L 78.441322 44.87081 
L 81.515702 45.000822 
L 84.590083 45.131757 
L 87.664463 45.263938 
L 90.738843 45.39755 
L 93.813223 45.532711 
L 96.887603 45.669493 
L 99.961983 45.807942 
L 103.036364 45.948084 
L 106.110744 46.089935 
L 109.185124 46.233497 
L 112.259504 46.378768 
L 115.333884 46.525739 
L 118.408264 46.674397 
L 121.482645 46.824725 
L 124.557025 46.976703 
L 127.631405 47.130309 
L 130.705785 47.285518 
L 133.780165 47.442304 
L 136.854545 47.600638 
L 139.928926 47.760493 
L 143.003306 47.921839 
L 146.077686 48.084644 
L 149.152066 48.248878 
L 152.226446 48.41451 
L 155.300826 48.581507 
L 158.375207 48.749838 
L 161.449587 48.91947 
L 164.523967 49.090372 
L 167.598347 49.262512 
L 170.672727 49.435857 
L 173.747107 49.610377 
L 176.821488 49.786042 
L 179.895868 49.962819 
L 182.970248 50.140679 
L 186.044628 50.319592 
L 189.119008 50.49953 
L 192.193388 50.680464 
L 195.267769 50.862365 
L 198.342149 51.045205 
L 201.416529 51.228958 
L 204.490909 51.4136 
L 207.565289 51.599104 
L 210.639669 51.785443 
L 213.71405 51.972595 
L 216.78843 52.160538 
L 219.86281 52.349245 
L 222.93719 52.538697 
L 226.01157 52.728869 
L 229.08595 52.919745 
L 232.160331 53.111301 
L 235.234711 53.303518 
L 238.309091 53.496379 
L 241.383471 53.68986 
L 244.457851 53.883949 
L 247.532231 54.078626 
L 250.606612 54.273872 
L 253.680992 54.469675 
L 256.755372 54.666019 
L 259.829752 54.862883 
L 262.904132 55.060259 
L 265.978512 55.258129 
L 269.052893 55.456478 
L 272.127273 55.655298 
L 275.201653 55.854572 
L 278.276033 56.054288 
L 281.350413 56.254432 
L 284.424793 56.454998 
L 287.499174 56.655969 
L 290.573554 56.857336 
L 293.647934 57.05909 
L 296.722314 57.261221 
L 299.796694 57.463715 
L 302.871074 57.666565 
L 305.945455 57.869762 
L 309.019835 58.0733 
L 312.094215 58.277162 
L 315.168595 58.481347 
L 318.242975 58.685848 
L 321.317355 58.89065 
L 324.391736 59.095748 
L 327.466116 59.301138 
L 330.540496 59.50681 
L 333.614876 59.712757 
L 336.689256 59.918977 
L 339.763636 60.125457 
L 342.838017 60.332192 
L 345.912397 60.539177 
L 348.986777 60.746408 
L 352.061157 60.953877 
L 355.135537 61.161579 
L 358.209917 61.36951 
L 361.284298 61.577665 
L 364.358678 61.786031 
L 367.433058 61.994612 
L 370.507438 62.203401 
L 373.581818 62.412395 
" style="fill:none;stroke:#1f77b4;stroke-linecap:square;stroke-width:1.5;"/>
   </g>
   <g id="line2d_17">
    <path clip-path="url(#p293c916249)" d="M 69.218182 44.477643 
L 72.292562 44.631289 
L 75.366942 45.441871 
L 78.441322 46.328491 
L 81.515702 47.343743 
L 84.590083 48.409258 
L 87.664463 49.676458 
L 90.738843 51.021373 
L 93.813223 52.368303 
L 96.887603 53.799916 
L 99.961983 55.256342 
L 103.036364 56.701097 
L 106.110744 58.270428 
L 109.185124 59.856644 
L 112.259504 61.471987 
L 115.333884 63.229752 
L 118.408264 64.771755 
L 121.482645 66.472922 
L 124.557025 68.258497 
L 127.631405 69.963746 
L 130.705785 71.805673 
L 133.780165 73.726184 
L 136.854545 75.613714 
L 139.928926 77.576445 
L 143.003306 79.377742 
L 146.077686 81.23364 
L 149.152066 83.040409 
L 152.226446 84.760987 
L 155.300826 86.651708 
L 158.375207 88.500367 
L 161.449587 90.293209 
L 164.523967 92.20277 
L 167.598347 94.207537 
L 170.672727 96.072441 
L 173.747107 97.972019 
L 176.821488 99.659697 
L 179.895868 101.515025 
L 182.970248 103.274903 
L 186.044628 105.095215 
L 189.119008 107.183574 
L 192.193388 109.285776 
L 195.267769 111.531193 
L 198.342149 113.332471 
L 201.416529 115.130917 
L 204.490909 117.073455 
L 207.565289 119.389605 
L 210.639669 121.450685 
L 213.71405 123.657352 
L 216.78843 125.708524 
L 219.86281 127.931207 
L 222.93719 130.2633 
L 226.01157 132.465636 
L 229.08595 134.671486 
L 232.160331 136.921481 
L 235.234711 139.244063 
L 238.309091 142.006291 
L 241.383471 143.941153 
L 244.457851 146.165589 
L 247.532231 148.15817 
L 250.606612 150.55906 
L 253.680992 152.654329 
L 256.755372 154.944573 
L 259.829752 156.986752 
L 262.904132 159.01033 
L 265.978512 161.197175 
L 269.052893 163.569097 
L 272.127273 165.96901 
L 275.201653 168.129028 
L 278.276033 170.528496 
L 281.350413 173.265974 
L 284.424793 175.44427 
L 287.499174 177.902476 
L 290.573554 180.006068 
L 293.647934 182.193147 
L 296.722314 184.31096 
L 299.796694 186.749926 
L 302.871074 189.074004 
L 305.945455 191.447065 
L 309.019835 193.89054 
L 312.094215 195.61134 
L 315.168595 198.29888 
L 318.242975 200.896499 
L 321.317355 203.043758 
L 324.391736 205.129104 
L 327.466116 207.443015 
L 330.540496 209.685043 
L 333.614876 211.920008 
L 336.689256 214.132573 
L 339.763636 216.595862 
L 342.838017 219.167171 
L 345.912397 221.732065 
L 348.986777 224.045685 
L 352.061157 226.005896 
L 355.135537 228.138884 
L 358.209917 230.56699 
L 361.284298 232.523758 
L 364.358678 234.888674 
L 367.433058 237.444614 
L 370.507438 240.267681 
L 373.581818 242.116364 
" style="fill:none;stroke:#ff7f0e;stroke-linecap:square;stroke-width:1.5;"/>
   </g>
   <g id="line2d_18">
    <path clip-path="url(#p293c916249)" d="M 69.218182 44.474926 
L 72.292562 44.443636 
L 75.366942 44.4563 
L 78.441322 44.459176 
L 81.515702 44.463926 
L 84.590083 44.462088 
L 87.664463 44.466783 
L 90.738843 44.465067 
L 93.813223 44.465581 
L 96.887603 44.466329 
L 99.961983 44.465178 
L 103.036364 44.466384 
L 106.110744 44.467708 
L 109.185124 44.465612 
L 112.259504 44.467753 
L 115.333884 44.469596 
L 118.408264 44.471592 
L 121.482645 44.47078 
L 124.557025 44.470004 
L 127.631405 44.469552 
L 130.705785 44.471013 
L 133.780165 44.469901 
L 136.854545 44.47014 
L 139.928926 44.46966 
L 143.003306 44.470569 
L 146.077686 44.467778 
L 149.152066 44.466735 
L 152.226446 44.46933 
L 155.300826 44.470074 
L 158.375207 44.471308 
L 161.449587 44.47089 
L 164.523967 44.471787 
L 167.598347 44.473604 
L 170.672727 44.47283 
L 173.747107 44.473168 
L 176.821488 44.470413 
L 179.895868 44.470297 
L 182.970248 44.469552 
L 186.044628 44.470087 
L 189.119008 44.470951 
L 192.193388 44.471013 
L 195.267769 44.473137 
L 198.342149 44.472692 
L 201.416529 44.472846 
L 204.490909 44.473338 
L 207.565289 44.472203 
L 210.639669 44.471225 
L 213.71405 44.472178 
L 216.78843 44.472414 
L 219.86281 44.473645 
L 222.93719 44.473784 
L 226.01157 44.474053 
L 229.08595 44.472732 
L 232.160331 44.473623 
L 235.234711 44.474444 
L 238.309091 44.476517 
L 241.383471 44.474791 
L 244.457851 44.474938 
L 247.532231 44.474605 
L 250.606612 44.473979 
L 253.680992 44.474838 
L 256.755372 44.475564 
L 259.829752 44.47547 
L 262.904132 44.473813 
L 265.978512 44.474885 
L 269.052893 44.476029 
L 272.127273 44.475814 
L 275.201653 44.473969 
L 278.276033 44.474194 
L 281.350413 44.473573 
L 284.424793 44.473363 
L 287.499174 44.474025 
L 290.573554 44.474632 
L 293.647934 44.475464 
L 296.722314 44.474942 
L 299.796694 44.475518 
L 302.871074 44.475849 
L 305.945455 44.47514 
L 309.019835 44.475021 
L 312.094215 44.474364 
L 315.168595 44.473623 
L 318.242975 44.474397 
L 321.317355 44.472527 
L 324.391736 44.472757 
L 327.466116 44.472643 
L 330.540496 44.471325 
L 333.614876 44.472729 
L 336.689256 44.474474 
L 339.763636 44.474542 
L 342.838017 44.473933 
L 345.912397 44.473557 
L 348.986777 44.473475 
L 352.061157 44.473041 
L 355.135537 44.474607 
L 358.209917 44.473786 
L 361.284298 44.473753 
L 364.358678 44.474007 
L 367.433058 44.474335 
L 370.507438 44.474999 
L 373.581818 44.474006 
" style="fill:none;stroke:#2ca02c;stroke-linecap:square;stroke-width:1.5;"/>
   </g>
   <g id="line2d_19">
    <path clip-path="url(#p293c916249)" d="M 69.218182 44.477018 
L 72.292562 44.46567 
L 75.366942 44.470052 
L 78.441322 44.471357 
L 81.515702 44.472954 
L 84.590083 44.47521 
L 87.664463 44.476732 
L 90.738843 44.477082 
L 93.813223 44.477513 
L 96.887603 44.478603 
L 99.961983 44.477431 
L 103.036364 44.476439 
L 106.110744 44.477346 
L 109.185124 44.47887 
L 112.259504 44.479927 
L 115.333884 44.480491 
L 118.408264 44.47931 
L 121.482645 44.478629 
L 124.557025 44.478593 
L 127.631405 44.477929 
L 130.705785 44.477436 
L 133.780165 44.477928 
L 136.854545 44.478529 
L 139.928926 44.478196 
L 143.003306 44.47835 
L 146.077686 44.479365 
L 149.152066 44.479796 
L 152.226446 44.479819 
L 155.300826 44.480466 
L 158.375207 44.479784 
L 161.449587 44.480533 
L 164.523967 44.481326 
L 167.598347 44.480392 
L 170.672727 44.481155 
L 173.747107 44.481446 
L 176.821488 44.481581 
L 179.895868 44.481875 
L 182.970248 44.482316 
L 186.044628 44.481303 
L 189.119008 44.482479 
L 192.193388 44.482491 
L 195.267769 44.481962 
L 198.342149 44.482058 
L 201.416529 44.482223 
L 204.490909 44.481863 
L 207.565289 44.481882 
L 210.639669 44.482599 
L 213.71405 44.482043 
L 216.78843 44.482605 
L 219.86281 44.481594 
L 222.93719 44.480439 
L 226.01157 44.481338 
L 229.08595 44.4821 
L 232.160331 44.4815 
L 235.234711 44.481906 
L 238.309091 44.482532 
L 241.383471 44.481364 
L 244.457851 44.481712 
L 247.532231 44.480723 
L 250.606612 44.480207 
L 253.680992 44.479981 
L 256.755372 44.479316 
L 259.829752 44.479323 
L 262.904132 44.4799 
L 265.978512 44.480033 
L 269.052893 44.479922 
L 272.127273 44.479535 
L 275.201653 44.479985 
L 278.276033 44.482201 
L 281.350413 44.48158 
L 284.424793 44.481515 
L 287.499174 44.481649 
L 290.573554 44.481559 
L 293.647934 44.48164 
L 296.722314 44.480974 
L 299.796694 44.482066 
L 302.871074 44.481638 
L 305.945455 44.481952 
L 309.019835 44.483007 
L 312.094215 44.483112 
L 315.168595 44.482194 
L 318.242975 44.481486 
L 321.317355 44.481185 
L 324.391736 44.480845 
L 327.466116 44.480674 
L 330.540496 44.480381 
L 333.614876 44.480534 
L 336.689256 44.479564 
L 339.763636 44.479795 
L 342.838017 44.479187 
L 345.912397 44.479454 
L 348.986777 44.47933 
L 352.061157 44.479831 
L 355.135537 44.480335 
L 358.209917 44.480105 
L 361.284298 44.479852 
L 364.358678 44.47964 
L 367.433058 44.479688 
L 370.507438 44.479476 
L 373.581818 44.479898 
" style="fill:none;stroke:#d62728;stroke-linecap:square;stroke-width:1.5;"/>
   </g>
   <g id="line2d_20">
    <path clip-path="url(#p293c916249)" d="M 69.218182 44.473887 
L 72.292562 44.478564 
L 75.366942 44.481248 
L 78.441322 44.480087 
L 81.515702 44.483481 
L 84.590083 44.482696 
L 87.664463 44.485139 
L 90.738843 44.483977 
L 93.813223 44.483881 
L 96.887603 44.485702 
L 99.961983 44.486457 
L 103.036364 44.485562 
L 106.110744 44.483869 
L 109.185124 44.482769 
L 112.259504 44.482154 
L 115.333884 44.481989 
L 118.408264 44.48152 
L 121.482645 44.482066 
L 124.557025 44.482353 
L 127.631405 44.481817 
L 130.705785 44.48206 
L 133.780165 44.481695 
L 136.854545 44.482038 
L 139.928926 44.482204 
L 143.003306 44.481457 
L 146.077686 44.482113 
L 149.152066 44.483041 
L 152.226446 44.483555 
L 155.300826 44.483928 
L 158.375207 44.484373 
L 161.449587 44.484677 
L 164.523967 44.485385 
L 167.598347 44.485064 
L 170.672727 44.484507 
L 173.747107 44.484663 
L 176.821488 44.483734 
L 179.895868 44.484547 
L 182.970248 44.484876 
L 186.044628 44.484488 
L 189.119008 44.48406 
L 192.193388 44.483515 
L 195.267769 44.484245 
L 198.342149 44.482865 
L 201.416529 44.481609 
L 204.490909 44.483335 
L 207.565289 44.482688 
L 210.639669 44.482089 
L 213.71405 44.482454 
L 216.78843 44.48297 
L 219.86281 44.482254 
L 222.93719 44.482683 
L 226.01157 44.482792 
L 229.08595 44.484403 
L 232.160331 44.484269 
L 235.234711 44.484321 
L 238.309091 44.484072 
L 241.383471 44.484063 
L 244.457851 44.484122 
L 247.532231 44.483669 
L 250.606612 44.484293 
L 253.680992 44.482539 
L 256.755372 44.483564 
L 259.829752 44.482412 
L 262.904132 44.482172 
L 265.978512 44.482597 
L 269.052893 44.482972 
L 272.127273 44.482389 
L 275.201653 44.481461 
L 278.276033 44.4819 
L 281.350413 44.481044 
L 284.424793 44.482131 
L 287.499174 44.48126 
L 290.573554 44.481623 
L 293.647934 44.481586 
L 296.722314 44.481819 
L 299.796694 44.481612 
L 302.871074 44.481287 
L 305.945455 44.481034 
L 309.019835 44.481338 
L 312.094215 44.480713 
L 315.168595 44.480594 
L 318.242975 44.481578 
L 321.317355 44.482072 
L 324.391736 44.482255 
L 327.466116 44.481622 
L 330.540496 44.481467 
L 333.614876 44.481513 
L 336.689256 44.481807 
L 339.763636 44.482132 
L 342.838017 44.481325 
L 345.912397 44.481779 
L 348.986777 44.482396 
L 352.061157 44.481793 
L 355.135537 44.482282 
L 358.209917 44.482796 
L 361.284298 44.482307 
L 364.358678 44.482122 
L 367.433058 44.482176 
L 370.507438 44.480543 
L 373.581818 44.480807 
" style="fill:none;stroke:#9467bd;stroke-linecap:square;stroke-width:1.5;"/>
   </g>
   <g id="line2d_21">
    <path clip-path="url(#p293c916249)" d="M 69.218182 44.476885 
L 72.292562 44.486714 
L 75.366942 44.490404 
L 78.441322 44.493809 
L 81.515702 44.495446 
L 84.590083 44.495236 
L 87.664463 44.495977 
L 90.738843 44.496961 
L 93.813223 44.496789 
L 96.887603 44.496115 
L 99.961983 44.496473 
L 103.036364 44.496733 
L 106.110744 44.498171 
L 109.185124 44.49651 
L 112.259504 44.49569 
L 115.333884 44.497142 
L 118.408264 44.494876 
L 121.482645 44.496763 
L 124.557025 44.495122 
L 127.631405 44.494055 
L 130.705785 44.494251 
L 133.780165 44.493304 
L 136.854545 44.49435 
L 139.928926 44.494678 
L 143.003306 44.495835 
L 146.077686 44.495871 
L 149.152066 44.494921 
L 152.226446 44.494132 
L 155.300826 44.495151 
L 158.375207 44.495021 
L 161.449587 44.495051 
L 164.523967 44.495255 
L 167.598347 44.49376 
L 170.672727 44.494794 
L 173.747107 44.49495 
L 176.821488 44.494435 
L 179.895868 44.496059 
L 182.970248 44.495788 
L 186.044628 44.497304 
L 189.119008 44.49744 
L 192.193388 44.497113 
L 195.267769 44.497105 
L 198.342149 44.496621 
L 201.416529 44.495978 
L 204.490909 44.496519 
L 207.565289 44.495006 
L 210.639669 44.495862 
L 213.71405 44.495119 
L 216.78843 44.495677 
L 219.86281 44.49423 
L 222.93719 44.494358 
L 226.01157 44.495328 
L 229.08595 44.494529 
L 232.160331 44.494273 
L 235.234711 44.494331 
L 238.309091 44.495441 
L 241.383471 44.494783 
L 244.457851 44.494908 
L 247.532231 44.49517 
L 250.606612 44.495072 
L 253.680992 44.495187 
L 256.755372 44.495454 
L 259.829752 44.494336 
L 262.904132 44.494963 
L 265.978512 44.49595 
L 269.052893 44.49509 
L 272.127273 44.495755 
L 275.201653 44.496427 
L 278.276033 44.494495 
L 281.350413 44.493641 
L 284.424793 44.494646 
L 287.499174 44.494513 
L 290.573554 44.494162 
L 293.647934 44.493948 
L 296.722314 44.494191 
L 299.796694 44.495056 
L 302.871074 44.49415 
L 305.945455 44.495356 
L 309.019835 44.496824 
L 312.094215 44.497212 
L 315.168595 44.497211 
L 318.242975 44.49552 
L 321.317355 44.495925 
L 324.391736 44.495366 
L 327.466116 44.494582 
L 330.540496 44.494736 
L 333.614876 44.495019 
L 336.689256 44.493823 
L 339.763636 44.493414 
L 342.838017 44.493823 
L 345.912397 44.494581 
L 348.986777 44.494054 
L 352.061157 44.492748 
L 355.135537 44.492602 
L 358.209917 44.493827 
L 361.284298 44.495299 
L 364.358678 44.494532 
L 367.433058 44.494924 
L 370.507438 44.495995 
L 373.581818 44.495825 
" style="fill:none;stroke:#8c564b;stroke-linecap:square;stroke-width:1.5;"/>
   </g>
   <g id="line2d_22">
    <path clip-path="url(#p293c916249)" d="M 69.218182 44.476632 
L 72.292562 44.494927 
L 75.366942 44.504471 
L 78.441322 44.513832 
L 81.515702 44.51185 
L 84.590083 44.514815 
L 87.664463 44.51617 
L 90.738843 44.514975 
L 93.813223 44.515355 
L 96.887603 44.511972 
L 99.961983 44.510067 
L 103.036364 44.509548 
L 106.110744 44.508996 
L 109.185124 44.50884 
L 112.259504 44.509994 
L 115.333884 44.506601 
L 118.408264 44.50796 
L 121.482645 44.504439 
L 124.557025 44.504535 
L 127.631405 44.504282 
L 130.705785 44.502997 
L 133.780165 44.501348 
L 136.854545 44.501418 
L 139.928926 44.50178 
L 143.003306 44.502112 
L 146.077686 44.501973 
L 149.152066 44.504113 
L 152.226446 44.504955 
L 155.300826 44.504436 
L 158.375207 44.504477 
L 161.449587 44.505424 
L 164.523967 44.504686 
L 167.598347 44.504788 
L 170.672727 44.505706 
L 173.747107 44.504226 
L 176.821488 44.505367 
L 179.895868 44.502169 
L 182.970248 44.503819 
L 186.044628 44.505353 
L 189.119008 44.505275 
L 192.193388 44.504387 
L 195.267769 44.506903 
L 198.342149 44.503484 
L 201.416529 44.50412 
L 204.490909 44.502205 
L 207.565289 44.503672 
L 210.639669 44.505525 
L 213.71405 44.504685 
L 216.78843 44.503756 
L 219.86281 44.505928 
L 222.93719 44.506152 
L 226.01157 44.50688 
L 229.08595 44.50493 
L 232.160331 44.504111 
L 235.234711 44.505252 
L 238.309091 44.505356 
L 241.383471 44.505208 
L 244.457851 44.507123 
L 247.532231 44.50557 
L 250.606612 44.508904 
L 253.680992 44.511796 
L 256.755372 44.511658 
L 259.829752 44.511892 
L 262.904132 44.508662 
L 265.978512 44.510779 
L 269.052893 44.509847 
L 272.127273 44.508685 
L 275.201653 44.507335 
L 278.276033 44.507 
L 281.350413 44.505807 
L 284.424793 44.504645 
L 287.499174 44.50685 
L 290.573554 44.507106 
L 293.647934 44.507804 
L 296.722314 44.509646 
L 299.796694 44.507105 
L 302.871074 44.506504 
L 305.945455 44.505648 
L 309.019835 44.506703 
L 312.094215 44.507467 
L 315.168595 44.507646 
L 318.242975 44.505397 
L 321.317355 44.50574 
L 324.391736 44.50471 
L 327.466116 44.504817 
L 330.540496 44.507659 
L 333.614876 44.505149 
L 336.689256 44.505559 
L 339.763636 44.508171 
L 342.838017 44.506554 
L 345.912397 44.508664 
L 348.986777 44.509138 
L 352.061157 44.508542 
L 355.135537 44.508775 
L 358.209917 44.50921 
L 361.284298 44.509115 
L 364.358678 44.510183 
L 367.433058 44.511183 
L 370.507438 44.511451 
L 373.581818 44.512613 
" style="fill:none;stroke:#e377c2;stroke-linecap:square;stroke-width:1.5;"/>
   </g>
   <g id="line2d_23">
    <path clip-path="url(#p293c916249)" d="M 69.218182 44.474662 
L 72.292562 44.490646 
L 75.366942 44.499897 
L 78.441322 44.498675 
L 81.515702 44.497027 
L 84.590083 44.497784 
L 87.664463 44.497108 
L 90.738843 44.491266 
L 93.813223 44.496934 
L 96.887603 44.498676 
L 99.961983 44.501494 
L 103.036364 44.500457 
L 106.110744 44.495384 
L 109.185124 44.492285 
L 112.259504 44.495803 
L 115.333884 44.49494 
L 118.408264 44.493758 
L 121.482645 44.499079 
L 124.557025 44.50132 
L 127.631405 44.499598 
L 130.705785 44.497704 
L 133.780165 44.49912 
L 136.854545 44.498473 
L 139.928926 44.500039 
L 143.003306 44.498309 
L 146.077686 44.498465 
L 149.152066 44.499976 
L 152.226446 44.499145 
L 155.300826 44.501356 
L 158.375207 44.500485 
L 161.449587 44.502569 
L 164.523967 44.501888 
L 167.598347 44.50409 
L 170.672727 44.505745 
L 173.747107 44.507003 
L 176.821488 44.507643 
L 179.895868 44.508603 
L 182.970248 44.509728 
L 186.044628 44.508167 
L 189.119008 44.509004 
L 192.193388 44.509756 
L 195.267769 44.511464 
L 198.342149 44.509288 
L 201.416529 44.508254 
L 204.490909 44.508599 
L 207.565289 44.510715 
L 210.639669 44.511846 
L 213.71405 44.51196 
L 216.78843 44.512158 
L 219.86281 44.510916 
L 222.93719 44.510225 
L 226.01157 44.511654 
L 229.08595 44.511871 
L 232.160331 44.513669 
L 235.234711 44.513279 
L 238.309091 44.51537 
L 241.383471 44.515858 
L 244.457851 44.516701 
L 247.532231 44.51816 
L 250.606612 44.519486 
L 253.680992 44.517694 
L 256.755372 44.517299 
L 259.829752 44.51678 
L 262.904132 44.516753 
L 265.978512 44.51753 
L 269.052893 44.519179 
L 272.127273 44.518884 
L 275.201653 44.519026 
L 278.276033 44.518117 
L 281.350413 44.517218 
L 284.424793 44.51703 
L 287.499174 44.518128 
L 290.573554 44.517041 
L 293.647934 44.51691 
L 296.722314 44.51646 
L 299.796694 44.516585 
L 302.871074 44.515368 
L 305.945455 44.513672 
L 309.019835 44.515615 
L 312.094215 44.514948 
L 315.168595 44.516808 
L 318.242975 44.515029 
L 321.317355 44.515197 
L 324.391736 44.514701 
L 327.466116 44.512859 
L 330.540496 44.51505 
L 333.614876 44.514563 
L 336.689256 44.516043 
L 339.763636 44.516311 
L 342.838017 44.516415 
L 345.912397 44.515899 
L 348.986777 44.516724 
L 352.061157 44.515405 
L 355.135537 44.514542 
L 358.209917 44.514746 
L 361.284298 44.516101 
L 364.358678 44.515124 
L 367.433058 44.515658 
L 370.507438 44.516928 
L 373.581818 44.517806 
" style="fill:none;stroke:#7f7f7f;stroke-linecap:square;stroke-width:1.5;"/>
   </g>
   <g id="line2d_24">
    <path clip-path="url(#p293c916249)" d="M 69.218182 44.477254 
L 72.292562 44.4864 
L 75.366942 44.508015 
L 78.441322 44.517183 
L 81.515702 44.519593 
L 84.590083 44.512668 
L 87.664463 44.518303 
L 90.738843 44.522007 
L 93.813223 44.519878 
L 96.887603 44.524832 
L 99.961983 44.522563 
L 103.036364 44.52249 
L 106.110744 44.523213 
L 109.185124 44.518826 
L 112.259504 44.519998 
L 115.333884 44.521629 
L 118.408264 44.512505 
L 121.482645 44.516934 
L 124.557025 44.515855 
L 127.631405 44.517183 
L 130.705785 44.520627 
L 133.780165 44.518316 
L 136.854545 44.519913 
L 139.928926 44.51231 
L 143.003306 44.516992 
L 146.077686 44.519449 
L 149.152066 44.521842 
L 152.226446 44.521131 
L 155.300826 44.523635 
L 158.375207 44.527612 
L 161.449587 44.52402 
L 164.523967 44.522295 
L 167.598347 44.516259 
L 170.672727 44.515119 
L 173.747107 44.513031 
L 176.821488 44.511635 
L 179.895868 44.510912 
L 182.970248 44.515327 
L 186.044628 44.51654 
L 189.119008 44.51245 
L 192.193388 44.513766 
L 195.267769 44.512693 
L 198.342149 44.51545 
L 201.416529 44.517198 
L 204.490909 44.518532 
L 207.565289 44.518598 
L 210.639669 44.515206 
L 213.71405 44.516843 
L 216.78843 44.517606 
L 219.86281 44.517216 
L 222.93719 44.515233 
L 226.01157 44.51377 
L 229.08595 44.510957 
L 232.160331 44.512268 
L 235.234711 44.511898 
L 238.309091 44.509633 
L 241.383471 44.510773 
L 244.457851 44.510141 
L 247.532231 44.511876 
L 250.606612 44.511715 
L 253.680992 44.510505 
L 256.755372 44.510316 
L 259.829752 44.508547 
L 262.904132 44.508811 
L 265.978512 44.507968 
L 269.052893 44.507893 
L 272.127273 44.510605 
L 275.201653 44.510163 
L 278.276033 44.510345 
L 281.350413 44.510282 
L 284.424793 44.512232 
L 287.499174 44.512949 
L 290.573554 44.512466 
L 293.647934 44.513447 
L 296.722314 44.513881 
L 299.796694 44.513975 
L 302.871074 44.514169 
L 305.945455 44.513396 
L 309.019835 44.513405 
L 312.094215 44.514709 
L 315.168595 44.51739 
L 318.242975 44.517787 
L 321.317355 44.517493 
L 324.391736 44.518873 
L 327.466116 44.518139 
L 330.540496 44.517491 
L 333.614876 44.517585 
L 336.689256 44.518325 
L 339.763636 44.517224 
L 342.838017 44.518704 
L 345.912397 44.515818 
L 348.986777 44.514963 
L 352.061157 44.515078 
L 355.135537 44.515427 
L 358.209917 44.513621 
L 361.284298 44.517281 
L 364.358678 44.516763 
L 367.433058 44.513436 
L 370.507438 44.516119 
L 373.581818 44.515412 
" style="fill:none;stroke:#bcbd22;stroke-linecap:square;stroke-width:1.5;"/>
   </g>
   <g id="line2d_25">
    <path clip-path="url(#p293c916249)" d="M 69.218182 44.475366 
L 72.292562 44.50722 
L 75.366942 44.533567 
L 78.441322 44.54778 
L 81.515702 44.55643 
L 84.590083 44.560151 
L 87.664463 44.559604 
L 90.738843 44.557013 
L 93.813223 44.552119 
L 96.887603 44.547523 
L 99.961983 44.546965 
L 103.036364 44.544526 
L 106.110744 44.549004 
L 109.185124 44.552434 
L 112.259504 44.550237 
L 115.333884 44.553526 
L 118.408264 44.554421 
L 121.482645 44.554239 
L 124.557025 44.5555 
L 127.631405 44.554168 
L 130.705785 44.551993 
L 133.780165 44.55195 
L 136.854545 44.553936 
L 139.928926 44.554989 
L 143.003306 44.554618 
L 146.077686 44.552635 
L 149.152066 44.548568 
L 152.226446 44.543117 
L 155.300826 44.542988 
L 158.375207 44.540509 
L 161.449587 44.546491 
L 164.523967 44.550559 
L 167.598347 44.549842 
L 170.672727 44.550119 
L 173.747107 44.550802 
L 176.821488 44.550638 
L 179.895868 44.548024 
L 182.970248 44.54612 
L 186.044628 44.543641 
L 189.119008 44.542621 
L 192.193388 44.541352 
L 195.267769 44.544791 
L 198.342149 44.543996 
L 201.416529 44.541005 
L 204.490909 44.543271 
L 207.565289 44.542318 
L 210.639669 44.542562 
L 213.71405 44.543854 
L 216.78843 44.54414 
L 219.86281 44.542103 
L 222.93719 44.541039 
L 226.01157 44.546741 
L 229.08595 44.546507 
L 232.160331 44.543952 
L 235.234711 44.545114 
L 238.309091 44.545046 
L 241.383471 44.544743 
L 244.457851 44.545973 
L 247.532231 44.547257 
L 250.606612 44.548592 
L 253.680992 44.546449 
L 256.755372 44.54265 
L 259.829752 44.545451 
L 262.904132 44.546986 
L 265.978512 44.549334 
L 269.052893 44.547255 
L 272.127273 44.547641 
L 275.201653 44.548342 
L 278.276033 44.546569 
L 281.350413 44.545918 
L 284.424793 44.543676 
L 287.499174 44.544376 
L 290.573554 44.543975 
L 293.647934 44.544716 
L 296.722314 44.545508 
L 299.796694 44.541677 
L 302.871074 44.544697 
L 305.945455 44.544217 
L 309.019835 44.54136 
L 312.094215 44.539582 
L 315.168595 44.539505 
L 318.242975 44.542132 
L 321.317355 44.541272 
L 324.391736 44.540632 
L 327.466116 44.542319 
L 330.540496 44.54622 
L 333.614876 44.546192 
L 336.689256 44.546218 
L 339.763636 44.54558 
L 342.838017 44.545714 
L 345.912397 44.546779 
L 348.986777 44.544995 
L 352.061157 44.542603 
L 355.135537 44.544419 
L 358.209917 44.543758 
L 361.284298 44.542286 
L 364.358678 44.542551 
L 367.433058 44.544098 
L 370.507438 44.543885 
L 373.581818 44.543307 
" style="fill:none;stroke:#17becf;stroke-linecap:square;stroke-width:1.5;"/>
   </g>
   <g id="line2d_26">
    <path clip-path="url(#p293c916249)" d="M 69.218182 44.471119 
L 72.292562 44.498784 
L 75.366942 44.520642 
L 78.441322 44.526405 
L 81.515702 44.517785 
L 84.590083 44.523212 
L 87.664463 44.516001 
L 90.738843 44.516414 
L 93.813223 44.515149 
L 96.887603 44.522496 
L 99.961983 44.529432 
L 103.036364 44.529885 
L 106.110744 44.530217 
L 109.185124 44.538328 
L 112.259504 44.534375 
L 115.333884 44.534624 
L 118.408264 44.532219 
L 121.482645 44.531789 
L 124.557025 44.536528 
L 127.631405 44.541158 
L 130.705785 44.534752 
L 133.780165 44.537384 
L 136.854545 44.533079 
L 139.928926 44.539359 
L 143.003306 44.53032 
L 146.077686 44.529249 
L 149.152066 44.539556 
L 152.226446 44.541209 
L 155.300826 44.537792 
L 158.375207 44.536551 
L 161.449587 44.534128 
L 164.523967 44.530457 
L 167.598347 44.531046 
L 170.672727 44.526795 
L 173.747107 44.527731 
L 176.821488 44.53468 
L 179.895868 44.528962 
L 182.970248 44.528331 
L 186.044628 44.53413 
L 189.119008 44.53178 
L 192.193388 44.534326 
L 195.267769 44.536736 
L 198.342149 44.539679 
L 201.416529 44.535659 
L 204.490909 44.534915 
L 207.565289 44.534179 
L 210.639669 44.529786 
L 213.71405 44.533396 
L 216.78843 44.531795 
L 219.86281 44.53263 
L 222.93719 44.537046 
L 226.01157 44.533012 
L 229.08595 44.53639 
L 232.160331 44.535894 
L 235.234711 44.53651 
L 238.309091 44.534397 
L 241.383471 44.533247 
L 244.457851 44.535694 
L 247.532231 44.536808 
L 250.606612 44.537341 
L 253.680992 44.539135 
L 256.755372 44.538982 
L 259.829752 44.534637 
L 262.904132 44.533243 
L 265.978512 44.535359 
L 269.052893 44.529141 
L 272.127273 44.52956 
L 275.201653 44.529736 
L 278.276033 44.53148 
L 281.350413 44.53695 
L 284.424793 44.535641 
L 287.499174 44.532373 
L 290.573554 44.533413 
L 293.647934 44.535014 
L 296.722314 44.536945 
L 299.796694 44.535639 
L 302.871074 44.538094 
L 305.945455 44.538851 
L 309.019835 44.535519 
L 312.094215 44.532637 
L 315.168595 44.531552 
L 318.242975 44.536566 
L 321.317355 44.534678 
L 324.391736 44.531482 
L 327.466116 44.532526 
L 330.540496 44.532159 
L 333.614876 44.533385 
L 336.689256 44.528557 
L 339.763636 44.528083 
L 342.838017 44.53109 
L 345.912397 44.527752 
L 348.986777 44.532593 
L 352.061157 44.526758 
L 355.135537 44.527016 
L 358.209917 44.529292 
L 361.284298 44.531436 
L 364.358678 44.533814 
L 367.433058 44.533971 
L 370.507438 44.530997 
L 373.581818 44.531364 
" style="fill:none;stroke:#1f77b4;stroke-linecap:square;stroke-width:1.5;"/>
   </g>
   <g id="line2d_27">
    <path clip-path="url(#p293c916249)" d="M 69.218182 44.481925 
L 72.292562 44.502595 
L 75.366942 44.557352 
L 78.441322 44.575153 
L 81.515702 44.593282 
L 84.590083 44.587574 
L 87.664463 44.591763 
L 90.738843 44.586233 
L 93.813223 44.583986 
L 96.887603 44.584855 
L 99.961983 44.581005 
L 103.036364 44.58754 
L 106.110744 44.586671 
L 109.185124 44.591141 
L 112.259504 44.582784 
L 115.333884 44.580098 
L 118.408264 44.579409 
L 121.482645 44.578197 
L 124.557025 44.573212 
L 127.631405 44.573651 
L 130.705785 44.578689 
L 133.780165 44.570173 
L 136.854545 44.578516 
L 139.928926 44.577455 
L 143.003306 44.576423 
L 146.077686 44.575937 
L 149.152066 44.570875 
L 152.226446 44.574205 
L 155.300826 44.575942 
L 158.375207 44.580276 
L 161.449587 44.575441 
L 164.523967 44.576976 
L 167.598347 44.588037 
L 170.672727 44.580419 
L 173.747107 44.584598 
L 176.821488 44.588955 
L 179.895868 44.59383 
L 182.970248 44.597237 
L 186.044628 44.596633 
L 189.119008 44.589522 
L 192.193388 44.578772 
L 195.267769 44.576046 
L 198.342149 44.568469 
L 201.416529 44.57687 
L 204.490909 44.572935 
L 207.565289 44.57206 
L 210.639669 44.574247 
L 213.71405 44.568915 
L 216.78843 44.561289 
L 219.86281 44.568744 
L 222.93719 44.567659 
L 226.01157 44.561323 
L 229.08595 44.565795 
L 232.160331 44.57679 
L 235.234711 44.577897 
L 238.309091 44.583919 
L 241.383471 44.577045 
L 244.457851 44.570956 
L 247.532231 44.573642 
L 250.606612 44.579299 
L 253.680992 44.582681 
L 256.755372 44.582901 
L 259.829752 44.586147 
L 262.904132 44.580719 
L 265.978512 44.582959 
L 269.052893 44.581248 
L 272.127273 44.59289 
L 275.201653 44.588583 
L 278.276033 44.591068 
L 281.350413 44.589794 
L 284.424793 44.594237 
L 287.499174 44.598174 
L 290.573554 44.594558 
L 293.647934 44.592639 
L 296.722314 44.592103 
L 299.796694 44.595872 
L 302.871074 44.592341 
L 305.945455 44.583525 
L 309.019835 44.585728 
L 312.094215 44.576145 
L 315.168595 44.58265 
L 318.242975 44.578833 
L 321.317355 44.577982 
L 324.391736 44.580723 
L 327.466116 44.584556 
L 330.540496 44.586479 
L 333.614876 44.583327 
L 336.689256 44.579829 
L 339.763636 44.582064 
L 342.838017 44.578784 
L 345.912397 44.577688 
L 348.986777 44.579874 
L 352.061157 44.580868 
L 355.135537 44.581084 
L 358.209917 44.584069 
L 361.284298 44.585875 
L 364.358678 44.588144 
L 367.433058 44.591315 
L 370.507438 44.589878 
L 373.581818 44.588113 
" style="fill:none;stroke:#ff7f0e;stroke-linecap:square;stroke-width:1.5;"/>
   </g>
   <g id="patch_3">
    <path d="M 54 252 
L 54 34.56 
" style="fill:none;stroke:#000000;stroke-linecap:square;stroke-linejoin:miter;stroke-width:0.8;"/>
   </g>
   <g id="patch_4">
    <path d="M 388.8 252 
L 388.8 34.56 
" style="fill:none;stroke:#000000;stroke-linecap:square;stroke-linejoin:miter;stroke-width:0.8;"/>
   </g>
   <g id="patch_5">
    <path d="M 54 252 
L 388.8 252 
" style="fill:none;stroke:#000000;stroke-linecap:square;stroke-linejoin:miter;stroke-width:0.8;"/>
   </g>
   <g id="patch_6">
    <path d="M 54 34.56 
L 388.8 34.56 
" style="fill:none;stroke:#000000;stroke-linecap:square;stroke-linejoin:miter;stroke-width:0.8;"/>
   </g>
   <g id="text_18">
    <!-- Loss across layers -->
    <g transform="translate(167.016563 28.56)scale(0.12 -0.12)">
     <defs>
      <path d="M 628 4666 
L 1259 4666 
L 1259 531 
L 3531 531 
L 3531 0 
L 628 0 
L 628 4666 
z
" id="DejaVuSans-4c" transform="scale(0.015625)"/>
      <path id="DejaVuSans-20" transform="scale(0.015625)"/>
      <path d="M 2194 1759 
Q 1497 1759 1228 1600 
Q 959 1441 959 1056 
Q 959 750 1161 570 
Q 1363 391 1709 391 
Q 2188 391 2477 730 
Q 2766 1069 2766 1631 
L 2766 1759 
L 2194 1759 
z
M 3341 1997 
L 3341 0 
L 2766 0 
L 2766 531 
Q 2569 213 2275 61 
Q 1981 -91 1556 -91 
Q 1019 -91 701 211 
Q 384 513 384 1019 
Q 384 1609 779 1909 
Q 1175 2209 1959 2209 
L 2766 2209 
L 2766 2266 
Q 2766 2663 2505 2880 
Q 2244 3097 1772 3097 
Q 1472 3097 1187 3025 
Q 903 2953 641 2809 
L 641 3341 
Q 956 3463 1253 3523 
Q 1550 3584 1831 3584 
Q 2591 3584 2966 3190 
Q 3341 2797 3341 1997 
z
" id="DejaVuSans-61" transform="scale(0.015625)"/>
      <path d="M 3122 3366 
L 3122 2828 
Q 2878 2963 2633 3030 
Q 2388 3097 2138 3097 
Q 1578 3097 1268 2742 
Q 959 2388 959 1747 
Q 959 1106 1268 751 
Q 1578 397 2138 397 
Q 2388 397 2633 464 
Q 2878 531 3122 666 
L 3122 134 
Q 2881 22 2623 -34 
Q 2366 -91 2075 -91 
Q 1284 -91 818 406 
Q 353 903 353 1747 
Q 353 2603 823 3093 
Q 1294 3584 2113 3584 
Q 2378 3584 2631 3529 
Q 2884 3475 3122 3366 
z
" id="DejaVuSans-63" transform="scale(0.015625)"/>
      <path d="M 2059 -325 
Q 1816 -950 1584 -1140 
Q 1353 -1331 966 -1331 
L 506 -1331 
L 506 -850 
L 844 -850 
Q 1081 -850 1212 -737 
Q 1344 -625 1503 -206 
L 1606 56 
L 191 3500 
L 800 3500 
L 1894 763 
L 2988 3500 
L 3597 3500 
L 2059 -325 
z
" id="DejaVuSans-79" transform="scale(0.015625)"/>
     </defs>
     <use xlink:href="#DejaVuSans-4c"/>
     <use x="53.962891" xlink:href="#DejaVuSans-6f"/>
     <use x="115.144531" xlink:href="#DejaVuSans-73"/>
     <use x="167.244141" xlink:href="#DejaVuSans-73"/>
     <use x="219.34375" xlink:href="#DejaVuSans-20"/>
     <use x="251.130859" xlink:href="#DejaVuSans-61"/>
     <use x="312.410156" xlink:href="#DejaVuSans-63"/>
     <use x="367.390625" xlink:href="#DejaVuSans-72"/>
     <use x="406.253906" xlink:href="#DejaVuSans-6f"/>
     <use x="467.435547" xlink:href="#DejaVuSans-73"/>
     <use x="519.535156" xlink:href="#DejaVuSans-73"/>
     <use x="571.634766" xlink:href="#DejaVuSans-20"/>
     <use x="603.421875" xlink:href="#DejaVuSans-6c"/>
     <use x="631.205078" xlink:href="#DejaVuSans-61"/>
     <use x="692.484375" xlink:href="#DejaVuSans-79"/>
     <use x="751.664062" xlink:href="#DejaVuSans-65"/>
     <use x="813.1875" xlink:href="#DejaVuSans-72"/>
     <use x="854.300781" xlink:href="#DejaVuSans-73"/>
    </g>
   </g>
   <g id="legend_1">
    <g id="patch_7">
     <path d="M 61 247 
L 105.725 247 
Q 107.725 247 107.725 245 
L 107.725 69.8625 
Q 107.725 67.8625 105.725 67.8625 
L 61 67.8625 
Q 59 67.8625 59 69.8625 
L 59 245 
Q 59 247 61 247 
z
" style="fill:#ffffff;opacity:0.8;stroke:#cccccc;stroke-linejoin:miter;"/>
    </g>
    <g id="line2d_28">
     <path d="M 63 75.960938 
L 83 75.960938 
" style="fill:none;stroke:#1f77b4;stroke-linecap:square;stroke-width:1.5;"/>
    </g>
    <g id="line2d_29"/>
    <g id="text_19">
     <!-- 0 -->
     <g transform="translate(91 79.460938)scale(0.1 -0.1)">
      <use xlink:href="#DejaVuSans-30"/>
     </g>
    </g>
    <g id="line2d_30">
     <path d="M 63 90.639063 
L 83 90.639063 
" style="fill:none;stroke:#ff7f0e;stroke-linecap:square;stroke-width:1.5;"/>
    </g>
    <g id="line2d_31"/>
    <g id="text_20">
     <!-- 1 -->
     <g transform="translate(91 94.139063)scale(0.1 -0.1)">
      <use xlink:href="#DejaVuSans-31"/>
     </g>
    </g>
    <g id="line2d_32">
     <path d="M 63 105.317188 
L 83 105.317188 
" style="fill:none;stroke:#2ca02c;stroke-linecap:square;stroke-width:1.5;"/>
    </g>
    <g id="line2d_33"/>
    <g id="text_21">
     <!-- 2 -->
     <g transform="translate(91 108.817188)scale(0.1 -0.1)">
      <use xlink:href="#DejaVuSans-32"/>
     </g>
    </g>
    <g id="line2d_34">
     <path d="M 63 119.995313 
L 83 119.995313 
" style="fill:none;stroke:#d62728;stroke-linecap:square;stroke-width:1.5;"/>
    </g>
    <g id="line2d_35"/>
    <g id="text_22">
     <!-- 3 -->
     <g transform="translate(91 123.495313)scale(0.1 -0.1)">
      <use xlink:href="#DejaVuSans-33"/>
     </g>
    </g>
    <g id="line2d_36">
     <path d="M 63 134.673438 
L 83 134.673438 
" style="fill:none;stroke:#9467bd;stroke-linecap:square;stroke-width:1.5;"/>
    </g>
    <g id="line2d_37"/>
    <g id="text_23">
     <!-- 4 -->
     <g transform="translate(91 138.173438)scale(0.1 -0.1)">
      <use xlink:href="#DejaVuSans-34"/>
     </g>
    </g>
    <g id="line2d_38">
     <path d="M 63 149.351563 
L 83 149.351563 
" style="fill:none;stroke:#8c564b;stroke-linecap:square;stroke-width:1.5;"/>
    </g>
    <g id="line2d_39"/>
    <g id="text_24">
     <!-- 5 -->
     <g transform="translate(91 152.851563)scale(0.1 -0.1)">
      <use xlink:href="#DejaVuSans-35"/>
     </g>
    </g>
    <g id="line2d_40">
     <path d="M 63 164.029688 
L 83 164.029688 
" style="fill:none;stroke:#e377c2;stroke-linecap:square;stroke-width:1.5;"/>
    </g>
    <g id="line2d_41"/>
    <g id="text_25">
     <!-- 6 -->
     <g transform="translate(91 167.529688)scale(0.1 -0.1)">
      <use xlink:href="#DejaVuSans-36"/>
     </g>
    </g>
    <g id="line2d_42">
     <path d="M 63 178.707813 
L 83 178.707813 
" style="fill:none;stroke:#7f7f7f;stroke-linecap:square;stroke-width:1.5;"/>
    </g>
    <g id="line2d_43"/>
    <g id="text_26">
     <!-- 7 -->
     <g transform="translate(91 182.207813)scale(0.1 -0.1)">
      <defs>
       <path d="M 525 4666 
L 3525 4666 
L 3525 4397 
L 1831 0 
L 1172 0 
L 2766 4134 
L 525 4134 
L 525 4666 
z
" id="DejaVuSans-37" transform="scale(0.015625)"/>
      </defs>
      <use xlink:href="#DejaVuSans-37"/>
     </g>
    </g>
    <g id="line2d_44">
     <path d="M 63 193.385938 
L 83 193.385938 
" style="fill:none;stroke:#bcbd22;stroke-linecap:square;stroke-width:1.5;"/>
    </g>
    <g id="line2d_45"/>
    <g id="text_27">
     <!-- 8 -->
     <g transform="translate(91 196.885938)scale(0.1 -0.1)">
      <use xlink:href="#DejaVuSans-38"/>
     </g>
    </g>
    <g id="line2d_46">
     <path d="M 63 208.064063 
L 83 208.064063 
" style="fill:none;stroke:#17becf;stroke-linecap:square;stroke-width:1.5;"/>
    </g>
    <g id="line2d_47"/>
    <g id="text_28">
     <!-- 9 -->
     <g transform="translate(91 211.564063)scale(0.1 -0.1)">
      <defs>
       <path d="M 703 97 
L 703 672 
Q 941 559 1184 500 
Q 1428 441 1663 441 
Q 2288 441 2617 861 
Q 2947 1281 2994 2138 
Q 2813 1869 2534 1725 
Q 2256 1581 1919 1581 
Q 1219 1581 811 2004 
Q 403 2428 403 3163 
Q 403 3881 828 4315 
Q 1253 4750 1959 4750 
Q 2769 4750 3195 4129 
Q 3622 3509 3622 2328 
Q 3622 1225 3098 567 
Q 2575 -91 1691 -91 
Q 1453 -91 1209 -44 
Q 966 3 703 97 
z
M 1959 2075 
Q 2384 2075 2632 2365 
Q 2881 2656 2881 3163 
Q 2881 3666 2632 3958 
Q 2384 4250 1959 4250 
Q 1534 4250 1286 3958 
Q 1038 3666 1038 3163 
Q 1038 2656 1286 2365 
Q 1534 2075 1959 2075 
z
" id="DejaVuSans-39" transform="scale(0.015625)"/>
      </defs>
      <use xlink:href="#DejaVuSans-39"/>
     </g>
    </g>
    <g id="line2d_48">
     <path d="M 63 222.742188 
L 83 222.742188 
" style="fill:none;stroke:#1f77b4;stroke-linecap:square;stroke-width:1.5;"/>
    </g>
    <g id="line2d_49"/>
    <g id="text_29">
     <!-- 10 -->
     <g transform="translate(91 226.242188)scale(0.1 -0.1)">
      <use xlink:href="#DejaVuSans-31"/>
      <use x="63.623047" xlink:href="#DejaVuSans-30"/>
     </g>
    </g>
    <g id="line2d_50">
     <path d="M 63 237.420312 
L 83 237.420312 
" style="fill:none;stroke:#ff7f0e;stroke-linecap:square;stroke-width:1.5;"/>
    </g>
    <g id="line2d_51"/>
    <g id="text_30">
     <!-- 11 -->
     <g transform="translate(91 240.920312)scale(0.1 -0.1)">
      <use xlink:href="#DejaVuSans-31"/>
      <use x="63.623047" xlink:href="#DejaVuSans-31"/>
     </g>
    </g>
   </g>
  </g>
 </g>
 <defs>
  <clipPath id="p293c916249">
   <rect height="217.44" width="334.8" x="54" y="34.56"/>
  </clipPath>
 </defs>
</svg>
