<?xml version="1.0" encoding="utf-8" standalone="no"?>
<!DOCTYPE svg PUBLIC "-//W3C//DTD SVG 1.1//EN"
  "http://www.w3.org/Graphics/SVG/1.1/DTD/svg11.dtd">
<svg height="288pt" version="1.1" viewBox="0 0 432 288" width="432pt" xmlns="http://www.w3.org/2000/svg" xmlns:xlink="http://www.w3.org/1999/xlink">
 <metadata>
  <rdf:RDF xmlns:cc="http://creativecommons.org/ns#" xmlns:dc="http://purl.org/dc/elements/1.1/" xmlns:rdf="http://www.w3.org/1999/02/22-rdf-syntax-ns#">
   <cc:Work>
    <dc:type rdf:resource="http://purl.org/dc/dcmitype/StillImage"/>
    <dc:date>2022-05-19T12:20:50.890729</dc:date>
    <dc:format>image/svg+xml</dc:format>
    <dc:creator>
     <cc:Agent>
      <dc:title>Matplotlib v3.4.3, https://matplotlib.org/</dc:title>
     </cc:Agent>
    </dc:creator>
   </cc:Work>
  </rdf:RDF>
 </metadata>
 <defs>
  <style type="text/css">*{stroke-linecap:butt;stroke-linejoin:round;}</style>
 </defs>
 <g id="figure_1">
  <g id="patch_1">
   <path d="M 0 288 
L 432 288 
L 432 0 
L 0 0 
z
" style="fill:none;"/>
  </g>
  <g id="axes_1">
   <g id="patch_2">
    <path d="M 54 252 
L 388.8 252 
L 388.8 34.56 
L 54 34.56 
z
" style="fill:#ffffff;"/>
   </g>
   <g id="matplotlib.axis_1">
    <g id="xtick_1">
     <g id="line2d_1">
      <defs>
       <path d="M 0 0 
L 0 3.5 
" id="m3bea0b5151" style="stroke:#000000;stroke-width:0.8;"/>
      </defs>
      <g>
       <use style="stroke:#000000;stroke-width:0.8;" x="69.218182" xlink:href="#m3bea0b5151" y="252"/>
      </g>
     </g>
     <g id="text_1">
      <!-- 0 -->
      <g transform="translate(66.036932 266.598437)scale(0.1 -0.1)">
       <defs>
        <path d="M 2034 4250 
Q 1547 4250 1301 3770 
Q 1056 3291 1056 2328 
Q 1056 1369 1301 889 
Q 1547 409 2034 409 
Q 2525 409 2770 889 
Q 3016 1369 3016 2328 
Q 3016 3291 2770 3770 
Q 2525 4250 2034 4250 
z
M 2034 4750 
Q 2819 4750 3233 4129 
Q 3647 3509 3647 2328 
Q 3647 1150 3233 529 
Q 2819 -91 2034 -91 
Q 1250 -91 836 529 
Q 422 1150 422 2328 
Q 422 3509 836 4129 
Q 1250 4750 2034 4750 
z
" id="DejaVuSans-30" transform="scale(0.015625)"/>
       </defs>
       <use xlink:href="#DejaVuSans-30"/>
      </g>
     </g>
    </g>
    <g id="xtick_2">
     <g id="line2d_2">
      <g>
       <use style="stroke:#000000;stroke-width:0.8;" x="130.705785" xlink:href="#m3bea0b5151" y="252"/>
      </g>
     </g>
     <g id="text_2">
      <!-- 20 -->
      <g transform="translate(124.343285 266.598437)scale(0.1 -0.1)">
       <defs>
        <path d="M 1228 531 
L 3431 531 
L 3431 0 
L 469 0 
L 469 531 
Q 828 903 1448 1529 
Q 2069 2156 2228 2338 
Q 2531 2678 2651 2914 
Q 2772 3150 2772 3378 
Q 2772 3750 2511 3984 
Q 2250 4219 1831 4219 
Q 1534 4219 1204 4116 
Q 875 4013 500 3803 
L 500 4441 
Q 881 4594 1212 4672 
Q 1544 4750 1819 4750 
Q 2544 4750 2975 4387 
Q 3406 4025 3406 3419 
Q 3406 3131 3298 2873 
Q 3191 2616 2906 2266 
Q 2828 2175 2409 1742 
Q 1991 1309 1228 531 
z
" id="DejaVuSans-32" transform="scale(0.015625)"/>
       </defs>
       <use xlink:href="#DejaVuSans-32"/>
       <use x="63.623047" xlink:href="#DejaVuSans-30"/>
      </g>
     </g>
    </g>
    <g id="xtick_3">
     <g id="line2d_3">
      <g>
       <use style="stroke:#000000;stroke-width:0.8;" x="192.193388" xlink:href="#m3bea0b5151" y="252"/>
      </g>
     </g>
     <g id="text_3">
      <!-- 40 -->
      <g transform="translate(185.830888 266.598437)scale(0.1 -0.1)">
       <defs>
        <path d="M 2419 4116 
L 825 1625 
L 2419 1625 
L 2419 4116 
z
M 2253 4666 
L 3047 4666 
L 3047 1625 
L 3713 1625 
L 3713 1100 
L 3047 1100 
L 3047 0 
L 2419 0 
L 2419 1100 
L 313 1100 
L 313 1709 
L 2253 4666 
z
" id="DejaVuSans-34" transform="scale(0.015625)"/>
       </defs>
       <use xlink:href="#DejaVuSans-34"/>
       <use x="63.623047" xlink:href="#DejaVuSans-30"/>
      </g>
     </g>
    </g>
    <g id="xtick_4">
     <g id="line2d_4">
      <g>
       <use style="stroke:#000000;stroke-width:0.8;" x="253.680992" xlink:href="#m3bea0b5151" y="252"/>
      </g>
     </g>
     <g id="text_4">
      <!-- 60 -->
      <g transform="translate(247.318492 266.598437)scale(0.1 -0.1)">
       <defs>
        <path d="M 2113 2584 
Q 1688 2584 1439 2293 
Q 1191 2003 1191 1497 
Q 1191 994 1439 701 
Q 1688 409 2113 409 
Q 2538 409 2786 701 
Q 3034 994 3034 1497 
Q 3034 2003 2786 2293 
Q 2538 2584 2113 2584 
z
M 3366 4563 
L 3366 3988 
Q 3128 4100 2886 4159 
Q 2644 4219 2406 4219 
Q 1781 4219 1451 3797 
Q 1122 3375 1075 2522 
Q 1259 2794 1537 2939 
Q 1816 3084 2150 3084 
Q 2853 3084 3261 2657 
Q 3669 2231 3669 1497 
Q 3669 778 3244 343 
Q 2819 -91 2113 -91 
Q 1303 -91 875 529 
Q 447 1150 447 2328 
Q 447 3434 972 4092 
Q 1497 4750 2381 4750 
Q 2619 4750 2861 4703 
Q 3103 4656 3366 4563 
z
" id="DejaVuSans-36" transform="scale(0.015625)"/>
       </defs>
       <use xlink:href="#DejaVuSans-36"/>
       <use x="63.623047" xlink:href="#DejaVuSans-30"/>
      </g>
     </g>
    </g>
    <g id="xtick_5">
     <g id="line2d_5">
      <g>
       <use style="stroke:#000000;stroke-width:0.8;" x="315.168595" xlink:href="#m3bea0b5151" y="252"/>
      </g>
     </g>
     <g id="text_5">
      <!-- 80 -->
      <g transform="translate(308.806095 266.598437)scale(0.1 -0.1)">
       <defs>
        <path d="M 2034 2216 
Q 1584 2216 1326 1975 
Q 1069 1734 1069 1313 
Q 1069 891 1326 650 
Q 1584 409 2034 409 
Q 2484 409 2743 651 
Q 3003 894 3003 1313 
Q 3003 1734 2745 1975 
Q 2488 2216 2034 2216 
z
M 1403 2484 
Q 997 2584 770 2862 
Q 544 3141 544 3541 
Q 544 4100 942 4425 
Q 1341 4750 2034 4750 
Q 2731 4750 3128 4425 
Q 3525 4100 3525 3541 
Q 3525 3141 3298 2862 
Q 3072 2584 2669 2484 
Q 3125 2378 3379 2068 
Q 3634 1759 3634 1313 
Q 3634 634 3220 271 
Q 2806 -91 2034 -91 
Q 1263 -91 848 271 
Q 434 634 434 1313 
Q 434 1759 690 2068 
Q 947 2378 1403 2484 
z
M 1172 3481 
Q 1172 3119 1398 2916 
Q 1625 2713 2034 2713 
Q 2441 2713 2670 2916 
Q 2900 3119 2900 3481 
Q 2900 3844 2670 4047 
Q 2441 4250 2034 4250 
Q 1625 4250 1398 4047 
Q 1172 3844 1172 3481 
z
" id="DejaVuSans-38" transform="scale(0.015625)"/>
       </defs>
       <use xlink:href="#DejaVuSans-38"/>
       <use x="63.623047" xlink:href="#DejaVuSans-30"/>
      </g>
     </g>
    </g>
    <g id="xtick_6">
     <g id="line2d_6">
      <g>
       <use style="stroke:#000000;stroke-width:0.8;" x="376.656198" xlink:href="#m3bea0b5151" y="252"/>
      </g>
     </g>
     <g id="text_6">
      <!-- 100 -->
      <g transform="translate(367.112448 266.598437)scale(0.1 -0.1)">
       <defs>
        <path d="M 794 531 
L 1825 531 
L 1825 4091 
L 703 3866 
L 703 4441 
L 1819 4666 
L 2450 4666 
L 2450 531 
L 3481 531 
L 3481 0 
L 794 0 
L 794 531 
z
" id="DejaVuSans-31" transform="scale(0.015625)"/>
       </defs>
       <use xlink:href="#DejaVuSans-31"/>
       <use x="63.623047" xlink:href="#DejaVuSans-30"/>
       <use x="127.246094" xlink:href="#DejaVuSans-30"/>
      </g>
     </g>
    </g>
    <g id="text_7">
     <!-- Iter -->
     <g transform="translate(212.832813 280.276563)scale(0.1 -0.1)">
      <defs>
       <path d="M 628 4666 
L 1259 4666 
L 1259 0 
L 628 0 
L 628 4666 
z
" id="DejaVuSans-49" transform="scale(0.015625)"/>
       <path d="M 1172 4494 
L 1172 3500 
L 2356 3500 
L 2356 3053 
L 1172 3053 
L 1172 1153 
Q 1172 725 1289 603 
Q 1406 481 1766 481 
L 2356 481 
L 2356 0 
L 1766 0 
Q 1100 0 847 248 
Q 594 497 594 1153 
L 594 3053 
L 172 3053 
L 172 3500 
L 594 3500 
L 594 4494 
L 1172 4494 
z
" id="DejaVuSans-74" transform="scale(0.015625)"/>
       <path d="M 3597 1894 
L 3597 1613 
L 953 1613 
Q 991 1019 1311 708 
Q 1631 397 2203 397 
Q 2534 397 2845 478 
Q 3156 559 3463 722 
L 3463 178 
Q 3153 47 2828 -22 
Q 2503 -91 2169 -91 
Q 1331 -91 842 396 
Q 353 884 353 1716 
Q 353 2575 817 3079 
Q 1281 3584 2069 3584 
Q 2775 3584 3186 3129 
Q 3597 2675 3597 1894 
z
M 3022 2063 
Q 3016 2534 2758 2815 
Q 2500 3097 2075 3097 
Q 1594 3097 1305 2825 
Q 1016 2553 972 2059 
L 3022 2063 
z
" id="DejaVuSans-65" transform="scale(0.015625)"/>
       <path d="M 2631 2963 
Q 2534 3019 2420 3045 
Q 2306 3072 2169 3072 
Q 1681 3072 1420 2755 
Q 1159 2438 1159 1844 
L 1159 0 
L 581 0 
L 581 3500 
L 1159 3500 
L 1159 2956 
Q 1341 3275 1631 3429 
Q 1922 3584 2338 3584 
Q 2397 3584 2469 3576 
Q 2541 3569 2628 3553 
L 2631 2963 
z
" id="DejaVuSans-72" transform="scale(0.015625)"/>
      </defs>
      <use xlink:href="#DejaVuSans-49"/>
      <use x="29.492188" xlink:href="#DejaVuSans-74"/>
      <use x="68.701172" xlink:href="#DejaVuSans-65"/>
      <use x="130.224609" xlink:href="#DejaVuSans-72"/>
     </g>
    </g>
   </g>
   <g id="matplotlib.axis_2">
    <g id="ytick_1">
     <g id="line2d_7">
      <defs>
       <path d="M 0 0 
L -3.5 0 
" id="m37a2ee9e8b" style="stroke:#000000;stroke-width:0.8;"/>
      </defs>
      <g>
       <use style="stroke:#000000;stroke-width:0.8;" x="54" xlink:href="#m37a2ee9e8b" y="228.223285"/>
      </g>
     </g>
     <g id="text_8">
      <!-- −17500 -->
      <g transform="translate(6.807812 232.022504)scale(0.1 -0.1)">
       <defs>
        <path d="M 678 2272 
L 4684 2272 
L 4684 1741 
L 678 1741 
L 678 2272 
z
" id="DejaVuSans-2212" transform="scale(0.015625)"/>
        <path d="M 525 4666 
L 3525 4666 
L 3525 4397 
L 1831 0 
L 1172 0 
L 2766 4134 
L 525 4134 
L 525 4666 
z
" id="DejaVuSans-37" transform="scale(0.015625)"/>
        <path d="M 691 4666 
L 3169 4666 
L 3169 4134 
L 1269 4134 
L 1269 2991 
Q 1406 3038 1543 3061 
Q 1681 3084 1819 3084 
Q 2600 3084 3056 2656 
Q 3513 2228 3513 1497 
Q 3513 744 3044 326 
Q 2575 -91 1722 -91 
Q 1428 -91 1123 -41 
Q 819 9 494 109 
L 494 744 
Q 775 591 1075 516 
Q 1375 441 1709 441 
Q 2250 441 2565 725 
Q 2881 1009 2881 1497 
Q 2881 1984 2565 2268 
Q 2250 2553 1709 2553 
Q 1456 2553 1204 2497 
Q 953 2441 691 2322 
L 691 4666 
z
" id="DejaVuSans-35" transform="scale(0.015625)"/>
       </defs>
       <use xlink:href="#DejaVuSans-2212"/>
       <use x="83.789062" xlink:href="#DejaVuSans-31"/>
       <use x="147.412109" xlink:href="#DejaVuSans-37"/>
       <use x="211.035156" xlink:href="#DejaVuSans-35"/>
       <use x="274.658203" xlink:href="#DejaVuSans-30"/>
       <use x="338.28125" xlink:href="#DejaVuSans-30"/>
      </g>
     </g>
    </g>
    <g id="ytick_2">
     <g id="line2d_8">
      <g>
       <use style="stroke:#000000;stroke-width:0.8;" x="54" xlink:href="#m37a2ee9e8b" y="201.993148"/>
      </g>
     </g>
     <g id="text_9">
      <!-- −15000 -->
      <g transform="translate(6.807812 205.792367)scale(0.1 -0.1)">
       <use xlink:href="#DejaVuSans-2212"/>
       <use x="83.789062" xlink:href="#DejaVuSans-31"/>
       <use x="147.412109" xlink:href="#DejaVuSans-35"/>
       <use x="211.035156" xlink:href="#DejaVuSans-30"/>
       <use x="274.658203" xlink:href="#DejaVuSans-30"/>
       <use x="338.28125" xlink:href="#DejaVuSans-30"/>
      </g>
     </g>
    </g>
    <g id="ytick_3">
     <g id="line2d_9">
      <g>
       <use style="stroke:#000000;stroke-width:0.8;" x="54" xlink:href="#m37a2ee9e8b" y="175.763012"/>
      </g>
     </g>
     <g id="text_10">
      <!-- −12500 -->
      <g transform="translate(6.807812 179.56223)scale(0.1 -0.1)">
       <use xlink:href="#DejaVuSans-2212"/>
       <use x="83.789062" xlink:href="#DejaVuSans-31"/>
       <use x="147.412109" xlink:href="#DejaVuSans-32"/>
       <use x="211.035156" xlink:href="#DejaVuSans-35"/>
       <use x="274.658203" xlink:href="#DejaVuSans-30"/>
       <use x="338.28125" xlink:href="#DejaVuSans-30"/>
      </g>
     </g>
    </g>
    <g id="ytick_4">
     <g id="line2d_10">
      <g>
       <use style="stroke:#000000;stroke-width:0.8;" x="54" xlink:href="#m37a2ee9e8b" y="149.532875"/>
      </g>
     </g>
     <g id="text_11">
      <!-- −10000 -->
      <g transform="translate(6.807812 153.332094)scale(0.1 -0.1)">
       <use xlink:href="#DejaVuSans-2212"/>
       <use x="83.789062" xlink:href="#DejaVuSans-31"/>
       <use x="147.412109" xlink:href="#DejaVuSans-30"/>
       <use x="211.035156" xlink:href="#DejaVuSans-30"/>
       <use x="274.658203" xlink:href="#DejaVuSans-30"/>
       <use x="338.28125" xlink:href="#DejaVuSans-30"/>
      </g>
     </g>
    </g>
    <g id="ytick_5">
     <g id="line2d_11">
      <g>
       <use style="stroke:#000000;stroke-width:0.8;" x="54" xlink:href="#m37a2ee9e8b" y="123.302738"/>
      </g>
     </g>
     <g id="text_12">
      <!-- −7500 -->
      <g transform="translate(13.170313 127.101957)scale(0.1 -0.1)">
       <use xlink:href="#DejaVuSans-2212"/>
       <use x="83.789062" xlink:href="#DejaVuSans-37"/>
       <use x="147.412109" xlink:href="#DejaVuSans-35"/>
       <use x="211.035156" xlink:href="#DejaVuSans-30"/>
       <use x="274.658203" xlink:href="#DejaVuSans-30"/>
      </g>
     </g>
    </g>
    <g id="ytick_6">
     <g id="line2d_12">
      <g>
       <use style="stroke:#000000;stroke-width:0.8;" x="54" xlink:href="#m37a2ee9e8b" y="97.072602"/>
      </g>
     </g>
     <g id="text_13">
      <!-- −5000 -->
      <g transform="translate(13.170313 100.871821)scale(0.1 -0.1)">
       <use xlink:href="#DejaVuSans-2212"/>
       <use x="83.789062" xlink:href="#DejaVuSans-35"/>
       <use x="147.412109" xlink:href="#DejaVuSans-30"/>
       <use x="211.035156" xlink:href="#DejaVuSans-30"/>
       <use x="274.658203" xlink:href="#DejaVuSans-30"/>
      </g>
     </g>
    </g>
    <g id="ytick_7">
     <g id="line2d_13">
      <g>
       <use style="stroke:#000000;stroke-width:0.8;" x="54" xlink:href="#m37a2ee9e8b" y="70.842465"/>
      </g>
     </g>
     <g id="text_14">
      <!-- −2500 -->
      <g transform="translate(13.170313 74.641684)scale(0.1 -0.1)">
       <use xlink:href="#DejaVuSans-2212"/>
       <use x="83.789062" xlink:href="#DejaVuSans-32"/>
       <use x="147.412109" xlink:href="#DejaVuSans-35"/>
       <use x="211.035156" xlink:href="#DejaVuSans-30"/>
       <use x="274.658203" xlink:href="#DejaVuSans-30"/>
      </g>
     </g>
    </g>
    <g id="ytick_8">
     <g id="line2d_14">
      <g>
       <use style="stroke:#000000;stroke-width:0.8;" x="54" xlink:href="#m37a2ee9e8b" y="44.612329"/>
      </g>
     </g>
     <g id="text_15">
      <!-- 0 -->
      <g transform="translate(40.6375 48.411547)scale(0.1 -0.1)">
       <use xlink:href="#DejaVuSans-30"/>
      </g>
     </g>
    </g>
    <g id="text_16">
     <!-- loss -->
     <g transform="translate(0.728125 152.937813)rotate(-90)scale(0.1 -0.1)">
      <defs>
       <path d="M 603 4863 
L 1178 4863 
L 1178 0 
L 603 0 
L 603 4863 
z
" id="DejaVuSans-6c" transform="scale(0.015625)"/>
       <path d="M 1959 3097 
Q 1497 3097 1228 2736 
Q 959 2375 959 1747 
Q 959 1119 1226 758 
Q 1494 397 1959 397 
Q 2419 397 2687 759 
Q 2956 1122 2956 1747 
Q 2956 2369 2687 2733 
Q 2419 3097 1959 3097 
z
M 1959 3584 
Q 2709 3584 3137 3096 
Q 3566 2609 3566 1747 
Q 3566 888 3137 398 
Q 2709 -91 1959 -91 
Q 1206 -91 779 398 
Q 353 888 353 1747 
Q 353 2609 779 3096 
Q 1206 3584 1959 3584 
z
" id="DejaVuSans-6f" transform="scale(0.015625)"/>
       <path d="M 2834 3397 
L 2834 2853 
Q 2591 2978 2328 3040 
Q 2066 3103 1784 3103 
Q 1356 3103 1142 2972 
Q 928 2841 928 2578 
Q 928 2378 1081 2264 
Q 1234 2150 1697 2047 
L 1894 2003 
Q 2506 1872 2764 1633 
Q 3022 1394 3022 966 
Q 3022 478 2636 193 
Q 2250 -91 1575 -91 
Q 1294 -91 989 -36 
Q 684 19 347 128 
L 347 722 
Q 666 556 975 473 
Q 1284 391 1588 391 
Q 1994 391 2212 530 
Q 2431 669 2431 922 
Q 2431 1156 2273 1281 
Q 2116 1406 1581 1522 
L 1381 1569 
Q 847 1681 609 1914 
Q 372 2147 372 2553 
Q 372 3047 722 3315 
Q 1072 3584 1716 3584 
Q 2034 3584 2315 3537 
Q 2597 3491 2834 3397 
z
" id="DejaVuSans-73" transform="scale(0.015625)"/>
      </defs>
      <use xlink:href="#DejaVuSans-6c"/>
      <use x="27.783203" xlink:href="#DejaVuSans-6f"/>
      <use x="88.964844" xlink:href="#DejaVuSans-73"/>
      <use x="141.064453" xlink:href="#DejaVuSans-73"/>
     </g>
    </g>
   </g>
   <g id="line2d_15">
    <path clip-path="url(#p5a18821ff2)" d="M 69.218182 44.600684 
L 72.292562 44.751462 
L 75.366942 44.89699 
L 78.441322 45.041436 
L 81.515702 45.186245 
L 84.590083 45.332084 
L 87.664463 45.479308 
L 90.738843 45.628129 
L 93.813223 45.778674 
L 96.887603 45.931024 
L 99.961983 46.085231 
L 103.036364 46.241324 
L 106.110744 46.399319 
L 109.185124 46.559221 
L 112.259504 46.721026 
L 115.333884 46.884725 
L 118.408264 47.050304 
L 121.482645 47.217742 
L 124.557025 47.387018 
L 127.631405 47.558107 
L 130.705785 47.730982 
L 133.780165 47.905612 
L 136.854545 48.081968 
L 139.928926 48.260018 
L 143.003306 48.439727 
L 146.077686 48.621063 
L 149.152066 48.80399 
L 152.226446 48.988473 
L 155.300826 49.174478 
L 158.375207 49.361967 
L 161.449587 49.550908 
L 164.523967 49.74126 
L 167.598347 49.932993 
L 170.672727 50.126069 
L 173.747107 50.320452 
L 176.821488 50.51611 
L 179.895868 50.713007 
L 182.970248 50.911112 
L 186.044628 51.110389 
L 189.119008 51.310806 
L 192.193388 51.512333 
L 195.267769 51.714937 
L 198.342149 51.918587 
L 201.416529 52.123257 
L 204.490909 52.328913 
L 207.565289 52.535529 
L 210.639669 52.743078 
L 213.71405 52.951533 
L 216.78843 53.160866 
L 219.86281 53.371052 
L 222.93719 53.582065 
L 226.01157 53.793884 
L 229.08595 54.006485 
L 232.160331 54.219842 
L 235.234711 54.433937 
L 238.309091 54.648748 
L 241.383471 54.864252 
L 244.457851 55.08043 
L 247.532231 55.297266 
L 250.606612 55.514735 
L 253.680992 55.732824 
L 256.755372 55.951514 
L 259.829752 56.170787 
L 262.904132 56.390626 
L 265.978512 56.611018 
L 269.052893 56.831945 
L 272.127273 57.053391 
L 275.201653 57.275345 
L 278.276033 57.497794 
L 281.350413 57.720719 
L 284.424793 57.944111 
L 287.499174 58.167958 
L 290.573554 58.392245 
L 293.647934 58.616961 
L 296.722314 58.842096 
L 299.796694 59.067639 
L 302.871074 59.293577 
L 305.945455 59.519901 
L 309.019835 59.746603 
L 312.094215 59.973671 
L 315.168595 60.201097 
L 318.242975 60.428868 
L 321.317355 60.656982 
L 324.391736 60.885425 
L 327.466116 61.114194 
L 330.540496 61.343275 
L 333.614876 61.572663 
L 336.689256 61.80235 
L 339.763636 62.032334 
L 342.838017 62.262598 
L 345.912397 62.493145 
L 348.986777 62.723961 
L 352.061157 62.95504 
L 355.135537 63.186385 
L 358.209917 63.417979 
L 361.284298 63.649824 
L 364.358678 63.88191 
L 367.433058 64.114233 
L 370.507438 64.346785 
L 373.581818 64.579564 
" style="fill:none;stroke:#1f77b4;stroke-linecap:square;stroke-width:1.5;"/>
   </g>
   <g id="line2d_16">
    <path clip-path="url(#p5a18821ff2)" d="M 69.218182 44.570532 
L 72.292562 44.558435 
L 75.366942 45.656157 
L 78.441322 47.1225 
L 81.515702 48.203123 
L 84.590083 49.511532 
L 87.664463 51.068476 
L 90.738843 53.111836 
L 93.813223 55.028753 
L 96.887603 56.865213 
L 99.961983 58.866024 
L 103.036364 60.743049 
L 106.110744 62.63556 
L 109.185124 65.325115 
L 112.259504 67.872489 
L 115.333884 70.108052 
L 118.408264 72.767327 
L 121.482645 75.594198 
L 124.557025 77.915542 
L 127.631405 80.699412 
L 130.705785 83.019414 
L 133.780165 86.164257 
L 136.854545 88.692094 
L 139.928926 91.255751 
L 143.003306 93.900374 
L 146.077686 95.449807 
L 149.152066 98.423853 
L 152.226446 100.35162 
L 155.300826 103.259415 
L 158.375207 105.965858 
L 161.449587 109.588557 
L 164.523967 110.977095 
L 167.598347 111.772606 
L 170.672727 116.267765 
L 173.747107 119.567044 
L 176.821488 122.448379 
L 179.895868 124.373512 
L 182.970248 124.146662 
L 186.044628 125.308278 
L 189.119008 129.481145 
L 192.193388 132.224817 
L 195.267769 135.180769 
L 198.342149 137.139781 
L 201.416529 139.094018 
L 204.490909 141.820293 
L 207.565289 143.982599 
L 210.639669 146.624035 
L 213.71405 147.379186 
L 216.78843 148.782263 
L 219.86281 150.772505 
L 222.93719 151.962503 
L 226.01157 153.230453 
L 229.08595 155.607478 
L 232.160331 157.327795 
L 235.234711 159.436207 
L 238.309091 161.640993 
L 241.383471 163.635262 
L 244.457851 165.980564 
L 247.532231 164.319131 
L 250.606612 174.079283 
L 253.680992 176.004226 
L 256.755372 177.620689 
L 259.829752 179.339665 
L 262.904132 181.158407 
L 265.978512 181.802398 
L 269.052893 180.903381 
L 272.127273 183.10954 
L 275.201653 183.282372 
L 278.276033 185.054597 
L 281.350413 185.990675 
L 284.424793 188.612192 
L 287.499174 190.466479 
L 290.573554 192.298449 
L 293.647934 192.970135 
L 296.722314 195.434364 
L 299.796694 197.419524 
L 302.871074 198.990884 
L 305.945455 197.930346 
L 309.019835 201.263817 
L 312.094215 203.460222 
L 315.168595 205.286629 
L 318.242975 205.97601 
L 321.317355 208.59802 
L 324.391736 211.924677 
L 327.466116 213.380675 
L 330.540496 215.704296 
L 333.614876 215.931351 
L 336.689256 217.884472 
L 339.763636 220.043581 
L 342.838017 218.849249 
L 345.912397 220.232848 
L 348.986777 221.35226 
L 352.061157 225.112842 
L 355.135537 226.571524 
L 358.209917 229.332635 
L 361.284298 230.809761 
L 364.358678 233.149632 
L 367.433058 236.574673 
L 370.507438 238.428488 
L 373.581818 242.116364 
" style="fill:none;stroke:#ff7f0e;stroke-linecap:square;stroke-width:1.5;"/>
   </g>
   <g id="line2d_17">
    <path clip-path="url(#p5a18821ff2)" d="M 69.218182 44.603366 
L 72.292562 44.443636 
L 75.366942 44.56733 
L 78.441322 44.533682 
L 81.515702 44.499999 
L 84.590083 44.537357 
L 87.664463 44.550705 
L 90.738843 44.574864 
L 93.813223 44.579932 
L 96.887603 44.567888 
L 99.961983 44.568634 
L 103.036364 44.569328 
L 106.110744 44.570859 
L 109.185124 44.576337 
L 112.259504 44.570737 
L 115.333884 44.577877 
L 118.408264 44.585914 
L 121.482645 44.584771 
L 124.557025 44.580521 
L 127.631405 44.577774 
L 130.705785 44.568673 
L 133.780165 44.560404 
L 136.854545 44.548352 
L 139.928926 44.536961 
L 143.003306 44.531347 
L 146.077686 44.533581 
L 149.152066 44.529644 
L 152.226446 44.543233 
L 155.300826 44.542277 
L 158.375207 44.541663 
L 161.449587 44.535103 
L 164.523967 44.530974 
L 167.598347 44.527648 
L 170.672727 44.532073 
L 173.747107 44.532313 
L 176.821488 44.531636 
L 179.895868 44.53841 
L 182.970248 44.54011 
L 186.044628 44.537797 
L 189.119008 44.535207 
L 192.193388 44.536243 
L 195.267769 44.53337 
L 198.342149 44.53297 
L 201.416529 44.530053 
L 204.490909 44.545849 
L 207.565289 44.535742 
L 210.639669 44.534192 
L 213.71405 44.539683 
L 216.78843 44.538741 
L 219.86281 44.541792 
L 222.93719 44.545322 
L 226.01157 44.545933 
L 229.08595 44.548467 
L 232.160331 44.549 
L 235.234711 44.54721 
L 238.309091 44.533077 
L 241.383471 44.551257 
L 244.457851 44.5529 
L 247.532231 44.549351 
L 250.606612 44.545806 
L 253.680992 44.546594 
L 256.755372 44.566626 
L 259.829752 44.566863 
L 262.904132 44.566482 
L 265.978512 44.567246 
L 269.052893 44.568778 
L 272.127273 44.572995 
L 275.201653 44.578541 
L 278.276033 44.581188 
L 281.350413 44.581575 
L 284.424793 44.582403 
L 287.499174 44.58399 
L 290.573554 44.582315 
L 293.647934 44.582366 
L 296.722314 44.582775 
L 299.796694 44.582528 
L 302.871074 44.58389 
L 305.945455 44.584714 
L 309.019835 44.577421 
L 312.094215 44.578794 
L 315.168595 44.579671 
L 318.242975 44.583006 
L 321.317355 44.583202 
L 324.391736 44.583143 
L 327.466116 44.583548 
L 330.540496 44.583833 
L 333.614876 44.584178 
L 336.689256 44.584484 
L 339.763636 44.584036 
L 342.838017 44.587022 
L 345.912397 44.588717 
L 348.986777 44.582707 
L 352.061157 44.582836 
L 355.135537 44.585427 
L 358.209917 44.587868 
L 361.284298 44.588044 
L 364.358678 44.588325 
L 367.433058 44.585987 
L 370.507438 44.5895 
L 373.581818 44.591889 
" style="fill:none;stroke:#2ca02c;stroke-linecap:square;stroke-width:1.5;"/>
   </g>
   <g id="line2d_18">
    <path clip-path="url(#p5a18821ff2)" d="M 69.218182 44.615933 
L 72.292562 44.607165 
L 75.366942 44.612674 
L 78.441322 44.621397 
L 81.515702 44.621197 
L 84.590083 44.615475 
L 87.664463 44.614707 
L 90.738843 44.612577 
L 93.813223 44.605942 
L 96.887603 44.604896 
L 99.961983 44.609251 
L 103.036364 44.603769 
L 106.110744 44.603385 
L 109.185124 44.604821 
L 112.259504 44.601951 
L 115.333884 44.602816 
L 118.408264 44.601952 
L 121.482645 44.603792 
L 124.557025 44.603846 
L 127.631405 44.60411 
L 130.705785 44.603823 
L 133.780165 44.602676 
L 136.854545 44.602281 
L 139.928926 44.602522 
L 143.003306 44.601329 
L 146.077686 44.604705 
L 149.152066 44.606132 
L 152.226446 44.606615 
L 155.300826 44.609374 
L 158.375207 44.609986 
L 161.449587 44.608252 
L 164.523967 44.610047 
L 167.598347 44.610104 
L 170.672727 44.609927 
L 173.747107 44.610138 
L 176.821488 44.608573 
L 179.895868 44.608372 
L 182.970248 44.610273 
L 186.044628 44.611858 
L 189.119008 44.61191 
L 192.193388 44.611521 
L 195.267769 44.610726 
L 198.342149 44.611867 
L 201.416529 44.611609 
L 204.490909 44.612182 
L 207.565289 44.61187 
L 210.639669 44.61349 
L 213.71405 44.612626 
L 216.78843 44.596964 
L 219.86281 44.597013 
L 222.93719 44.612849 
L 226.01157 44.610792 
L 229.08595 44.612689 
L 232.160331 44.611481 
L 235.234711 44.611525 
L 238.309091 44.611583 
L 241.383471 44.611229 
L 244.457851 44.611347 
L 247.532231 44.597353 
L 250.606612 44.599406 
L 253.680992 44.611217 
L 256.755372 44.608252 
L 259.829752 44.608331 
L 262.904132 44.610589 
L 265.978512 44.60878 
L 269.052893 44.608541 
L 272.127273 44.610024 
L 275.201653 44.609954 
L 278.276033 44.609848 
L 281.350413 44.609589 
L 284.424793 44.609516 
L 287.499174 44.609098 
L 290.573554 44.608622 
L 293.647934 44.607455 
L 296.722314 44.607609 
L 299.796694 44.608211 
L 302.871074 44.608196 
L 305.945455 44.608298 
L 309.019835 44.608063 
L 312.094215 44.607808 
L 315.168595 44.607994 
L 318.242975 44.607287 
L 321.317355 44.606138 
L 324.391736 44.60616 
L 327.466116 44.606343 
L 330.540496 44.606015 
L 333.614876 44.607301 
L 336.689256 44.607294 
L 339.763636 44.605576 
L 342.838017 44.606464 
L 345.912397 44.608355 
L 348.986777 44.608604 
L 352.061157 44.607512 
L 355.135537 44.608608 
L 358.209917 44.608333 
L 361.284298 44.608408 
L 364.358678 44.60838 
L 367.433058 44.608236 
L 370.507438 44.609644 
L 373.581818 44.607273 
" style="fill:none;stroke:#d62728;stroke-linecap:square;stroke-width:1.5;"/>
   </g>
   <g id="line2d_19">
    <path clip-path="url(#p5a18821ff2)" d="M 69.218182 44.616215 
L 72.292562 44.620102 
L 75.366942 44.610069 
L 78.441322 44.614982 
L 81.515702 44.613407 
L 84.590083 44.618516 
L 87.664463 44.616895 
L 90.738843 44.615037 
L 93.813223 44.615897 
L 96.887603 44.615539 
L 99.961983 44.615686 
L 103.036364 44.618685 
L 106.110744 44.617515 
L 109.185124 44.619052 
L 112.259504 44.61871 
L 115.333884 44.619176 
L 118.408264 44.619698 
L 121.482645 44.61875 
L 124.557025 44.618971 
L 127.631405 44.618752 
L 130.705785 44.613171 
L 133.780165 44.613371 
L 136.854545 44.612793 
L 139.928926 44.612757 
L 143.003306 44.61189 
L 146.077686 44.612525 
L 149.152066 44.612127 
L 152.226446 44.614162 
L 155.300826 44.610363 
L 158.375207 44.611813 
L 161.449587 44.613112 
L 164.523967 44.612961 
L 167.598347 44.612241 
L 170.672727 44.611021 
L 173.747107 44.613037 
L 176.821488 44.611752 
L 179.895868 44.612921 
L 182.970248 44.615812 
L 186.044628 44.615506 
L 189.119008 44.613549 
L 192.193388 44.614102 
L 195.267769 44.614107 
L 198.342149 44.61331 
L 201.416529 44.611703 
L 204.490909 44.619933 
L 207.565289 44.620303 
L 210.639669 44.620709 
L 213.71405 44.620321 
L 216.78843 44.620016 
L 219.86281 44.619213 
L 222.93719 44.620963 
L 226.01157 44.622799 
L 229.08595 44.622822 
L 232.160331 44.622672 
L 235.234711 44.622704 
L 238.309091 44.620965 
L 241.383471 44.620703 
L 244.457851 44.622466 
L 247.532231 44.620785 
L 250.606612 44.621794 
L 253.680992 44.621873 
L 256.755372 44.619062 
L 259.829752 44.620551 
L 262.904132 44.620123 
L 265.978512 44.622418 
L 269.052893 44.623791 
L 272.127273 44.622301 
L 275.201653 44.622358 
L 278.276033 44.622821 
L 281.350413 44.621772 
L 284.424793 44.621421 
L 287.499174 44.622048 
L 290.573554 44.623626 
L 293.647934 44.61958 
L 296.722314 44.618362 
L 299.796694 44.618561 
L 302.871074 44.618388 
L 305.945455 44.618182 
L 309.019835 44.617792 
L 312.094215 44.617894 
L 315.168595 44.618749 
L 318.242975 44.618453 
L 321.317355 44.61868 
L 324.391736 44.618421 
L 327.466116 44.618638 
L 330.540496 44.619087 
L 333.614876 44.619166 
L 336.689256 44.619692 
L 339.763636 44.616396 
L 342.838017 44.61624 
L 345.912397 44.616107 
L 348.986777 44.614724 
L 352.061157 44.617295 
L 355.135537 44.617009 
L 358.209917 44.616901 
L 361.284298 44.616663 
L 364.358678 44.619311 
L 367.433058 44.618926 
L 370.507438 44.612802 
L 373.581818 44.612365 
" style="fill:none;stroke:#9467bd;stroke-linecap:square;stroke-width:1.5;"/>
   </g>
   <g id="line2d_20">
    <path clip-path="url(#p5a18821ff2)" d="M 69.218182 44.612785 
L 72.292562 44.589026 
L 75.366942 44.619621 
L 78.441322 44.617887 
L 81.515702 44.613341 
L 84.590083 44.608183 
L 87.664463 44.604768 
L 90.738843 44.609652 
L 93.813223 44.608749 
L 96.887603 44.603983 
L 99.961983 44.604566 
L 103.036364 44.607687 
L 106.110744 44.607439 
L 109.185124 44.611249 
L 112.259504 44.605776 
L 115.333884 44.608021 
L 118.408264 44.616334 
L 121.482645 44.613964 
L 124.557025 44.612084 
L 127.631405 44.613166 
L 130.705785 44.612032 
L 133.780165 44.617325 
L 136.854545 44.610578 
L 139.928926 44.610771 
L 143.003306 44.610516 
L 146.077686 44.613498 
L 149.152066 44.61779 
L 152.226446 44.618136 
L 155.300826 44.617036 
L 158.375207 44.617616 
L 161.449587 44.612655 
L 164.523967 44.616943 
L 167.598347 44.618408 
L 170.672727 44.618039 
L 173.747107 44.617145 
L 176.821488 44.611992 
L 179.895868 44.6094 
L 182.970248 44.61075 
L 186.044628 44.608835 
L 189.119008 44.608421 
L 192.193388 44.609989 
L 195.267769 44.60783 
L 198.342149 44.611295 
L 201.416529 44.609688 
L 204.490909 44.610064 
L 207.565289 44.611851 
L 210.639669 44.609157 
L 213.71405 44.604005 
L 216.78843 44.605483 
L 219.86281 44.608215 
L 222.93719 44.604844 
L 226.01157 44.605634 
L 229.08595 44.604709 
L 232.160331 44.603306 
L 235.234711 44.599062 
L 238.309091 44.603007 
L 241.383471 44.604231 
L 244.457851 44.606003 
L 247.532231 44.605825 
L 250.606612 44.605853 
L 253.680992 44.604403 
L 256.755372 44.607174 
L 259.829752 44.603447 
L 262.904132 44.608176 
L 265.978512 44.604797 
L 269.052893 44.606744 
L 272.127273 44.606477 
L 275.201653 44.606375 
L 278.276033 44.605966 
L 281.350413 44.603135 
L 284.424793 44.602823 
L 287.499174 44.603451 
L 290.573554 44.603656 
L 293.647934 44.608174 
L 296.722314 44.607005 
L 299.796694 44.609044 
L 302.871074 44.607982 
L 305.945455 44.607973 
L 309.019835 44.607923 
L 312.094215 44.607829 
L 315.168595 44.609775 
L 318.242975 44.610289 
L 321.317355 44.610559 
L 324.391736 44.610937 
L 327.466116 44.611064 
L 330.540496 44.611072 
L 333.614876 44.610652 
L 336.689256 44.609234 
L 339.763636 44.608999 
L 342.838017 44.609061 
L 345.912397 44.609905 
L 348.986777 44.608556 
L 352.061157 44.607406 
L 355.135537 44.607472 
L 358.209917 44.607493 
L 361.284298 44.607582 
L 364.358678 44.607528 
L 367.433058 44.604926 
L 370.507438 44.60354 
L 373.581818 44.604406 
" style="fill:none;stroke:#8c564b;stroke-linecap:square;stroke-width:1.5;"/>
   </g>
   <g id="line2d_21">
    <path clip-path="url(#p5a18821ff2)" d="M 69.218182 44.60727 
L 72.292562 44.613703 
L 75.366942 44.627461 
L 78.441322 44.623544 
L 81.515702 44.619773 
L 84.590083 44.616029 
L 87.664463 44.628368 
L 90.738843 44.619399 
L 93.813223 44.616769 
L 96.887603 44.607261 
L 99.961983 44.617652 
L 103.036364 44.618117 
L 106.110744 44.623924 
L 109.185124 44.627181 
L 112.259504 44.627304 
L 115.333884 44.623896 
L 118.408264 44.621726 
L 121.482645 44.620931 
L 124.557025 44.615948 
L 127.631405 44.611539 
L 130.705785 44.615863 
L 133.780165 44.617731 
L 136.854545 44.612469 
L 139.928926 44.615025 
L 143.003306 44.613618 
L 146.077686 44.615312 
L 149.152066 44.618324 
L 152.226446 44.616946 
L 155.300826 44.61676 
L 158.375207 44.617565 
L 161.449587 44.616886 
L 164.523967 44.616613 
L 167.598347 44.615604 
L 170.672727 44.616174 
L 173.747107 44.612653 
L 176.821488 44.61586 
L 179.895868 44.617997 
L 182.970248 44.618988 
L 186.044628 44.618079 
L 189.119008 44.618502 
L 192.193388 44.619914 
L 195.267769 44.619698 
L 198.342149 44.618878 
L 201.416529 44.616575 
L 204.490909 44.619833 
L 207.565289 44.618691 
L 210.639669 44.61839 
L 213.71405 44.620298 
L 216.78843 44.619923 
L 219.86281 44.617341 
L 222.93719 44.616985 
L 226.01157 44.618841 
L 229.08595 44.619386 
L 232.160331 44.621116 
L 235.234711 44.619818 
L 238.309091 44.619992 
L 241.383471 44.621084 
L 244.457851 44.621654 
L 247.532231 44.620793 
L 250.606612 44.620275 
L 253.680992 44.620925 
L 256.755372 44.618549 
L 259.829752 44.620402 
L 262.904132 44.62094 
L 265.978512 44.62051 
L 269.052893 44.619391 
L 272.127273 44.616416 
L 275.201653 44.620227 
L 278.276033 44.620845 
L 281.350413 44.61734 
L 284.424793 44.620802 
L 287.499174 44.621208 
L 290.573554 44.620232 
L 293.647934 44.618253 
L 296.722314 44.618267 
L 299.796694 44.619391 
L 302.871074 44.616608 
L 305.945455 44.612246 
L 309.019835 44.611712 
L 312.094215 44.615051 
L 315.168595 44.614895 
L 318.242975 44.61514 
L 321.317355 44.61423 
L 324.391736 44.614258 
L 327.466116 44.614184 
L 330.540496 44.611553 
L 333.614876 44.615055 
L 336.689256 44.615582 
L 339.763636 44.61527 
L 342.838017 44.614856 
L 345.912397 44.614008 
L 348.986777 44.614507 
L 352.061157 44.614815 
L 355.135537 44.617991 
L 358.209917 44.618032 
L 361.284298 44.618077 
L 364.358678 44.618104 
L 367.433058 44.620686 
L 370.507438 44.620259 
L 373.581818 44.620325 
" style="fill:none;stroke:#e377c2;stroke-linecap:square;stroke-width:1.5;"/>
   </g>
   <g id="line2d_22">
    <path clip-path="url(#p5a18821ff2)" d="M 69.218182 44.595484 
L 72.292562 44.651724 
L 75.366942 44.637926 
L 78.441322 44.64783 
L 81.515702 44.65323 
L 84.590083 44.642559 
L 87.664463 44.641038 
L 90.738843 44.6405 
L 93.813223 44.638847 
L 96.887603 44.635127 
L 99.961983 44.636006 
L 103.036364 44.638246 
L 106.110744 44.635074 
L 109.185124 44.637987 
L 112.259504 44.632342 
L 115.333884 44.633527 
L 118.408264 44.638227 
L 121.482645 44.639457 
L 124.557025 44.640631 
L 127.631405 44.643654 
L 130.705785 44.644762 
L 133.780165 44.641013 
L 136.854545 44.641294 
L 139.928926 44.642257 
L 143.003306 44.639973 
L 146.077686 44.638816 
L 149.152066 44.638371 
L 152.226446 44.636568 
L 155.300826 44.63704 
L 158.375207 44.639518 
L 161.449587 44.64397 
L 164.523967 44.645534 
L 167.598347 44.647846 
L 170.672727 44.651971 
L 173.747107 44.652011 
L 176.821488 44.651995 
L 179.895868 44.652394 
L 182.970248 44.652811 
L 186.044628 44.653846 
L 189.119008 44.651958 
L 192.193388 44.653213 
L 195.267769 44.653333 
L 198.342149 44.653329 
L 201.416529 44.653514 
L 204.490909 44.653577 
L 207.565289 44.652456 
L 210.639669 44.652673 
L 213.71405 44.652869 
L 216.78843 44.653576 
L 219.86281 44.65343 
L 222.93719 44.653558 
L 226.01157 44.653566 
L 229.08595 44.654114 
L 232.160331 44.654281 
L 235.234711 44.654393 
L 238.309091 44.654517 
L 241.383471 44.654647 
L 244.457851 44.654775 
L 247.532231 44.654887 
L 250.606612 44.65495 
L 253.680992 44.654905 
L 256.755372 44.654978 
L 259.829752 44.655069 
L 262.904132 44.655134 
L 265.978512 44.655232 
L 269.052893 44.655346 
L 272.127273 44.655461 
L 275.201653 44.655569 
L 278.276033 44.655615 
L 281.350413 44.655497 
L 284.424793 44.65545 
L 287.499174 44.654337 
L 290.573554 44.653688 
L 293.647934 44.653639 
L 296.722314 44.654347 
L 299.796694 44.655865 
L 302.871074 44.655946 
L 305.945455 44.655926 
L 309.019835 44.655195 
L 312.094215 44.655279 
L 315.168595 44.655371 
L 318.242975 44.654687 
L 321.317355 44.654205 
L 324.391736 44.654432 
L 327.466116 44.651606 
L 330.540496 44.651746 
L 333.614876 44.65314 
L 336.689256 44.653278 
L 339.763636 44.653409 
L 342.838017 44.653538 
L 345.912397 44.653656 
L 348.986777 44.653744 
L 352.061157 44.653843 
L 355.135537 44.653941 
L 358.209917 44.654039 
L 361.284298 44.654137 
L 364.358678 44.654185 
L 367.433058 44.65428 
L 370.507438 44.654376 
L 373.581818 44.654474 
" style="fill:none;stroke:#7f7f7f;stroke-linecap:square;stroke-width:1.5;"/>
   </g>
   <g id="line2d_23">
    <path clip-path="url(#p5a18821ff2)" d="M 69.218182 44.605187 
L 72.292562 44.620557 
L 75.366942 44.618163 
L 78.441322 44.618381 
L 81.515702 44.631929 
L 84.590083 44.632423 
L 87.664463 44.627273 
L 90.738843 44.626597 
L 93.813223 44.631595 
L 96.887603 44.634507 
L 99.961983 44.633298 
L 103.036364 44.640379 
L 106.110744 44.635503 
L 109.185124 44.648695 
L 112.259504 44.64873 
L 115.333884 44.645491 
L 118.408264 44.643575 
L 121.482645 44.63999 
L 124.557025 44.647998 
L 127.631405 44.647103 
L 130.705785 44.64075 
L 133.780165 44.639383 
L 136.854545 44.648272 
L 139.928926 44.650254 
L 143.003306 44.639505 
L 146.077686 44.637989 
L 149.152066 44.644203 
L 152.226446 44.640921 
L 155.300826 44.653838 
L 158.375207 44.65414 
L 161.449587 44.651447 
L 164.523967 44.638593 
L 167.598347 44.63854 
L 170.672727 44.637328 
L 173.747107 44.636909 
L 176.821488 44.638362 
L 179.895868 44.634467 
L 182.970248 44.634409 
L 186.044628 44.635645 
L 189.119008 44.635853 
L 192.193388 44.635896 
L 195.267769 44.642767 
L 198.342149 44.637305 
L 201.416529 44.636124 
L 204.490909 44.632648 
L 207.565289 44.635078 
L 210.639669 44.636228 
L 213.71405 44.635361 
L 216.78843 44.635493 
L 219.86281 44.639777 
L 222.93719 44.636277 
L 226.01157 44.636956 
L 229.08595 44.637016 
L 232.160331 44.635713 
L 235.234711 44.635812 
L 238.309091 44.636301 
L 241.383471 44.636802 
L 244.457851 44.637192 
L 247.532231 44.637458 
L 250.606612 44.637102 
L 253.680992 44.636935 
L 256.755372 44.637184 
L 259.829752 44.637359 
L 262.904132 44.636338 
L 265.978512 44.636503 
L 269.052893 44.636652 
L 272.127273 44.636702 
L 275.201653 44.636526 
L 278.276033 44.635364 
L 281.350413 44.635325 
L 284.424793 44.641787 
L 287.499174 44.641096 
L 290.573554 44.642201 
L 293.647934 44.646133 
L 296.722314 44.647528 
L 299.796694 44.646345 
L 302.871074 44.642656 
L 305.945455 44.64267 
L 309.019835 44.642638 
L 312.094215 44.644059 
L 315.168595 44.648348 
L 318.242975 44.647675 
L 321.317355 44.641647 
L 324.391736 44.645357 
L 327.466116 44.645183 
L 330.540496 44.641363 
L 333.614876 44.640867 
L 336.689256 44.640736 
L 339.763636 44.639655 
L 342.838017 44.641503 
L 345.912397 44.641333 
L 348.986777 44.639292 
L 352.061157 44.638601 
L 355.135537 44.638468 
L 358.209917 44.640476 
L 361.284298 44.640282 
L 364.358678 44.640058 
L 367.433058 44.643654 
L 370.507438 44.643152 
L 373.581818 44.643973 
" style="fill:none;stroke:#bcbd22;stroke-linecap:square;stroke-width:1.5;"/>
   </g>
   <g id="line2d_24">
    <path clip-path="url(#p5a18821ff2)" d="M 69.218182 44.610538 
L 72.292562 44.631489 
L 75.366942 44.633275 
L 78.441322 44.634536 
L 81.515702 44.649506 
L 84.590083 44.638525 
L 87.664463 44.642281 
L 90.738843 44.652397 
L 93.813223 44.652992 
L 96.887603 44.65394 
L 99.961983 44.653089 
L 103.036364 44.654988 
L 106.110744 44.656513 
L 109.185124 44.668884 
L 112.259504 44.673125 
L 115.333884 44.662627 
L 118.408264 44.662809 
L 121.482645 44.65782 
L 124.557025 44.658556 
L 127.631405 44.664527 
L 130.705785 44.666508 
L 133.780165 44.661796 
L 136.854545 44.667966 
L 139.928926 44.665494 
L 143.003306 44.652147 
L 146.077686 44.652773 
L 149.152066 44.64386 
L 152.226446 44.658864 
L 155.300826 44.659313 
L 158.375207 44.646767 
L 161.449587 44.644841 
L 164.523967 44.654525 
L 167.598347 44.654454 
L 170.672727 44.658114 
L 173.747107 44.658191 
L 176.821488 44.649668 
L 179.895868 44.650285 
L 182.970248 44.652734 
L 186.044628 44.653412 
L 189.119008 44.651213 
L 192.193388 44.65026 
L 195.267769 44.650481 
L 198.342149 44.64782 
L 201.416529 44.657804 
L 204.490909 44.659314 
L 207.565289 44.660094 
L 210.639669 44.656314 
L 213.71405 44.654972 
L 216.78843 44.67177 
L 219.86281 44.68397 
L 222.93719 44.664777 
L 226.01157 44.678916 
L 229.08595 44.681118 
L 232.160331 44.684372 
L 235.234711 44.674801 
L 238.309091 44.665259 
L 241.383471 44.656703 
L 244.457851 44.657591 
L 247.532231 44.657967 
L 250.606612 44.660137 
L 253.680992 44.661148 
L 256.755372 44.660194 
L 259.829752 44.656479 
L 262.904132 44.656363 
L 265.978512 44.663044 
L 269.052893 44.663359 
L 272.127273 44.66383 
L 275.201653 44.66835 
L 278.276033 44.668477 
L 281.350413 44.666437 
L 284.424793 44.665811 
L 287.499174 44.665459 
L 290.573554 44.655241 
L 293.647934 44.654935 
L 296.722314 44.658113 
L 299.796694 44.669166 
L 302.871074 44.669238 
L 305.945455 44.664318 
L 309.019835 44.671299 
L 312.094215 44.658877 
L 315.168595 44.656797 
L 318.242975 44.65715 
L 321.317355 44.665824 
L 324.391736 44.662054 
L 327.466116 44.662051 
L 330.540496 44.66206 
L 333.614876 44.660428 
L 336.689256 44.662359 
L 339.763636 44.662247 
L 342.838017 44.656894 
L 345.912397 44.656983 
L 348.986777 44.661625 
L 352.061157 44.652975 
L 355.135537 44.653549 
L 358.209917 44.661348 
L 361.284298 44.653058 
L 364.358678 44.653019 
L 367.433058 44.652987 
L 370.507438 44.65597 
L 373.581818 44.647536 
" style="fill:none;stroke:#17becf;stroke-linecap:square;stroke-width:1.5;"/>
   </g>
   <g id="line2d_25">
    <path clip-path="url(#p5a18821ff2)" d="M 69.218182 44.552932 
L 72.292562 44.62575 
L 75.366942 44.653565 
L 78.441322 44.64605 
L 81.515702 44.631333 
L 84.590083 44.636192 
L 87.664463 44.638176 
L 90.738843 44.631291 
L 93.813223 44.629682 
L 96.887603 44.621489 
L 99.961983 44.623819 
L 103.036364 44.62259 
L 106.110744 44.617187 
L 109.185124 44.623377 
L 112.259504 44.634616 
L 115.333884 44.623918 
L 118.408264 44.614343 
L 121.482645 44.623053 
L 124.557025 44.634234 
L 127.631405 44.627333 
L 130.705785 44.614257 
L 133.780165 44.616531 
L 136.854545 44.617288 
L 139.928926 44.619528 
L 143.003306 44.627529 
L 146.077686 44.632248 
L 149.152066 44.622322 
L 152.226446 44.628752 
L 155.300826 44.643576 
L 158.375207 44.640631 
L 161.449587 44.6402 
L 164.523967 44.641969 
L 167.598347 44.641926 
L 170.672727 44.649042 
L 173.747107 44.655828 
L 176.821488 44.652523 
L 179.895868 44.649908 
L 182.970248 44.644232 
L 186.044628 44.663143 
L 189.119008 44.657512 
L 192.193388 44.657954 
L 195.267769 44.657971 
L 198.342149 44.65602 
L 201.416529 44.650869 
L 204.490909 44.662287 
L 207.565289 44.651888 
L 210.639669 44.650702 
L 213.71405 44.642412 
L 216.78843 44.642188 
L 219.86281 44.659373 
L 222.93719 44.66361 
L 226.01157 44.656649 
L 229.08595 44.654663 
L 232.160331 44.66228 
L 235.234711 44.656386 
L 238.309091 44.662324 
L 241.383471 44.66022 
L 244.457851 44.646957 
L 247.532231 44.647797 
L 250.606612 44.653782 
L 253.680992 44.661864 
L 256.755372 44.66234 
L 259.829752 44.687339 
L 262.904132 44.688677 
L 265.978512 44.689077 
L 269.052893 44.689431 
L 272.127273 44.689399 
L 275.201653 44.68984 
L 278.276033 44.683302 
L 281.350413 44.683717 
L 284.424793 44.683967 
L 287.499174 44.684711 
L 290.573554 44.692195 
L 293.647934 44.666425 
L 296.722314 44.667136 
L 299.796694 44.673777 
L 302.871074 44.673839 
L 305.945455 44.67411 
L 309.019835 44.669563 
L 312.094215 44.67904 
L 315.168595 44.669698 
L 318.242975 44.676817 
L 321.317355 44.67714 
L 324.391736 44.677312 
L 327.466116 44.67747 
L 330.540496 44.669514 
L 333.614876 44.677898 
L 336.689256 44.689939 
L 339.763636 44.690236 
L 342.838017 44.691388 
L 345.912397 44.69377 
L 348.986777 44.687249 
L 352.061157 44.670331 
L 355.135537 44.684038 
L 358.209917 44.684532 
L 361.284298 44.67629 
L 364.358678 44.675633 
L 367.433058 44.675652 
L 370.507438 44.675987 
L 373.581818 44.676324 
" style="fill:none;stroke:#1f77b4;stroke-linecap:square;stroke-width:1.5;"/>
   </g>
   <g id="line2d_26">
    <path clip-path="url(#p5a18821ff2)" d="M 69.218182 44.625775 
L 72.292562 44.652883 
L 75.366942 44.676165 
L 78.441322 44.729123 
L 81.515702 44.695977 
L 84.590083 44.710657 
L 87.664463 44.716882 
L 90.738843 44.724793 
L 93.813223 44.76213 
L 96.887603 44.766974 
L 99.961983 44.748695 
L 103.036364 44.782852 
L 106.110744 44.79375 
L 109.185124 44.8045 
L 112.259504 44.806683 
L 115.333884 44.819591 
L 118.408264 44.828898 
L 121.482645 44.822539 
L 124.557025 44.823937 
L 127.631405 44.805817 
L 130.705785 44.819396 
L 133.780165 44.802173 
L 136.854545 44.817851 
L 139.928926 44.814558 
L 143.003306 44.80571 
L 146.077686 44.81524 
L 149.152066 44.817724 
L 152.226446 44.790405 
L 155.300826 44.793864 
L 158.375207 44.791835 
L 161.449587 44.78864 
L 164.523967 44.787871 
L 167.598347 44.800619 
L 170.672727 44.781093 
L 173.747107 44.771891 
L 176.821488 44.772575 
L 179.895868 44.763698 
L 182.970248 44.777997 
L 186.044628 44.779481 
L 189.119008 44.771432 
L 192.193388 44.7583 
L 195.267769 44.753374 
L 198.342149 44.759551 
L 201.416529 44.753557 
L 204.490909 44.76914 
L 207.565289 44.748456 
L 210.639669 44.709041 
L 213.71405 44.7429 
L 216.78843 44.742811 
L 219.86281 44.741032 
L 222.93719 44.73426 
L 226.01157 44.708679 
L 229.08595 44.67839 
L 232.160331 44.671614 
L 235.234711 44.642889 
L 238.309091 44.622719 
L 241.383471 44.623808 
L 244.457851 44.607647 
L 247.532231 44.61738 
L 250.606612 44.609844 
L 253.680992 44.600789 
L 256.755372 44.59155 
L 259.829752 44.595855 
L 262.904132 44.57384 
L 265.978512 44.568761 
L 269.052893 44.568501 
L 272.127273 44.588929 
L 275.201653 44.591242 
L 278.276033 44.578709 
L 281.350413 44.570724 
L 284.424793 44.580748 
L 287.499174 44.576562 
L 290.573554 44.5747 
L 293.647934 44.56669 
L 296.722314 44.568066 
L 299.796694 44.562031 
L 302.871074 44.5661 
L 305.945455 44.565765 
L 309.019835 44.564506 
L 312.094215 44.563672 
L 315.168595 44.563211 
L 318.242975 44.561271 
L 321.317355 44.565941 
L 324.391736 44.577312 
L 327.466116 44.576814 
L 330.540496 44.581699 
L 333.614876 44.585713 
L 336.689256 44.582009 
L 339.763636 44.583505 
L 342.838017 44.573051 
L 345.912397 44.577003 
L 348.986777 44.577803 
L 352.061157 44.578653 
L 355.135537 44.574236 
L 358.209917 44.573574 
L 361.284298 44.587485 
L 364.358678 44.558333 
L 367.433058 44.558361 
L 370.507438 44.558845 
L 373.581818 44.59329 
" style="fill:none;stroke:#ff7f0e;stroke-linecap:square;stroke-width:1.5;"/>
   </g>
   <g id="patch_3">
    <path d="M 54 252 
L 54 34.56 
" style="fill:none;stroke:#000000;stroke-linecap:square;stroke-linejoin:miter;stroke-width:0.8;"/>
   </g>
   <g id="patch_4">
    <path d="M 388.8 252 
L 388.8 34.56 
" style="fill:none;stroke:#000000;stroke-linecap:square;stroke-linejoin:miter;stroke-width:0.8;"/>
   </g>
   <g id="patch_5">
    <path d="M 54 252 
L 388.8 252 
" style="fill:none;stroke:#000000;stroke-linecap:square;stroke-linejoin:miter;stroke-width:0.8;"/>
   </g>
   <g id="patch_6">
    <path d="M 54 34.56 
L 388.8 34.56 
" style="fill:none;stroke:#000000;stroke-linecap:square;stroke-linejoin:miter;stroke-width:0.8;"/>
   </g>
   <g id="text_17">
    <!-- Loss across layers -->
    <g transform="translate(167.016563 28.56)scale(0.12 -0.12)">
     <defs>
      <path d="M 628 4666 
L 1259 4666 
L 1259 531 
L 3531 531 
L 3531 0 
L 628 0 
L 628 4666 
z
" id="DejaVuSans-4c" transform="scale(0.015625)"/>
      <path id="DejaVuSans-20" transform="scale(0.015625)"/>
      <path d="M 2194 1759 
Q 1497 1759 1228 1600 
Q 959 1441 959 1056 
Q 959 750 1161 570 
Q 1363 391 1709 391 
Q 2188 391 2477 730 
Q 2766 1069 2766 1631 
L 2766 1759 
L 2194 1759 
z
M 3341 1997 
L 3341 0 
L 2766 0 
L 2766 531 
Q 2569 213 2275 61 
Q 1981 -91 1556 -91 
Q 1019 -91 701 211 
Q 384 513 384 1019 
Q 384 1609 779 1909 
Q 1175 2209 1959 2209 
L 2766 2209 
L 2766 2266 
Q 2766 2663 2505 2880 
Q 2244 3097 1772 3097 
Q 1472 3097 1187 3025 
Q 903 2953 641 2809 
L 641 3341 
Q 956 3463 1253 3523 
Q 1550 3584 1831 3584 
Q 2591 3584 2966 3190 
Q 3341 2797 3341 1997 
z
" id="DejaVuSans-61" transform="scale(0.015625)"/>
      <path d="M 3122 3366 
L 3122 2828 
Q 2878 2963 2633 3030 
Q 2388 3097 2138 3097 
Q 1578 3097 1268 2742 
Q 959 2388 959 1747 
Q 959 1106 1268 751 
Q 1578 397 2138 397 
Q 2388 397 2633 464 
Q 2878 531 3122 666 
L 3122 134 
Q 2881 22 2623 -34 
Q 2366 -91 2075 -91 
Q 1284 -91 818 406 
Q 353 903 353 1747 
Q 353 2603 823 3093 
Q 1294 3584 2113 3584 
Q 2378 3584 2631 3529 
Q 2884 3475 3122 3366 
z
" id="DejaVuSans-63" transform="scale(0.015625)"/>
      <path d="M 2059 -325 
Q 1816 -950 1584 -1140 
Q 1353 -1331 966 -1331 
L 506 -1331 
L 506 -850 
L 844 -850 
Q 1081 -850 1212 -737 
Q 1344 -625 1503 -206 
L 1606 56 
L 191 3500 
L 800 3500 
L 1894 763 
L 2988 3500 
L 3597 3500 
L 2059 -325 
z
" id="DejaVuSans-79" transform="scale(0.015625)"/>
     </defs>
     <use xlink:href="#DejaVuSans-4c"/>
     <use x="53.962891" xlink:href="#DejaVuSans-6f"/>
     <use x="115.144531" xlink:href="#DejaVuSans-73"/>
     <use x="167.244141" xlink:href="#DejaVuSans-73"/>
     <use x="219.34375" xlink:href="#DejaVuSans-20"/>
     <use x="251.130859" xlink:href="#DejaVuSans-61"/>
     <use x="312.410156" xlink:href="#DejaVuSans-63"/>
     <use x="367.390625" xlink:href="#DejaVuSans-72"/>
     <use x="406.253906" xlink:href="#DejaVuSans-6f"/>
     <use x="467.435547" xlink:href="#DejaVuSans-73"/>
     <use x="519.535156" xlink:href="#DejaVuSans-73"/>
     <use x="571.634766" xlink:href="#DejaVuSans-20"/>
     <use x="603.421875" xlink:href="#DejaVuSans-6c"/>
     <use x="631.205078" xlink:href="#DejaVuSans-61"/>
     <use x="692.484375" xlink:href="#DejaVuSans-79"/>
     <use x="751.664062" xlink:href="#DejaVuSans-65"/>
     <use x="813.1875" xlink:href="#DejaVuSans-72"/>
     <use x="854.300781" xlink:href="#DejaVuSans-73"/>
    </g>
   </g>
   <g id="legend_1">
    <g id="patch_7">
     <path d="M 61 247 
L 105.725 247 
Q 107.725 247 107.725 245 
L 107.725 69.8625 
Q 107.725 67.8625 105.725 67.8625 
L 61 67.8625 
Q 59 67.8625 59 69.8625 
L 59 245 
Q 59 247 61 247 
z
" style="fill:#ffffff;opacity:0.8;stroke:#cccccc;stroke-linejoin:miter;"/>
    </g>
    <g id="line2d_27">
     <path d="M 63 75.960938 
L 83 75.960938 
" style="fill:none;stroke:#1f77b4;stroke-linecap:square;stroke-width:1.5;"/>
    </g>
    <g id="line2d_28"/>
    <g id="text_18">
     <!-- 0 -->
     <g transform="translate(91 79.460938)scale(0.1 -0.1)">
      <use xlink:href="#DejaVuSans-30"/>
     </g>
    </g>
    <g id="line2d_29">
     <path d="M 63 90.639063 
L 83 90.639063 
" style="fill:none;stroke:#ff7f0e;stroke-linecap:square;stroke-width:1.5;"/>
    </g>
    <g id="line2d_30"/>
    <g id="text_19">
     <!-- 1 -->
     <g transform="translate(91 94.139063)scale(0.1 -0.1)">
      <use xlink:href="#DejaVuSans-31"/>
     </g>
    </g>
    <g id="line2d_31">
     <path d="M 63 105.317188 
L 83 105.317188 
" style="fill:none;stroke:#2ca02c;stroke-linecap:square;stroke-width:1.5;"/>
    </g>
    <g id="line2d_32"/>
    <g id="text_20">
     <!-- 2 -->
     <g transform="translate(91 108.817188)scale(0.1 -0.1)">
      <use xlink:href="#DejaVuSans-32"/>
     </g>
    </g>
    <g id="line2d_33">
     <path d="M 63 119.995313 
L 83 119.995313 
" style="fill:none;stroke:#d62728;stroke-linecap:square;stroke-width:1.5;"/>
    </g>
    <g id="line2d_34"/>
    <g id="text_21">
     <!-- 3 -->
     <g transform="translate(91 123.495313)scale(0.1 -0.1)">
      <defs>
       <path d="M 2597 2516 
Q 3050 2419 3304 2112 
Q 3559 1806 3559 1356 
Q 3559 666 3084 287 
Q 2609 -91 1734 -91 
Q 1441 -91 1130 -33 
Q 819 25 488 141 
L 488 750 
Q 750 597 1062 519 
Q 1375 441 1716 441 
Q 2309 441 2620 675 
Q 2931 909 2931 1356 
Q 2931 1769 2642 2001 
Q 2353 2234 1838 2234 
L 1294 2234 
L 1294 2753 
L 1863 2753 
Q 2328 2753 2575 2939 
Q 2822 3125 2822 3475 
Q 2822 3834 2567 4026 
Q 2313 4219 1838 4219 
Q 1578 4219 1281 4162 
Q 984 4106 628 3988 
L 628 4550 
Q 988 4650 1302 4700 
Q 1616 4750 1894 4750 
Q 2613 4750 3031 4423 
Q 3450 4097 3450 3541 
Q 3450 3153 3228 2886 
Q 3006 2619 2597 2516 
z
" id="DejaVuSans-33" transform="scale(0.015625)"/>
      </defs>
      <use xlink:href="#DejaVuSans-33"/>
     </g>
    </g>
    <g id="line2d_35">
     <path d="M 63 134.673438 
L 83 134.673438 
" style="fill:none;stroke:#9467bd;stroke-linecap:square;stroke-width:1.5;"/>
    </g>
    <g id="line2d_36"/>
    <g id="text_22">
     <!-- 4 -->
     <g transform="translate(91 138.173438)scale(0.1 -0.1)">
      <use xlink:href="#DejaVuSans-34"/>
     </g>
    </g>
    <g id="line2d_37">
     <path d="M 63 149.351563 
L 83 149.351563 
" style="fill:none;stroke:#8c564b;stroke-linecap:square;stroke-width:1.5;"/>
    </g>
    <g id="line2d_38"/>
    <g id="text_23">
     <!-- 5 -->
     <g transform="translate(91 152.851563)scale(0.1 -0.1)">
      <use xlink:href="#DejaVuSans-35"/>
     </g>
    </g>
    <g id="line2d_39">
     <path d="M 63 164.029688 
L 83 164.029688 
" style="fill:none;stroke:#e377c2;stroke-linecap:square;stroke-width:1.5;"/>
    </g>
    <g id="line2d_40"/>
    <g id="text_24">
     <!-- 6 -->
     <g transform="translate(91 167.529688)scale(0.1 -0.1)">
      <use xlink:href="#DejaVuSans-36"/>
     </g>
    </g>
    <g id="line2d_41">
     <path d="M 63 178.707813 
L 83 178.707813 
" style="fill:none;stroke:#7f7f7f;stroke-linecap:square;stroke-width:1.5;"/>
    </g>
    <g id="line2d_42"/>
    <g id="text_25">
     <!-- 7 -->
     <g transform="translate(91 182.207813)scale(0.1 -0.1)">
      <use xlink:href="#DejaVuSans-37"/>
     </g>
    </g>
    <g id="line2d_43">
     <path d="M 63 193.385938 
L 83 193.385938 
" style="fill:none;stroke:#bcbd22;stroke-linecap:square;stroke-width:1.5;"/>
    </g>
    <g id="line2d_44"/>
    <g id="text_26">
     <!-- 8 -->
     <g transform="translate(91 196.885938)scale(0.1 -0.1)">
      <use xlink:href="#DejaVuSans-38"/>
     </g>
    </g>
    <g id="line2d_45">
     <path d="M 63 208.064063 
L 83 208.064063 
" style="fill:none;stroke:#17becf;stroke-linecap:square;stroke-width:1.5;"/>
    </g>
    <g id="line2d_46"/>
    <g id="text_27">
     <!-- 9 -->
     <g transform="translate(91 211.564063)scale(0.1 -0.1)">
      <defs>
       <path d="M 703 97 
L 703 672 
Q 941 559 1184 500 
Q 1428 441 1663 441 
Q 2288 441 2617 861 
Q 2947 1281 2994 2138 
Q 2813 1869 2534 1725 
Q 2256 1581 1919 1581 
Q 1219 1581 811 2004 
Q 403 2428 403 3163 
Q 403 3881 828 4315 
Q 1253 4750 1959 4750 
Q 2769 4750 3195 4129 
Q 3622 3509 3622 2328 
Q 3622 1225 3098 567 
Q 2575 -91 1691 -91 
Q 1453 -91 1209 -44 
Q 966 3 703 97 
z
M 1959 2075 
Q 2384 2075 2632 2365 
Q 2881 2656 2881 3163 
Q 2881 3666 2632 3958 
Q 2384 4250 1959 4250 
Q 1534 4250 1286 3958 
Q 1038 3666 1038 3163 
Q 1038 2656 1286 2365 
Q 1534 2075 1959 2075 
z
" id="DejaVuSans-39" transform="scale(0.015625)"/>
      </defs>
      <use xlink:href="#DejaVuSans-39"/>
     </g>
    </g>
    <g id="line2d_47">
     <path d="M 63 222.742188 
L 83 222.742188 
" style="fill:none;stroke:#1f77b4;stroke-linecap:square;stroke-width:1.5;"/>
    </g>
    <g id="line2d_48"/>
    <g id="text_28">
     <!-- 10 -->
     <g transform="translate(91 226.242188)scale(0.1 -0.1)">
      <use xlink:href="#DejaVuSans-31"/>
      <use x="63.623047" xlink:href="#DejaVuSans-30"/>
     </g>
    </g>
    <g id="line2d_49">
     <path d="M 63 237.420312 
L 83 237.420312 
" style="fill:none;stroke:#ff7f0e;stroke-linecap:square;stroke-width:1.5;"/>
    </g>
    <g id="line2d_50"/>
    <g id="text_29">
     <!-- 11 -->
     <g transform="translate(91 240.920312)scale(0.1 -0.1)">
      <use xlink:href="#DejaVuSans-31"/>
      <use x="63.623047" xlink:href="#DejaVuSans-31"/>
     </g>
    </g>
   </g>
  </g>
 </g>
 <defs>
  <clipPath id="p5a18821ff2">
   <rect height="217.44" width="334.8" x="54" y="34.56"/>
  </clipPath>
 </defs>
</svg>
