<?xml version="1.0" encoding="utf-8" standalone="no"?>
<!DOCTYPE svg PUBLIC "-//W3C//DTD SVG 1.1//EN"
  "http://www.w3.org/Graphics/SVG/1.1/DTD/svg11.dtd">
<svg height="288pt" version="1.1" viewBox="0 0 432 288" width="432pt" xmlns="http://www.w3.org/2000/svg" xmlns:xlink="http://www.w3.org/1999/xlink">
 <metadata>
  <rdf:RDF xmlns:cc="http://creativecommons.org/ns#" xmlns:dc="http://purl.org/dc/elements/1.1/" xmlns:rdf="http://www.w3.org/1999/02/22-rdf-syntax-ns#">
   <cc:Work>
    <dc:type rdf:resource="http://purl.org/dc/dcmitype/StillImage"/>
    <dc:date>2022-05-19T12:25:18.780899</dc:date>
    <dc:format>image/svg+xml</dc:format>
    <dc:creator>
     <cc:Agent>
      <dc:title>Matplotlib v3.4.3, https://matplotlib.org/</dc:title>
     </cc:Agent>
    </dc:creator>
   </cc:Work>
  </rdf:RDF>
 </metadata>
 <defs>
  <style type="text/css">*{stroke-linecap:butt;stroke-linejoin:round;}</style>
 </defs>
 <g id="figure_1">
  <g id="patch_1">
   <path d="M 0 288 
L 432 288 
L 432 0 
L 0 0 
z
" style="fill:none;"/>
  </g>
  <g id="axes_1">
   <g id="patch_2">
    <path d="M 54 252 
L 388.8 252 
L 388.8 34.56 
L 54 34.56 
z
" style="fill:#ffffff;"/>
   </g>
   <g id="matplotlib.axis_1">
    <g id="xtick_1">
     <g id="line2d_1">
      <defs>
       <path d="M 0 0 
L 0 3.5 
" id="ma744a80b88" style="stroke:#000000;stroke-width:0.8;"/>
      </defs>
      <g>
       <use style="stroke:#000000;stroke-width:0.8;" x="69.218182" xlink:href="#ma744a80b88" y="252"/>
      </g>
     </g>
     <g id="text_1">
      <!-- 0 -->
      <g transform="translate(66.036932 266.598437)scale(0.1 -0.1)">
       <defs>
        <path d="M 2034 4250 
Q 1547 4250 1301 3770 
Q 1056 3291 1056 2328 
Q 1056 1369 1301 889 
Q 1547 409 2034 409 
Q 2525 409 2770 889 
Q 3016 1369 3016 2328 
Q 3016 3291 2770 3770 
Q 2525 4250 2034 4250 
z
M 2034 4750 
Q 2819 4750 3233 4129 
Q 3647 3509 3647 2328 
Q 3647 1150 3233 529 
Q 2819 -91 2034 -91 
Q 1250 -91 836 529 
Q 422 1150 422 2328 
Q 422 3509 836 4129 
Q 1250 4750 2034 4750 
z
" id="DejaVuSans-30" transform="scale(0.015625)"/>
       </defs>
       <use xlink:href="#DejaVuSans-30"/>
      </g>
     </g>
    </g>
    <g id="xtick_2">
     <g id="line2d_2">
      <g>
       <use style="stroke:#000000;stroke-width:0.8;" x="130.705785" xlink:href="#ma744a80b88" y="252"/>
      </g>
     </g>
     <g id="text_2">
      <!-- 20 -->
      <g transform="translate(124.343285 266.598437)scale(0.1 -0.1)">
       <defs>
        <path d="M 1228 531 
L 3431 531 
L 3431 0 
L 469 0 
L 469 531 
Q 828 903 1448 1529 
Q 2069 2156 2228 2338 
Q 2531 2678 2651 2914 
Q 2772 3150 2772 3378 
Q 2772 3750 2511 3984 
Q 2250 4219 1831 4219 
Q 1534 4219 1204 4116 
Q 875 4013 500 3803 
L 500 4441 
Q 881 4594 1212 4672 
Q 1544 4750 1819 4750 
Q 2544 4750 2975 4387 
Q 3406 4025 3406 3419 
Q 3406 3131 3298 2873 
Q 3191 2616 2906 2266 
Q 2828 2175 2409 1742 
Q 1991 1309 1228 531 
z
" id="DejaVuSans-32" transform="scale(0.015625)"/>
       </defs>
       <use xlink:href="#DejaVuSans-32"/>
       <use x="63.623047" xlink:href="#DejaVuSans-30"/>
      </g>
     </g>
    </g>
    <g id="xtick_3">
     <g id="line2d_3">
      <g>
       <use style="stroke:#000000;stroke-width:0.8;" x="192.193388" xlink:href="#ma744a80b88" y="252"/>
      </g>
     </g>
     <g id="text_3">
      <!-- 40 -->
      <g transform="translate(185.830888 266.598437)scale(0.1 -0.1)">
       <defs>
        <path d="M 2419 4116 
L 825 1625 
L 2419 1625 
L 2419 4116 
z
M 2253 4666 
L 3047 4666 
L 3047 1625 
L 3713 1625 
L 3713 1100 
L 3047 1100 
L 3047 0 
L 2419 0 
L 2419 1100 
L 313 1100 
L 313 1709 
L 2253 4666 
z
" id="DejaVuSans-34" transform="scale(0.015625)"/>
       </defs>
       <use xlink:href="#DejaVuSans-34"/>
       <use x="63.623047" xlink:href="#DejaVuSans-30"/>
      </g>
     </g>
    </g>
    <g id="xtick_4">
     <g id="line2d_4">
      <g>
       <use style="stroke:#000000;stroke-width:0.8;" x="253.680992" xlink:href="#ma744a80b88" y="252"/>
      </g>
     </g>
     <g id="text_4">
      <!-- 60 -->
      <g transform="translate(247.318492 266.598437)scale(0.1 -0.1)">
       <defs>
        <path d="M 2113 2584 
Q 1688 2584 1439 2293 
Q 1191 2003 1191 1497 
Q 1191 994 1439 701 
Q 1688 409 2113 409 
Q 2538 409 2786 701 
Q 3034 994 3034 1497 
Q 3034 2003 2786 2293 
Q 2538 2584 2113 2584 
z
M 3366 4563 
L 3366 3988 
Q 3128 4100 2886 4159 
Q 2644 4219 2406 4219 
Q 1781 4219 1451 3797 
Q 1122 3375 1075 2522 
Q 1259 2794 1537 2939 
Q 1816 3084 2150 3084 
Q 2853 3084 3261 2657 
Q 3669 2231 3669 1497 
Q 3669 778 3244 343 
Q 2819 -91 2113 -91 
Q 1303 -91 875 529 
Q 447 1150 447 2328 
Q 447 3434 972 4092 
Q 1497 4750 2381 4750 
Q 2619 4750 2861 4703 
Q 3103 4656 3366 4563 
z
" id="DejaVuSans-36" transform="scale(0.015625)"/>
       </defs>
       <use xlink:href="#DejaVuSans-36"/>
       <use x="63.623047" xlink:href="#DejaVuSans-30"/>
      </g>
     </g>
    </g>
    <g id="xtick_5">
     <g id="line2d_5">
      <g>
       <use style="stroke:#000000;stroke-width:0.8;" x="315.168595" xlink:href="#ma744a80b88" y="252"/>
      </g>
     </g>
     <g id="text_5">
      <!-- 80 -->
      <g transform="translate(308.806095 266.598437)scale(0.1 -0.1)">
       <defs>
        <path d="M 2034 2216 
Q 1584 2216 1326 1975 
Q 1069 1734 1069 1313 
Q 1069 891 1326 650 
Q 1584 409 2034 409 
Q 2484 409 2743 651 
Q 3003 894 3003 1313 
Q 3003 1734 2745 1975 
Q 2488 2216 2034 2216 
z
M 1403 2484 
Q 997 2584 770 2862 
Q 544 3141 544 3541 
Q 544 4100 942 4425 
Q 1341 4750 2034 4750 
Q 2731 4750 3128 4425 
Q 3525 4100 3525 3541 
Q 3525 3141 3298 2862 
Q 3072 2584 2669 2484 
Q 3125 2378 3379 2068 
Q 3634 1759 3634 1313 
Q 3634 634 3220 271 
Q 2806 -91 2034 -91 
Q 1263 -91 848 271 
Q 434 634 434 1313 
Q 434 1759 690 2068 
Q 947 2378 1403 2484 
z
M 1172 3481 
Q 1172 3119 1398 2916 
Q 1625 2713 2034 2713 
Q 2441 2713 2670 2916 
Q 2900 3119 2900 3481 
Q 2900 3844 2670 4047 
Q 2441 4250 2034 4250 
Q 1625 4250 1398 4047 
Q 1172 3844 1172 3481 
z
" id="DejaVuSans-38" transform="scale(0.015625)"/>
       </defs>
       <use xlink:href="#DejaVuSans-38"/>
       <use x="63.623047" xlink:href="#DejaVuSans-30"/>
      </g>
     </g>
    </g>
    <g id="xtick_6">
     <g id="line2d_6">
      <g>
       <use style="stroke:#000000;stroke-width:0.8;" x="376.656198" xlink:href="#ma744a80b88" y="252"/>
      </g>
     </g>
     <g id="text_6">
      <!-- 100 -->
      <g transform="translate(367.112448 266.598437)scale(0.1 -0.1)">
       <defs>
        <path d="M 794 531 
L 1825 531 
L 1825 4091 
L 703 3866 
L 703 4441 
L 1819 4666 
L 2450 4666 
L 2450 531 
L 3481 531 
L 3481 0 
L 794 0 
L 794 531 
z
" id="DejaVuSans-31" transform="scale(0.015625)"/>
       </defs>
       <use xlink:href="#DejaVuSans-31"/>
       <use x="63.623047" xlink:href="#DejaVuSans-30"/>
       <use x="127.246094" xlink:href="#DejaVuSans-30"/>
      </g>
     </g>
    </g>
    <g id="text_7">
     <!-- Iter -->
     <g transform="translate(212.832813 280.276563)scale(0.1 -0.1)">
      <defs>
       <path d="M 628 4666 
L 1259 4666 
L 1259 0 
L 628 0 
L 628 4666 
z
" id="DejaVuSans-49" transform="scale(0.015625)"/>
       <path d="M 1172 4494 
L 1172 3500 
L 2356 3500 
L 2356 3053 
L 1172 3053 
L 1172 1153 
Q 1172 725 1289 603 
Q 1406 481 1766 481 
L 2356 481 
L 2356 0 
L 1766 0 
Q 1100 0 847 248 
Q 594 497 594 1153 
L 594 3053 
L 172 3053 
L 172 3500 
L 594 3500 
L 594 4494 
L 1172 4494 
z
" id="DejaVuSans-74" transform="scale(0.015625)"/>
       <path d="M 3597 1894 
L 3597 1613 
L 953 1613 
Q 991 1019 1311 708 
Q 1631 397 2203 397 
Q 2534 397 2845 478 
Q 3156 559 3463 722 
L 3463 178 
Q 3153 47 2828 -22 
Q 2503 -91 2169 -91 
Q 1331 -91 842 396 
Q 353 884 353 1716 
Q 353 2575 817 3079 
Q 1281 3584 2069 3584 
Q 2775 3584 3186 3129 
Q 3597 2675 3597 1894 
z
M 3022 2063 
Q 3016 2534 2758 2815 
Q 2500 3097 2075 3097 
Q 1594 3097 1305 2825 
Q 1016 2553 972 2059 
L 3022 2063 
z
" id="DejaVuSans-65" transform="scale(0.015625)"/>
       <path d="M 2631 2963 
Q 2534 3019 2420 3045 
Q 2306 3072 2169 3072 
Q 1681 3072 1420 2755 
Q 1159 2438 1159 1844 
L 1159 0 
L 581 0 
L 581 3500 
L 1159 3500 
L 1159 2956 
Q 1341 3275 1631 3429 
Q 1922 3584 2338 3584 
Q 2397 3584 2469 3576 
Q 2541 3569 2628 3553 
L 2631 2963 
z
" id="DejaVuSans-72" transform="scale(0.015625)"/>
      </defs>
      <use xlink:href="#DejaVuSans-49"/>
      <use x="29.492188" xlink:href="#DejaVuSans-74"/>
      <use x="68.701172" xlink:href="#DejaVuSans-65"/>
      <use x="130.224609" xlink:href="#DejaVuSans-72"/>
     </g>
    </g>
   </g>
   <g id="matplotlib.axis_2">
    <g id="ytick_1">
     <g id="line2d_7">
      <defs>
       <path d="M 0 0 
L -3.5 0 
" id="m0639825134" style="stroke:#000000;stroke-width:0.8;"/>
      </defs>
      <g>
       <use style="stroke:#000000;stroke-width:0.8;" x="54" xlink:href="#m0639825134" y="248.646067"/>
      </g>
     </g>
     <g id="text_8">
      <!-- −30000 -->
      <g transform="translate(6.807812 252.445285)scale(0.1 -0.1)">
       <defs>
        <path d="M 678 2272 
L 4684 2272 
L 4684 1741 
L 678 1741 
L 678 2272 
z
" id="DejaVuSans-2212" transform="scale(0.015625)"/>
        <path d="M 2597 2516 
Q 3050 2419 3304 2112 
Q 3559 1806 3559 1356 
Q 3559 666 3084 287 
Q 2609 -91 1734 -91 
Q 1441 -91 1130 -33 
Q 819 25 488 141 
L 488 750 
Q 750 597 1062 519 
Q 1375 441 1716 441 
Q 2309 441 2620 675 
Q 2931 909 2931 1356 
Q 2931 1769 2642 2001 
Q 2353 2234 1838 2234 
L 1294 2234 
L 1294 2753 
L 1863 2753 
Q 2328 2753 2575 2939 
Q 2822 3125 2822 3475 
Q 2822 3834 2567 4026 
Q 2313 4219 1838 4219 
Q 1578 4219 1281 4162 
Q 984 4106 628 3988 
L 628 4550 
Q 988 4650 1302 4700 
Q 1616 4750 1894 4750 
Q 2613 4750 3031 4423 
Q 3450 4097 3450 3541 
Q 3450 3153 3228 2886 
Q 3006 2619 2597 2516 
z
" id="DejaVuSans-33" transform="scale(0.015625)"/>
       </defs>
       <use xlink:href="#DejaVuSans-2212"/>
       <use x="83.789062" xlink:href="#DejaVuSans-33"/>
       <use x="147.412109" xlink:href="#DejaVuSans-30"/>
       <use x="211.035156" xlink:href="#DejaVuSans-30"/>
       <use x="274.658203" xlink:href="#DejaVuSans-30"/>
       <use x="338.28125" xlink:href="#DejaVuSans-30"/>
      </g>
     </g>
    </g>
    <g id="ytick_2">
     <g id="line2d_8">
      <g>
       <use style="stroke:#000000;stroke-width:0.8;" x="54" xlink:href="#m0639825134" y="214.673138"/>
      </g>
     </g>
     <g id="text_9">
      <!-- −25000 -->
      <g transform="translate(6.807812 218.472357)scale(0.1 -0.1)">
       <defs>
        <path d="M 691 4666 
L 3169 4666 
L 3169 4134 
L 1269 4134 
L 1269 2991 
Q 1406 3038 1543 3061 
Q 1681 3084 1819 3084 
Q 2600 3084 3056 2656 
Q 3513 2228 3513 1497 
Q 3513 744 3044 326 
Q 2575 -91 1722 -91 
Q 1428 -91 1123 -41 
Q 819 9 494 109 
L 494 744 
Q 775 591 1075 516 
Q 1375 441 1709 441 
Q 2250 441 2565 725 
Q 2881 1009 2881 1497 
Q 2881 1984 2565 2268 
Q 2250 2553 1709 2553 
Q 1456 2553 1204 2497 
Q 953 2441 691 2322 
L 691 4666 
z
" id="DejaVuSans-35" transform="scale(0.015625)"/>
       </defs>
       <use xlink:href="#DejaVuSans-2212"/>
       <use x="83.789062" xlink:href="#DejaVuSans-32"/>
       <use x="147.412109" xlink:href="#DejaVuSans-35"/>
       <use x="211.035156" xlink:href="#DejaVuSans-30"/>
       <use x="274.658203" xlink:href="#DejaVuSans-30"/>
       <use x="338.28125" xlink:href="#DejaVuSans-30"/>
      </g>
     </g>
    </g>
    <g id="ytick_3">
     <g id="line2d_9">
      <g>
       <use style="stroke:#000000;stroke-width:0.8;" x="54" xlink:href="#m0639825134" y="180.700209"/>
      </g>
     </g>
     <g id="text_10">
      <!-- −20000 -->
      <g transform="translate(6.807812 184.499428)scale(0.1 -0.1)">
       <use xlink:href="#DejaVuSans-2212"/>
       <use x="83.789062" xlink:href="#DejaVuSans-32"/>
       <use x="147.412109" xlink:href="#DejaVuSans-30"/>
       <use x="211.035156" xlink:href="#DejaVuSans-30"/>
       <use x="274.658203" xlink:href="#DejaVuSans-30"/>
       <use x="338.28125" xlink:href="#DejaVuSans-30"/>
      </g>
     </g>
    </g>
    <g id="ytick_4">
     <g id="line2d_10">
      <g>
       <use style="stroke:#000000;stroke-width:0.8;" x="54" xlink:href="#m0639825134" y="146.72728"/>
      </g>
     </g>
     <g id="text_11">
      <!-- −15000 -->
      <g transform="translate(6.807812 150.526499)scale(0.1 -0.1)">
       <use xlink:href="#DejaVuSans-2212"/>
       <use x="83.789062" xlink:href="#DejaVuSans-31"/>
       <use x="147.412109" xlink:href="#DejaVuSans-35"/>
       <use x="211.035156" xlink:href="#DejaVuSans-30"/>
       <use x="274.658203" xlink:href="#DejaVuSans-30"/>
       <use x="338.28125" xlink:href="#DejaVuSans-30"/>
      </g>
     </g>
    </g>
    <g id="ytick_5">
     <g id="line2d_11">
      <g>
       <use style="stroke:#000000;stroke-width:0.8;" x="54" xlink:href="#m0639825134" y="112.754351"/>
      </g>
     </g>
     <g id="text_12">
      <!-- −10000 -->
      <g transform="translate(6.807812 116.55357)scale(0.1 -0.1)">
       <use xlink:href="#DejaVuSans-2212"/>
       <use x="83.789062" xlink:href="#DejaVuSans-31"/>
       <use x="147.412109" xlink:href="#DejaVuSans-30"/>
       <use x="211.035156" xlink:href="#DejaVuSans-30"/>
       <use x="274.658203" xlink:href="#DejaVuSans-30"/>
       <use x="338.28125" xlink:href="#DejaVuSans-30"/>
      </g>
     </g>
    </g>
    <g id="ytick_6">
     <g id="line2d_12">
      <g>
       <use style="stroke:#000000;stroke-width:0.8;" x="54" xlink:href="#m0639825134" y="78.781422"/>
      </g>
     </g>
     <g id="text_13">
      <!-- −5000 -->
      <g transform="translate(13.170313 82.580641)scale(0.1 -0.1)">
       <use xlink:href="#DejaVuSans-2212"/>
       <use x="83.789062" xlink:href="#DejaVuSans-35"/>
       <use x="147.412109" xlink:href="#DejaVuSans-30"/>
       <use x="211.035156" xlink:href="#DejaVuSans-30"/>
       <use x="274.658203" xlink:href="#DejaVuSans-30"/>
      </g>
     </g>
    </g>
    <g id="ytick_7">
     <g id="line2d_13">
      <g>
       <use style="stroke:#000000;stroke-width:0.8;" x="54" xlink:href="#m0639825134" y="44.808493"/>
      </g>
     </g>
     <g id="text_14">
      <!-- 0 -->
      <g transform="translate(40.6375 48.607712)scale(0.1 -0.1)">
       <use xlink:href="#DejaVuSans-30"/>
      </g>
     </g>
    </g>
    <g id="text_15">
     <!-- loss -->
     <g transform="translate(0.728125 152.937813)rotate(-90)scale(0.1 -0.1)">
      <defs>
       <path d="M 603 4863 
L 1178 4863 
L 1178 0 
L 603 0 
L 603 4863 
z
" id="DejaVuSans-6c" transform="scale(0.015625)"/>
       <path d="M 1959 3097 
Q 1497 3097 1228 2736 
Q 959 2375 959 1747 
Q 959 1119 1226 758 
Q 1494 397 1959 397 
Q 2419 397 2687 759 
Q 2956 1122 2956 1747 
Q 2956 2369 2687 2733 
Q 2419 3097 1959 3097 
z
M 1959 3584 
Q 2709 3584 3137 3096 
Q 3566 2609 3566 1747 
Q 3566 888 3137 398 
Q 2709 -91 1959 -91 
Q 1206 -91 779 398 
Q 353 888 353 1747 
Q 353 2609 779 3096 
Q 1206 3584 1959 3584 
z
" id="DejaVuSans-6f" transform="scale(0.015625)"/>
       <path d="M 2834 3397 
L 2834 2853 
Q 2591 2978 2328 3040 
Q 2066 3103 1784 3103 
Q 1356 3103 1142 2972 
Q 928 2841 928 2578 
Q 928 2378 1081 2264 
Q 1234 2150 1697 2047 
L 1894 2003 
Q 2506 1872 2764 1633 
Q 3022 1394 3022 966 
Q 3022 478 2636 193 
Q 2250 -91 1575 -91 
Q 1294 -91 989 -36 
Q 684 19 347 128 
L 347 722 
Q 666 556 975 473 
Q 1284 391 1588 391 
Q 1994 391 2212 530 
Q 2431 669 2431 922 
Q 2431 1156 2273 1281 
Q 2116 1406 1581 1522 
L 1381 1569 
Q 847 1681 609 1914 
Q 372 2147 372 2553 
Q 372 3047 722 3315 
Q 1072 3584 1716 3584 
Q 2034 3584 2315 3537 
Q 2597 3491 2834 3397 
z
" id="DejaVuSans-73" transform="scale(0.015625)"/>
      </defs>
      <use xlink:href="#DejaVuSans-6c"/>
      <use x="27.783203" xlink:href="#DejaVuSans-6f"/>
      <use x="88.964844" xlink:href="#DejaVuSans-73"/>
      <use x="141.064453" xlink:href="#DejaVuSans-73"/>
     </g>
    </g>
   </g>
   <g id="line2d_14">
    <path clip-path="url(#pfb0023bd0a)" d="M 69.218182 44.803171 
L 72.292562 44.905905 
L 75.366942 45.005062 
L 78.441322 45.103482 
L 81.515702 45.202149 
L 84.590083 45.301518 
L 87.664463 45.401831 
L 90.738843 45.503231 
L 93.813223 45.605806 
L 96.887603 45.709612 
L 99.961983 45.814682 
L 103.036364 45.921037 
L 106.110744 46.028689 
L 109.185124 46.13764 
L 112.259504 46.247888 
L 115.333884 46.359426 
L 118.408264 46.472244 
L 121.482645 46.58633 
L 124.557025 46.701668 
L 127.631405 46.818241 
L 130.705785 46.936031 
L 133.780165 47.055017 
L 136.854545 47.175179 
L 139.928926 47.296495 
L 143.003306 47.418941 
L 146.077686 47.542496 
L 149.152066 47.667136 
L 152.226446 47.792836 
L 155.300826 47.919571 
L 158.375207 48.04732 
L 161.449587 48.176055 
L 164.523967 48.305754 
L 167.598347 48.436393 
L 170.672727 48.567948 
L 173.747107 48.700392 
L 176.821488 48.833706 
L 179.895868 48.967864 
L 182.970248 49.102844 
L 186.044628 49.238624 
L 189.119008 49.37518 
L 192.193388 49.512492 
L 195.267769 49.650539 
L 198.342149 49.789299 
L 201.416529 49.928752 
L 204.490909 50.068878 
L 207.565289 50.209658 
L 210.639669 50.351073 
L 213.71405 50.493105 
L 216.78843 50.635736 
L 219.86281 50.77895 
L 222.93719 50.922726 
L 226.01157 51.067051 
L 229.08595 51.211907 
L 232.160331 51.357282 
L 235.234711 51.503157 
L 238.309091 51.649521 
L 241.383471 51.796356 
L 244.457851 51.943652 
L 247.532231 52.091394 
L 250.606612 52.239569 
L 253.680992 52.388167 
L 256.755372 52.537173 
L 259.829752 52.686576 
L 262.904132 52.836367 
L 265.978512 52.986532 
L 269.052893 53.137063 
L 272.127273 53.287948 
L 275.201653 53.439179 
L 278.276033 53.590746 
L 281.350413 53.742639 
L 284.424793 53.89485 
L 287.499174 54.047367 
L 290.573554 54.200189 
L 293.647934 54.353302 
L 296.722314 54.506699 
L 299.796694 54.660375 
L 302.871074 54.814322 
L 305.945455 54.96853 
L 309.019835 55.122995 
L 312.094215 55.277711 
L 315.168595 55.432667 
L 318.242975 55.587865 
L 321.317355 55.743291 
L 324.391736 55.898943 
L 327.466116 56.054816 
L 330.540496 56.210903 
L 333.614876 56.3672 
L 336.689256 56.523699 
L 339.763636 56.680401 
L 342.838017 56.837294 
L 345.912397 56.994377 
L 348.986777 57.151648 
L 352.061157 57.309098 
L 355.135537 57.466726 
L 358.209917 57.624528 
L 361.284298 57.782495 
L 364.358678 57.940628 
L 367.433058 58.098923 
L 370.507438 58.257377 
L 373.581818 58.41598 
" style="fill:none;stroke:#1f77b4;stroke-linecap:square;stroke-width:1.5;"/>
   </g>
   <g id="line2d_15">
    <path clip-path="url(#pfb0023bd0a)" d="M 69.218182 44.76339 
L 72.292562 44.443636 
L 75.366942 45.784575 
L 78.441322 46.730763 
L 81.515702 47.597548 
L 84.590083 48.857568 
L 87.664463 50.246618 
L 90.738843 51.607143 
L 93.813223 52.800915 
L 96.887603 54.006558 
L 99.961983 55.387445 
L 103.036364 56.816309 
L 106.110744 58.305846 
L 109.185124 60.343124 
L 112.259504 62.202586 
L 115.333884 64.259825 
L 118.408264 66.529646 
L 121.482645 67.437134 
L 124.557025 69.811481 
L 127.631405 71.387665 
L 130.705785 73.420845 
L 133.780165 75.403564 
L 136.854545 77.452805 
L 139.928926 79.199667 
L 143.003306 81.4059 
L 146.077686 83.423637 
L 149.152066 84.553662 
L 152.226446 86.318114 
L 155.300826 87.199237 
L 158.375207 88.781314 
L 161.449587 89.377068 
L 164.523967 89.843754 
L 167.598347 90.172422 
L 170.672727 92.089657 
L 173.747107 93.910725 
L 176.821488 95.641085 
L 179.895868 96.236026 
L 182.970248 97.530697 
L 186.044628 99.489614 
L 189.119008 101.797816 
L 192.193388 103.72641 
L 195.267769 106.003187 
L 198.342149 107.49915 
L 201.416529 109.122074 
L 204.490909 111.311238 
L 207.565289 112.746428 
L 210.639669 113.947133 
L 213.71405 116.073831 
L 216.78843 118.401295 
L 219.86281 120.876097 
L 222.93719 123.559713 
L 226.01157 124.112682 
L 229.08595 125.025512 
L 232.160331 129.607445 
L 235.234711 132.099917 
L 238.309091 135.066258 
L 241.383471 138.217857 
L 244.457851 138.810785 
L 247.532231 139.355811 
L 250.606612 140.315885 
L 253.680992 142.994352 
L 256.755372 144.258563 
L 259.829752 146.461667 
L 262.904132 147.94801 
L 265.978512 149.724263 
L 269.052893 153.228199 
L 272.127273 155.992786 
L 275.201653 157.372551 
L 278.276033 160.330054 
L 281.350413 161.919058 
L 284.424793 163.269761 
L 287.499174 167.244899 
L 290.573554 169.957093 
L 293.647934 172.970531 
L 296.722314 177.386866 
L 299.796694 181.595714 
L 302.871074 184.562758 
L 305.945455 187.482214 
L 309.019835 189.628825 
L 312.094215 193.542586 
L 315.168595 196.374734 
L 318.242975 198.145467 
L 321.317355 200.368982 
L 324.391736 203.075696 
L 327.466116 205.574604 
L 330.540496 209.030805 
L 333.614876 211.492104 
L 336.689256 212.982069 
L 339.763636 215.703938 
L 342.838017 214.214264 
L 345.912397 217.445395 
L 348.986777 222.775721 
L 352.061157 225.139175 
L 355.135537 227.575804 
L 358.209917 228.924702 
L 361.284298 232.131587 
L 364.358678 234.757349 
L 367.433058 238.01116 
L 370.507438 240.340402 
L 373.581818 242.116364 
" style="fill:none;stroke:#ff7f0e;stroke-linecap:square;stroke-width:1.5;"/>
   </g>
   <g id="line2d_16">
    <path clip-path="url(#pfb0023bd0a)" d="M 69.218182 44.807734 
L 72.292562 44.717166 
L 75.366942 44.778165 
L 78.441322 44.779022 
L 81.515702 44.767048 
L 84.590083 44.77392 
L 87.664463 44.785895 
L 90.738843 44.791988 
L 93.813223 44.782894 
L 96.887603 44.794233 
L 99.961983 44.794164 
L 103.036364 44.800702 
L 106.110744 44.810265 
L 109.185124 44.794092 
L 112.259504 44.775265 
L 115.333884 44.774643 
L 118.408264 44.778039 
L 121.482645 44.779279 
L 124.557025 44.786831 
L 127.631405 44.784704 
L 130.705785 44.785039 
L 133.780165 44.777221 
L 136.854545 44.772752 
L 139.928926 44.767561 
L 143.003306 44.760574 
L 146.077686 44.78064 
L 149.152066 44.776107 
L 152.226446 44.739247 
L 155.300826 44.731503 
L 158.375207 44.733242 
L 161.449587 44.750159 
L 164.523967 44.736892 
L 167.598347 44.742488 
L 170.672727 44.72962 
L 173.747107 44.732693 
L 176.821488 44.744262 
L 179.895868 44.746231 
L 182.970248 44.753874 
L 186.044628 44.755558 
L 189.119008 44.758018 
L 192.193388 44.757508 
L 195.267769 44.759186 
L 198.342149 44.769421 
L 201.416529 44.778955 
L 204.490909 44.778915 
L 207.565289 44.772765 
L 210.639669 44.777293 
L 213.71405 44.779165 
L 216.78843 44.780717 
L 219.86281 44.775189 
L 222.93719 44.775206 
L 226.01157 44.774706 
L 229.08595 44.779321 
L 232.160331 44.779462 
L 235.234711 44.784697 
L 238.309091 44.778439 
L 241.383471 44.778723 
L 244.457851 44.778902 
L 247.532231 44.774523 
L 250.606612 44.781368 
L 253.680992 44.781792 
L 256.755372 44.783269 
L 259.829752 44.782747 
L 262.904132 44.782872 
L 265.978512 44.785076 
L 269.052893 44.785332 
L 272.127273 44.784951 
L 275.201653 44.785758 
L 278.276033 44.785866 
L 281.350413 44.787667 
L 284.424793 44.787702 
L 287.499174 44.783607 
L 290.573554 44.789432 
L 293.647934 44.789311 
L 296.722314 44.789194 
L 299.796694 44.788772 
L 302.871074 44.788731 
L 305.945455 44.774394 
L 309.019835 44.776055 
L 312.094215 44.78031 
L 315.168595 44.784299 
L 318.242975 44.784188 
L 321.317355 44.784653 
L 324.391736 44.786511 
L 327.466116 44.783086 
L 330.540496 44.781846 
L 333.614876 44.778857 
L 336.689256 44.779386 
L 339.763636 44.786489 
L 342.838017 44.787085 
L 345.912397 44.776643 
L 348.986777 44.783421 
L 352.061157 44.792004 
L 355.135537 44.792214 
L 358.209917 44.792848 
L 361.284298 44.792429 
L 364.358678 44.792538 
L 367.433058 44.792514 
L 370.507438 44.792516 
L 373.581818 44.792583 
" style="fill:none;stroke:#2ca02c;stroke-linecap:square;stroke-width:1.5;"/>
   </g>
   <g id="line2d_17">
    <path clip-path="url(#pfb0023bd0a)" d="M 69.218182 44.808563 
L 72.292562 44.805555 
L 75.366942 44.803669 
L 78.441322 44.803811 
L 81.515702 44.802926 
L 84.590083 44.801311 
L 87.664463 44.804964 
L 90.738843 44.807548 
L 93.813223 44.808747 
L 96.887603 44.807423 
L 99.961983 44.807966 
L 103.036364 44.806593 
L 106.110744 44.805474 
L 109.185124 44.804074 
L 112.259504 44.80614 
L 115.333884 44.804827 
L 118.408264 44.806391 
L 121.482645 44.805989 
L 124.557025 44.806327 
L 127.631405 44.804987 
L 130.705785 44.804711 
L 133.780165 44.80524 
L 136.854545 44.805592 
L 139.928926 44.805407 
L 143.003306 44.805133 
L 146.077686 44.803185 
L 149.152066 44.803159 
L 152.226446 44.803024 
L 155.300826 44.803309 
L 158.375207 44.803229 
L 161.449587 44.802945 
L 164.523967 44.803276 
L 167.598347 44.802344 
L 170.672727 44.802294 
L 173.747107 44.802274 
L 176.821488 44.802303 
L 179.895868 44.802402 
L 182.970248 44.802978 
L 186.044628 44.802705 
L 189.119008 44.797999 
L 192.193388 44.797793 
L 195.267769 44.798117 
L 198.342149 44.797569 
L 201.416529 44.803836 
L 204.490909 44.802531 
L 207.565289 44.803984 
L 210.639669 44.798568 
L 213.71405 44.797705 
L 216.78843 44.798086 
L 219.86281 44.798182 
L 222.93719 44.798103 
L 226.01157 44.799865 
L 229.08595 44.799774 
L 232.160331 44.800037 
L 235.234711 44.800029 
L 238.309091 44.799891 
L 241.383471 44.80025 
L 244.457851 44.800079 
L 247.532231 44.799475 
L 250.606612 44.799462 
L 253.680992 44.799341 
L 256.755372 44.799291 
L 259.829752 44.799254 
L 262.904132 44.79915 
L 265.978512 44.79992 
L 269.052893 44.799956 
L 272.127273 44.799783 
L 275.201653 44.797069 
L 278.276033 44.795852 
L 281.350413 44.795829 
L 284.424793 44.795247 
L 287.499174 44.795206 
L 290.573554 44.795432 
L 293.647934 44.800821 
L 296.722314 44.800349 
L 299.796694 44.806881 
L 302.871074 44.797729 
L 305.945455 44.797148 
L 309.019835 44.797209 
L 312.094215 44.796863 
L 315.168595 44.797232 
L 318.242975 44.79731 
L 321.317355 44.796995 
L 324.391736 44.796919 
L 327.466116 44.796989 
L 330.540496 44.79698 
L 333.614876 44.797061 
L 336.689256 44.797439 
L 339.763636 44.797978 
L 342.838017 44.798113 
L 345.912397 44.798146 
L 348.986777 44.798101 
L 352.061157 44.798264 
L 355.135537 44.798282 
L 358.209917 44.798303 
L 361.284298 44.798327 
L 364.358678 44.798168 
L 367.433058 44.799329 
L 370.507438 44.798681 
L 373.581818 44.798919 
" style="fill:none;stroke:#d62728;stroke-linecap:square;stroke-width:1.5;"/>
   </g>
   <g id="line2d_18">
    <path clip-path="url(#pfb0023bd0a)" d="M 69.218182 44.810006 
L 72.292562 44.804549 
L 75.366942 44.812163 
L 78.441322 44.811626 
L 81.515702 44.815953 
L 84.590083 44.814896 
L 87.664463 44.808796 
L 90.738843 44.808062 
L 93.813223 44.807791 
L 96.887603 44.807935 
L 99.961983 44.807391 
L 103.036364 44.806988 
L 106.110744 44.806165 
L 109.185124 44.80621 
L 112.259504 44.806051 
L 115.333884 44.806809 
L 118.408264 44.806487 
L 121.482645 44.807187 
L 124.557025 44.806588 
L 127.631405 44.807466 
L 130.705785 44.806623 
L 133.780165 44.807318 
L 136.854545 44.806381 
L 139.928926 44.804839 
L 143.003306 44.802534 
L 146.077686 44.80268 
L 149.152066 44.802379 
L 152.226446 44.800219 
L 155.300826 44.796755 
L 158.375207 44.801744 
L 161.449587 44.80119 
L 164.523967 44.801269 
L 167.598347 44.8013 
L 170.672727 44.801164 
L 173.747107 44.801557 
L 176.821488 44.8018 
L 179.895868 44.802956 
L 182.970248 44.803128 
L 186.044628 44.803514 
L 189.119008 44.802481 
L 192.193388 44.801321 
L 195.267769 44.80162 
L 198.342149 44.800107 
L 201.416529 44.8012 
L 204.490909 44.801993 
L 207.565289 44.802006 
L 210.639669 44.803168 
L 213.71405 44.804 
L 216.78843 44.803708 
L 219.86281 44.804427 
L 222.93719 44.80449 
L 226.01157 44.808486 
L 229.08595 44.80328 
L 232.160331 44.803991 
L 235.234711 44.804522 
L 238.309091 44.804165 
L 241.383471 44.803831 
L 244.457851 44.803981 
L 247.532231 44.804006 
L 250.606612 44.804437 
L 253.680992 44.804068 
L 256.755372 44.803757 
L 259.829752 44.80378 
L 262.904132 44.803616 
L 265.978512 44.804331 
L 269.052893 44.804158 
L 272.127273 44.804133 
L 275.201653 44.804254 
L 278.276033 44.803492 
L 281.350413 44.803515 
L 284.424793 44.803114 
L 287.499174 44.803639 
L 290.573554 44.803621 
L 293.647934 44.803705 
L 296.722314 44.802751 
L 299.796694 44.802694 
L 302.871074 44.803087 
L 305.945455 44.803556 
L 309.019835 44.804191 
L 312.094215 44.804082 
L 315.168595 44.806049 
L 318.242975 44.805996 
L 321.317355 44.806113 
L 324.391736 44.803955 
L 327.466116 44.805522 
L 330.540496 44.805554 
L 333.614876 44.805262 
L 336.689256 44.805329 
L 339.763636 44.802476 
L 342.838017 44.802436 
L 345.912397 44.802821 
L 348.986777 44.80391 
L 352.061157 44.80392 
L 355.135537 44.804891 
L 358.209917 44.805794 
L 361.284298 44.805975 
L 364.358678 44.805844 
L 367.433058 44.805743 
L 370.507438 44.805766 
L 373.581818 44.805786 
" style="fill:none;stroke:#9467bd;stroke-linecap:square;stroke-width:1.5;"/>
   </g>
   <g id="line2d_19">
    <path clip-path="url(#pfb0023bd0a)" d="M 69.218182 44.809938 
L 72.292562 44.809623 
L 75.366942 44.812031 
L 78.441322 44.812394 
L 81.515702 44.812476 
L 84.590083 44.810863 
L 87.664463 44.811468 
L 90.738843 44.811555 
L 93.813223 44.814523 
L 96.887603 44.812294 
L 99.961983 44.816432 
L 103.036364 44.815063 
L 106.110744 44.81731 
L 109.185124 44.816982 
L 112.259504 44.817411 
L 115.333884 44.815135 
L 118.408264 44.815558 
L 121.482645 44.814666 
L 124.557025 44.81455 
L 127.631405 44.815121 
L 130.705785 44.816683 
L 133.780165 44.81657 
L 136.854545 44.8159 
L 139.928926 44.815911 
L 143.003306 44.815128 
L 146.077686 44.815554 
L 149.152066 44.813998 
L 152.226446 44.814436 
L 155.300826 44.81473 
L 158.375207 44.814707 
L 161.449587 44.815816 
L 164.523967 44.815584 
L 167.598347 44.816715 
L 170.672727 44.815989 
L 173.747107 44.815401 
L 176.821488 44.812991 
L 179.895868 44.812124 
L 182.970248 44.811627 
L 186.044628 44.813612 
L 189.119008 44.809635 
L 192.193388 44.808847 
L 195.267769 44.811707 
L 198.342149 44.809014 
L 201.416529 44.810568 
L 204.490909 44.81264 
L 207.565289 44.812588 
L 210.639669 44.81086 
L 213.71405 44.810242 
L 216.78843 44.809913 
L 219.86281 44.806805 
L 222.93719 44.806437 
L 226.01157 44.806389 
L 229.08595 44.806292 
L 232.160331 44.806492 
L 235.234711 44.803127 
L 238.309091 44.804599 
L 241.383471 44.803814 
L 244.457851 44.803125 
L 247.532231 44.803667 
L 250.606612 44.803431 
L 253.680992 44.80329 
L 256.755372 44.803219 
L 259.829752 44.803292 
L 262.904132 44.802946 
L 265.978512 44.80287 
L 269.052893 44.797763 
L 272.127273 44.798229 
L 275.201653 44.79775 
L 278.276033 44.796055 
L 281.350413 44.798127 
L 284.424793 44.798075 
L 287.499174 44.797866 
L 290.573554 44.797702 
L 293.647934 44.803017 
L 296.722314 44.80384 
L 299.796694 44.804027 
L 302.871074 44.805615 
L 305.945455 44.8053 
L 309.019835 44.806613 
L 312.094215 44.806873 
L 315.168595 44.806457 
L 318.242975 44.805925 
L 321.317355 44.805601 
L 324.391736 44.803135 
L 327.466116 44.802275 
L 330.540496 44.802255 
L 333.614876 44.800445 
L 336.689256 44.800486 
L 339.763636 44.800558 
L 342.838017 44.802041 
L 345.912397 44.803048 
L 348.986777 44.802781 
L 352.061157 44.804986 
L 355.135537 44.804888 
L 358.209917 44.805065 
L 361.284298 44.805988 
L 364.358678 44.803674 
L 367.433058 44.803452 
L 370.507438 44.805125 
L 373.581818 44.803017 
" style="fill:none;stroke:#8c564b;stroke-linecap:square;stroke-width:1.5;"/>
   </g>
   <g id="line2d_20">
    <path clip-path="url(#pfb0023bd0a)" d="M 69.218182 44.809706 
L 72.292562 44.806854 
L 75.366942 44.814701 
L 78.441322 44.813278 
L 81.515702 44.82154 
L 84.590083 44.820519 
L 87.664463 44.823213 
L 90.738843 44.821608 
L 93.813223 44.815652 
L 96.887603 44.813445 
L 99.961983 44.814363 
L 103.036364 44.812939 
L 106.110744 44.812394 
L 109.185124 44.811954 
L 112.259504 44.807904 
L 115.333884 44.808072 
L 118.408264 44.806909 
L 121.482645 44.808519 
L 124.557025 44.808455 
L 127.631405 44.807998 
L 130.705785 44.808607 
L 133.780165 44.810533 
L 136.854545 44.810678 
L 139.928926 44.810777 
L 143.003306 44.810658 
L 146.077686 44.810792 
L 149.152066 44.809708 
L 152.226446 44.809949 
L 155.300826 44.809808 
L 158.375207 44.811628 
L 161.449587 44.816364 
L 164.523967 44.816671 
L 167.598347 44.814927 
L 170.672727 44.812696 
L 173.747107 44.813483 
L 176.821488 44.811236 
L 179.895868 44.811347 
L 182.970248 44.813782 
L 186.044628 44.814459 
L 189.119008 44.8141 
L 192.193388 44.815533 
L 195.267769 44.816519 
L 198.342149 44.814623 
L 201.416529 44.81204 
L 204.490909 44.811442 
L 207.565289 44.811928 
L 210.639669 44.81303 
L 213.71405 44.815033 
L 216.78843 44.81645 
L 219.86281 44.816583 
L 222.93719 44.81672 
L 226.01157 44.816832 
L 229.08595 44.816938 
L 232.160331 44.816903 
L 235.234711 44.817036 
L 238.309091 44.817182 
L 241.383471 44.817007 
L 244.457851 44.816308 
L 247.532231 44.816398 
L 250.606612 44.816588 
L 253.680992 44.816674 
L 256.755372 44.816574 
L 259.829752 44.816824 
L 262.904132 44.818048 
L 265.978512 44.81544 
L 269.052893 44.815596 
L 272.127273 44.817749 
L 275.201653 44.81788 
L 278.276033 44.818206 
L 281.350413 44.818064 
L 284.424793 44.819855 
L 287.499174 44.818529 
L 290.573554 44.819376 
L 293.647934 44.819721 
L 296.722314 44.818829 
L 299.796694 44.819653 
L 302.871074 44.819617 
L 305.945455 44.821334 
L 309.019835 44.821472 
L 312.094215 44.821608 
L 315.168595 44.821769 
L 318.242975 44.821989 
L 321.317355 44.82082 
L 324.391736 44.820974 
L 327.466116 44.821123 
L 330.540496 44.821299 
L 333.614876 44.820866 
L 336.689256 44.821035 
L 339.763636 44.822231 
L 342.838017 44.822202 
L 345.912397 44.822311 
L 348.986777 44.821382 
L 352.061157 44.821216 
L 355.135537 44.821536 
L 358.209917 44.82141 
L 361.284298 44.820931 
L 364.358678 44.820076 
L 367.433058 44.820089 
L 370.507438 44.819826 
L 373.581818 44.819683 
" style="fill:none;stroke:#e377c2;stroke-linecap:square;stroke-width:1.5;"/>
   </g>
   <g id="line2d_21">
    <path clip-path="url(#pfb0023bd0a)" d="M 69.218182 44.80734 
L 72.292562 44.816977 
L 75.366942 44.832605 
L 78.441322 44.836366 
L 81.515702 44.850745 
L 84.590083 44.847355 
L 87.664463 44.84243 
L 90.738843 44.832709 
L 93.813223 44.837233 
L 96.887603 44.832459 
L 99.961983 44.836471 
L 103.036364 44.821717 
L 106.110744 44.826794 
L 109.185124 44.828687 
L 112.259504 44.827526 
L 115.333884 44.830193 
L 118.408264 44.828403 
L 121.482645 44.822941 
L 124.557025 44.821388 
L 127.631405 44.82029 
L 130.705785 44.82538 
L 133.780165 44.826261 
L 136.854545 44.826402 
L 139.928926 44.81843 
L 143.003306 44.818985 
L 146.077686 44.819892 
L 149.152066 44.820111 
L 152.226446 44.819323 
L 155.300826 44.816778 
L 158.375207 44.815962 
L 161.449587 44.814147 
L 164.523967 44.814525 
L 167.598347 44.81497 
L 170.672727 44.811715 
L 173.747107 44.810551 
L 176.821488 44.809171 
L 179.895868 44.810008 
L 182.970248 44.811104 
L 186.044628 44.811609 
L 189.119008 44.815303 
L 192.193388 44.812502 
L 195.267769 44.812432 
L 198.342149 44.812675 
L 201.416529 44.81252 
L 204.490909 44.809628 
L 207.565289 44.812223 
L 210.639669 44.81102 
L 213.71405 44.812563 
L 216.78843 44.809585 
L 219.86281 44.806896 
L 222.93719 44.808836 
L 226.01157 44.805925 
L 229.08595 44.806319 
L 232.160331 44.805829 
L 235.234711 44.806914 
L 238.309091 44.80563 
L 241.383471 44.805144 
L 244.457851 44.803894 
L 247.532231 44.803594 
L 250.606612 44.803602 
L 253.680992 44.803773 
L 256.755372 44.80075 
L 259.829752 44.802668 
L 262.904132 44.80518 
L 265.978512 44.808215 
L 269.052893 44.807983 
L 272.127273 44.808091 
L 275.201653 44.810596 
L 278.276033 44.810511 
L 281.350413 44.810314 
L 284.424793 44.813379 
L 287.499174 44.812834 
L 290.573554 44.813185 
L 293.647934 44.810642 
L 296.722314 44.80969 
L 299.796694 44.809555 
L 302.871074 44.809302 
L 305.945455 44.807635 
L 309.019835 44.806506 
L 312.094215 44.806236 
L 315.168595 44.806145 
L 318.242975 44.805783 
L 321.317355 44.807837 
L 324.391736 44.801938 
L 327.466116 44.801665 
L 330.540496 44.801111 
L 333.614876 44.801096 
L 336.689256 44.803283 
L 339.763636 44.801238 
L 342.838017 44.800229 
L 345.912397 44.799962 
L 348.986777 44.799739 
L 352.061157 44.799693 
L 355.135537 44.799973 
L 358.209917 44.800195 
L 361.284298 44.800202 
L 364.358678 44.799889 
L 367.433058 44.799689 
L 370.507438 44.806181 
L 373.581818 44.80621 
" style="fill:none;stroke:#7f7f7f;stroke-linecap:square;stroke-width:1.5;"/>
   </g>
   <g id="line2d_22">
    <path clip-path="url(#pfb0023bd0a)" d="M 69.218182 44.814898 
L 72.292562 44.800934 
L 75.366942 44.815054 
L 78.441322 44.820183 
L 81.515702 44.828592 
L 84.590083 44.826015 
L 87.664463 44.828027 
L 90.738843 44.822953 
L 93.813223 44.824126 
L 96.887603 44.815114 
L 99.961983 44.82739 
L 103.036364 44.818907 
L 106.110744 44.821499 
L 109.185124 44.822682 
L 112.259504 44.813478 
L 115.333884 44.820675 
L 118.408264 44.822852 
L 121.482645 44.817446 
L 124.557025 44.816949 
L 127.631405 44.817607 
L 130.705785 44.822512 
L 133.780165 44.812836 
L 136.854545 44.814059 
L 139.928926 44.814289 
L 143.003306 44.814308 
L 146.077686 44.817044 
L 149.152066 44.817952 
L 152.226446 44.817699 
L 155.300826 44.817347 
L 158.375207 44.816682 
L 161.449587 44.81705 
L 164.523967 44.816999 
L 167.598347 44.817925 
L 170.672727 44.817141 
L 173.747107 44.817189 
L 176.821488 44.817648 
L 179.895868 44.817653 
L 182.970248 44.817981 
L 186.044628 44.818815 
L 189.119008 44.820449 
L 192.193388 44.819861 
L 195.267769 44.820716 
L 198.342149 44.820608 
L 201.416529 44.81956 
L 204.490909 44.820587 
L 207.565289 44.821246 
L 210.639669 44.821599 
L 213.71405 44.821978 
L 216.78843 44.822689 
L 219.86281 44.823024 
L 222.93719 44.82645 
L 226.01157 44.824418 
L 229.08595 44.822534 
L 232.160331 44.822777 
L 235.234711 44.824729 
L 238.309091 44.821698 
L 241.383471 44.821737 
L 244.457851 44.822979 
L 247.532231 44.823088 
L 250.606612 44.818307 
L 253.680992 44.819248 
L 256.755372 44.822555 
L 259.829752 44.824101 
L 262.904132 44.815515 
L 265.978512 44.82008 
L 269.052893 44.823724 
L 272.127273 44.823811 
L 275.201653 44.823711 
L 278.276033 44.814009 
L 281.350413 44.81122 
L 284.424793 44.811798 
L 287.499174 44.813676 
L 290.573554 44.814094 
L 293.647934 44.818102 
L 296.722314 44.818256 
L 299.796694 44.816179 
L 302.871074 44.813417 
L 305.945455 44.813489 
L 309.019835 44.816018 
L 312.094215 44.816143 
L 315.168595 44.816233 
L 318.242975 44.82275 
L 321.317355 44.8214 
L 324.391736 44.821427 
L 327.466116 44.831228 
L 330.540496 44.831759 
L 333.614876 44.831836 
L 336.689256 44.831578 
L 339.763636 44.830844 
L 342.838017 44.830877 
L 345.912397 44.832001 
L 348.986777 44.832963 
L 352.061157 44.833266 
L 355.135537 44.83327 
L 358.209917 44.83325 
L 361.284298 44.833302 
L 364.358678 44.834011 
L 367.433058 44.83346 
L 370.507438 44.833335 
L 373.581818 44.833391 
" style="fill:none;stroke:#bcbd22;stroke-linecap:square;stroke-width:1.5;"/>
   </g>
   <g id="line2d_23">
    <path clip-path="url(#pfb0023bd0a)" d="M 69.218182 44.812077 
L 72.292562 44.816982 
L 75.366942 44.827491 
L 78.441322 44.828942 
L 81.515702 44.830986 
L 84.590083 44.831632 
L 87.664463 44.836138 
L 90.738843 44.844811 
L 93.813223 44.845353 
L 96.887603 44.850762 
L 99.961983 44.850099 
L 103.036364 44.848392 
L 106.110744 44.84984 
L 109.185124 44.851993 
L 112.259504 44.851584 
L 115.333884 44.856324 
L 118.408264 44.854462 
L 121.482645 44.854092 
L 124.557025 44.854345 
L 127.631405 44.854661 
L 130.705785 44.847114 
L 133.780165 44.854415 
L 136.854545 44.860332 
L 139.928926 44.860844 
L 143.003306 44.85674 
L 146.077686 44.859623 
L 149.152066 44.859523 
L 152.226446 44.864973 
L 155.300826 44.863367 
L 158.375207 44.865293 
L 161.449587 44.862417 
L 164.523967 44.863315 
L 167.598347 44.864869 
L 170.672727 44.86186 
L 173.747107 44.863169 
L 176.821488 44.864335 
L 179.895868 44.866665 
L 182.970248 44.864025 
L 186.044628 44.866724 
L 189.119008 44.867803 
L 192.193388 44.87504 
L 195.267769 44.876191 
L 198.342149 44.875029 
L 201.416529 44.879871 
L 204.490909 44.880309 
L 207.565289 44.877749 
L 210.639669 44.881717 
L 213.71405 44.879822 
L 216.78843 44.883495 
L 219.86281 44.882942 
L 222.93719 44.883284 
L 226.01157 44.878135 
L 229.08595 44.878622 
L 232.160331 44.884762 
L 235.234711 44.884967 
L 238.309091 44.885533 
L 241.383471 44.887583 
L 244.457851 44.884888 
L 247.532231 44.885696 
L 250.606612 44.886292 
L 253.680992 44.890899 
L 256.755372 44.893304 
L 259.829752 44.891441 
L 262.904132 44.892133 
L 265.978512 44.893303 
L 269.052893 44.900224 
L 272.127273 44.889947 
L 275.201653 44.887563 
L 278.276033 44.888439 
L 281.350413 44.88923 
L 284.424793 44.895861 
L 287.499174 44.896574 
L 290.573554 44.896905 
L 293.647934 44.899076 
L 296.722314 44.898808 
L 299.796694 44.897884 
L 302.871074 44.898355 
L 305.945455 44.888955 
L 309.019835 44.89292 
L 312.094215 44.893332 
L 315.168595 44.882915 
L 318.242975 44.88323 
L 321.317355 44.885345 
L 324.391736 44.887791 
L 327.466116 44.887653 
L 330.540496 44.887916 
L 333.614876 44.889213 
L 336.689256 44.889831 
L 339.763636 44.889475 
L 342.838017 44.889971 
L 345.912397 44.891294 
L 348.986777 44.890458 
L 352.061157 44.891125 
L 355.135537 44.890728 
L 358.209917 44.890148 
L 361.284298 44.890234 
L 364.358678 44.890872 
L 367.433058 44.891229 
L 370.507438 44.891344 
L 373.581818 44.891291 
" style="fill:none;stroke:#17becf;stroke-linecap:square;stroke-width:1.5;"/>
   </g>
   <g id="line2d_24">
    <path clip-path="url(#pfb0023bd0a)" d="M 69.218182 44.810157 
L 72.292562 44.812677 
L 75.366942 44.821187 
L 78.441322 44.816219 
L 81.515702 44.803196 
L 84.590083 44.814862 
L 87.664463 44.812075 
L 90.738843 44.816112 
L 93.813223 44.820519 
L 96.887603 44.816216 
L 99.961983 44.81807 
L 103.036364 44.81822 
L 106.110744 44.823722 
L 109.185124 44.829623 
L 112.259504 44.8294 
L 115.333884 44.824636 
L 118.408264 44.825513 
L 121.482645 44.823785 
L 124.557025 44.820429 
L 127.631405 44.825821 
L 130.705785 44.82812 
L 133.780165 44.827882 
L 136.854545 44.827295 
L 139.928926 44.822434 
L 143.003306 44.824453 
L 146.077686 44.824024 
L 149.152066 44.825269 
L 152.226446 44.826576 
L 155.300826 44.827807 
L 158.375207 44.830671 
L 161.449587 44.831038 
L 164.523967 44.831143 
L 167.598347 44.825821 
L 170.672727 44.827028 
L 173.747107 44.822653 
L 176.821488 44.82307 
L 179.895868 44.822983 
L 182.970248 44.821569 
L 186.044628 44.823214 
L 189.119008 44.823179 
L 192.193388 44.824373 
L 195.267769 44.827366 
L 198.342149 44.826921 
L 201.416529 44.815732 
L 204.490909 44.820746 
L 207.565289 44.821929 
L 210.639669 44.822895 
L 213.71405 44.823626 
L 216.78843 44.82378 
L 219.86281 44.824073 
L 222.93719 44.824599 
L 226.01157 44.825814 
L 229.08595 44.826704 
L 232.160331 44.827719 
L 235.234711 44.829189 
L 238.309091 44.829448 
L 241.383471 44.829664 
L 244.457851 44.829952 
L 247.532231 44.830487 
L 250.606612 44.830989 
L 253.680992 44.828686 
L 256.755372 44.828888 
L 259.829752 44.826523 
L 262.904132 44.826644 
L 265.978512 44.826734 
L 269.052893 44.828026 
L 272.127273 44.8303 
L 275.201653 44.83071 
L 278.276033 44.830785 
L 281.350413 44.831015 
L 284.424793 44.831276 
L 287.499174 44.831683 
L 290.573554 44.845019 
L 293.647934 44.844811 
L 296.722314 44.84428 
L 299.796694 44.84402 
L 302.871074 44.843284 
L 305.945455 44.846538 
L 309.019835 44.846697 
L 312.094215 44.841384 
L 315.168595 44.841502 
L 318.242975 44.841639 
L 321.317355 44.84375 
L 324.391736 44.843946 
L 327.466116 44.844758 
L 330.540496 44.849455 
L 333.614876 44.849727 
L 336.689256 44.849889 
L 339.763636 44.848265 
L 342.838017 44.848995 
L 345.912397 44.848176 
L 348.986777 44.848192 
L 352.061157 44.848313 
L 355.135537 44.848437 
L 358.209917 44.848625 
L 361.284298 44.848929 
L 364.358678 44.848949 
L 367.433058 44.847138 
L 370.507438 44.84025 
L 373.581818 44.8424 
" style="fill:none;stroke:#1f77b4;stroke-linecap:square;stroke-width:1.5;"/>
   </g>
   <g id="line2d_25">
    <path clip-path="url(#pfb0023bd0a)" d="M 69.218182 44.807984 
L 72.292562 44.806319 
L 75.366942 44.853348 
L 78.441322 44.872852 
L 81.515702 44.867202 
L 84.590083 44.864956 
L 87.664463 44.857791 
L 90.738843 44.839103 
L 93.813223 44.844232 
L 96.887603 44.846852 
L 99.961983 44.8256 
L 103.036364 44.828145 
L 106.110744 44.834314 
L 109.185124 44.84293 
L 112.259504 44.828662 
L 115.333884 44.838526 
L 118.408264 44.841028 
L 121.482645 44.83159 
L 124.557025 44.825739 
L 127.631405 44.823898 
L 130.705785 44.82616 
L 133.780165 44.833191 
L 136.854545 44.831148 
L 139.928926 44.826532 
L 143.003306 44.828856 
L 146.077686 44.822382 
L 149.152066 44.829922 
L 152.226446 44.830302 
L 155.300826 44.828561 
L 158.375207 44.828102 
L 161.449587 44.829015 
L 164.523967 44.822506 
L 167.598347 44.82417 
L 170.672727 44.836347 
L 173.747107 44.832213 
L 176.821488 44.832689 
L 179.895868 44.822911 
L 182.970248 44.82737 
L 186.044628 44.83114 
L 189.119008 44.843097 
L 192.193388 44.844101 
L 195.267769 44.842439 
L 198.342149 44.83817 
L 201.416529 44.837701 
L 204.490909 44.840594 
L 207.565289 44.836156 
L 210.639669 44.833577 
L 213.71405 44.834923 
L 216.78843 44.835801 
L 219.86281 44.83864 
L 222.93719 44.838279 
L 226.01157 44.837248 
L 229.08595 44.837924 
L 232.160331 44.837602 
L 235.234711 44.832629 
L 238.309091 44.830431 
L 241.383471 44.826779 
L 244.457851 44.825879 
L 247.532231 44.826418 
L 250.606612 44.824121 
L 253.680992 44.824395 
L 256.755372 44.822862 
L 259.829752 44.821906 
L 262.904132 44.827267 
L 265.978512 44.829351 
L 269.052893 44.829044 
L 272.127273 44.83116 
L 275.201653 44.831535 
L 278.276033 44.83033 
L 281.350413 44.830347 
L 284.424793 44.831528 
L 287.499174 44.832839 
L 290.573554 44.832 
L 293.647934 44.833519 
L 296.722314 44.832137 
L 299.796694 44.829758 
L 302.871074 44.835937 
L 305.945455 44.835905 
L 309.019835 44.835359 
L 312.094215 44.833352 
L 315.168595 44.832658 
L 318.242975 44.835121 
L 321.317355 44.830925 
L 324.391736 44.831844 
L 327.466116 44.831667 
L 330.540496 44.830492 
L 333.614876 44.829215 
L 336.689256 44.830716 
L 339.763636 44.826999 
L 342.838017 44.830388 
L 345.912397 44.821512 
L 348.986777 44.823209 
L 352.061157 44.825267 
L 355.135537 44.814417 
L 358.209917 44.819586 
L 361.284298 44.819032 
L 364.358678 44.824409 
L 367.433058 44.824264 
L 370.507438 44.821662 
L 373.581818 44.819597 
" style="fill:none;stroke:#ff7f0e;stroke-linecap:square;stroke-width:1.5;"/>
   </g>
   <g id="patch_3">
    <path d="M 54 252 
L 54 34.56 
" style="fill:none;stroke:#000000;stroke-linecap:square;stroke-linejoin:miter;stroke-width:0.8;"/>
   </g>
   <g id="patch_4">
    <path d="M 388.8 252 
L 388.8 34.56 
" style="fill:none;stroke:#000000;stroke-linecap:square;stroke-linejoin:miter;stroke-width:0.8;"/>
   </g>
   <g id="patch_5">
    <path d="M 54 252 
L 388.8 252 
" style="fill:none;stroke:#000000;stroke-linecap:square;stroke-linejoin:miter;stroke-width:0.8;"/>
   </g>
   <g id="patch_6">
    <path d="M 54 34.56 
L 388.8 34.56 
" style="fill:none;stroke:#000000;stroke-linecap:square;stroke-linejoin:miter;stroke-width:0.8;"/>
   </g>
   <g id="text_16">
    <!-- Loss across layers -->
    <g transform="translate(167.016563 28.56)scale(0.12 -0.12)">
     <defs>
      <path d="M 628 4666 
L 1259 4666 
L 1259 531 
L 3531 531 
L 3531 0 
L 628 0 
L 628 4666 
z
" id="DejaVuSans-4c" transform="scale(0.015625)"/>
      <path id="DejaVuSans-20" transform="scale(0.015625)"/>
      <path d="M 2194 1759 
Q 1497 1759 1228 1600 
Q 959 1441 959 1056 
Q 959 750 1161 570 
Q 1363 391 1709 391 
Q 2188 391 2477 730 
Q 2766 1069 2766 1631 
L 2766 1759 
L 2194 1759 
z
M 3341 1997 
L 3341 0 
L 2766 0 
L 2766 531 
Q 2569 213 2275 61 
Q 1981 -91 1556 -91 
Q 1019 -91 701 211 
Q 384 513 384 1019 
Q 384 1609 779 1909 
Q 1175 2209 1959 2209 
L 2766 2209 
L 2766 2266 
Q 2766 2663 2505 2880 
Q 2244 3097 1772 3097 
Q 1472 3097 1187 3025 
Q 903 2953 641 2809 
L 641 3341 
Q 956 3463 1253 3523 
Q 1550 3584 1831 3584 
Q 2591 3584 2966 3190 
Q 3341 2797 3341 1997 
z
" id="DejaVuSans-61" transform="scale(0.015625)"/>
      <path d="M 3122 3366 
L 3122 2828 
Q 2878 2963 2633 3030 
Q 2388 3097 2138 3097 
Q 1578 3097 1268 2742 
Q 959 2388 959 1747 
Q 959 1106 1268 751 
Q 1578 397 2138 397 
Q 2388 397 2633 464 
Q 2878 531 3122 666 
L 3122 134 
Q 2881 22 2623 -34 
Q 2366 -91 2075 -91 
Q 1284 -91 818 406 
Q 353 903 353 1747 
Q 353 2603 823 3093 
Q 1294 3584 2113 3584 
Q 2378 3584 2631 3529 
Q 2884 3475 3122 3366 
z
" id="DejaVuSans-63" transform="scale(0.015625)"/>
      <path d="M 2059 -325 
Q 1816 -950 1584 -1140 
Q 1353 -1331 966 -1331 
L 506 -1331 
L 506 -850 
L 844 -850 
Q 1081 -850 1212 -737 
Q 1344 -625 1503 -206 
L 1606 56 
L 191 3500 
L 800 3500 
L 1894 763 
L 2988 3500 
L 3597 3500 
L 2059 -325 
z
" id="DejaVuSans-79" transform="scale(0.015625)"/>
     </defs>
     <use xlink:href="#DejaVuSans-4c"/>
     <use x="53.962891" xlink:href="#DejaVuSans-6f"/>
     <use x="115.144531" xlink:href="#DejaVuSans-73"/>
     <use x="167.244141" xlink:href="#DejaVuSans-73"/>
     <use x="219.34375" xlink:href="#DejaVuSans-20"/>
     <use x="251.130859" xlink:href="#DejaVuSans-61"/>
     <use x="312.410156" xlink:href="#DejaVuSans-63"/>
     <use x="367.390625" xlink:href="#DejaVuSans-72"/>
     <use x="406.253906" xlink:href="#DejaVuSans-6f"/>
     <use x="467.435547" xlink:href="#DejaVuSans-73"/>
     <use x="519.535156" xlink:href="#DejaVuSans-73"/>
     <use x="571.634766" xlink:href="#DejaVuSans-20"/>
     <use x="603.421875" xlink:href="#DejaVuSans-6c"/>
     <use x="631.205078" xlink:href="#DejaVuSans-61"/>
     <use x="692.484375" xlink:href="#DejaVuSans-79"/>
     <use x="751.664062" xlink:href="#DejaVuSans-65"/>
     <use x="813.1875" xlink:href="#DejaVuSans-72"/>
     <use x="854.300781" xlink:href="#DejaVuSans-73"/>
    </g>
   </g>
   <g id="legend_1">
    <g id="patch_7">
     <path d="M 61 247 
L 105.725 247 
Q 107.725 247 107.725 245 
L 107.725 69.8625 
Q 107.725 67.8625 105.725 67.8625 
L 61 67.8625 
Q 59 67.8625 59 69.8625 
L 59 245 
Q 59 247 61 247 
z
" style="fill:#ffffff;opacity:0.8;stroke:#cccccc;stroke-linejoin:miter;"/>
    </g>
    <g id="line2d_26">
     <path d="M 63 75.960938 
L 83 75.960938 
" style="fill:none;stroke:#1f77b4;stroke-linecap:square;stroke-width:1.5;"/>
    </g>
    <g id="line2d_27"/>
    <g id="text_17">
     <!-- 0 -->
     <g transform="translate(91 79.460938)scale(0.1 -0.1)">
      <use xlink:href="#DejaVuSans-30"/>
     </g>
    </g>
    <g id="line2d_28">
     <path d="M 63 90.639063 
L 83 90.639063 
" style="fill:none;stroke:#ff7f0e;stroke-linecap:square;stroke-width:1.5;"/>
    </g>
    <g id="line2d_29"/>
    <g id="text_18">
     <!-- 1 -->
     <g transform="translate(91 94.139063)scale(0.1 -0.1)">
      <use xlink:href="#DejaVuSans-31"/>
     </g>
    </g>
    <g id="line2d_30">
     <path d="M 63 105.317188 
L 83 105.317188 
" style="fill:none;stroke:#2ca02c;stroke-linecap:square;stroke-width:1.5;"/>
    </g>
    <g id="line2d_31"/>
    <g id="text_19">
     <!-- 2 -->
     <g transform="translate(91 108.817188)scale(0.1 -0.1)">
      <use xlink:href="#DejaVuSans-32"/>
     </g>
    </g>
    <g id="line2d_32">
     <path d="M 63 119.995313 
L 83 119.995313 
" style="fill:none;stroke:#d62728;stroke-linecap:square;stroke-width:1.5;"/>
    </g>
    <g id="line2d_33"/>
    <g id="text_20">
     <!-- 3 -->
     <g transform="translate(91 123.495313)scale(0.1 -0.1)">
      <use xlink:href="#DejaVuSans-33"/>
     </g>
    </g>
    <g id="line2d_34">
     <path d="M 63 134.673438 
L 83 134.673438 
" style="fill:none;stroke:#9467bd;stroke-linecap:square;stroke-width:1.5;"/>
    </g>
    <g id="line2d_35"/>
    <g id="text_21">
     <!-- 4 -->
     <g transform="translate(91 138.173438)scale(0.1 -0.1)">
      <use xlink:href="#DejaVuSans-34"/>
     </g>
    </g>
    <g id="line2d_36">
     <path d="M 63 149.351563 
L 83 149.351563 
" style="fill:none;stroke:#8c564b;stroke-linecap:square;stroke-width:1.5;"/>
    </g>
    <g id="line2d_37"/>
    <g id="text_22">
     <!-- 5 -->
     <g transform="translate(91 152.851563)scale(0.1 -0.1)">
      <use xlink:href="#DejaVuSans-35"/>
     </g>
    </g>
    <g id="line2d_38">
     <path d="M 63 164.029688 
L 83 164.029688 
" style="fill:none;stroke:#e377c2;stroke-linecap:square;stroke-width:1.5;"/>
    </g>
    <g id="line2d_39"/>
    <g id="text_23">
     <!-- 6 -->
     <g transform="translate(91 167.529688)scale(0.1 -0.1)">
      <use xlink:href="#DejaVuSans-36"/>
     </g>
    </g>
    <g id="line2d_40">
     <path d="M 63 178.707813 
L 83 178.707813 
" style="fill:none;stroke:#7f7f7f;stroke-linecap:square;stroke-width:1.5;"/>
    </g>
    <g id="line2d_41"/>
    <g id="text_24">
     <!-- 7 -->
     <g transform="translate(91 182.207813)scale(0.1 -0.1)">
      <defs>
       <path d="M 525 4666 
L 3525 4666 
L 3525 4397 
L 1831 0 
L 1172 0 
L 2766 4134 
L 525 4134 
L 525 4666 
z
" id="DejaVuSans-37" transform="scale(0.015625)"/>
      </defs>
      <use xlink:href="#DejaVuSans-37"/>
     </g>
    </g>
    <g id="line2d_42">
     <path d="M 63 193.385938 
L 83 193.385938 
" style="fill:none;stroke:#bcbd22;stroke-linecap:square;stroke-width:1.5;"/>
    </g>
    <g id="line2d_43"/>
    <g id="text_25">
     <!-- 8 -->
     <g transform="translate(91 196.885938)scale(0.1 -0.1)">
      <use xlink:href="#DejaVuSans-38"/>
     </g>
    </g>
    <g id="line2d_44">
     <path d="M 63 208.064063 
L 83 208.064063 
" style="fill:none;stroke:#17becf;stroke-linecap:square;stroke-width:1.5;"/>
    </g>
    <g id="line2d_45"/>
    <g id="text_26">
     <!-- 9 -->
     <g transform="translate(91 211.564063)scale(0.1 -0.1)">
      <defs>
       <path d="M 703 97 
L 703 672 
Q 941 559 1184 500 
Q 1428 441 1663 441 
Q 2288 441 2617 861 
Q 2947 1281 2994 2138 
Q 2813 1869 2534 1725 
Q 2256 1581 1919 1581 
Q 1219 1581 811 2004 
Q 403 2428 403 3163 
Q 403 3881 828 4315 
Q 1253 4750 1959 4750 
Q 2769 4750 3195 4129 
Q 3622 3509 3622 2328 
Q 3622 1225 3098 567 
Q 2575 -91 1691 -91 
Q 1453 -91 1209 -44 
Q 966 3 703 97 
z
M 1959 2075 
Q 2384 2075 2632 2365 
Q 2881 2656 2881 3163 
Q 2881 3666 2632 3958 
Q 2384 4250 1959 4250 
Q 1534 4250 1286 3958 
Q 1038 3666 1038 3163 
Q 1038 2656 1286 2365 
Q 1534 2075 1959 2075 
z
" id="DejaVuSans-39" transform="scale(0.015625)"/>
      </defs>
      <use xlink:href="#DejaVuSans-39"/>
     </g>
    </g>
    <g id="line2d_46">
     <path d="M 63 222.742188 
L 83 222.742188 
" style="fill:none;stroke:#1f77b4;stroke-linecap:square;stroke-width:1.5;"/>
    </g>
    <g id="line2d_47"/>
    <g id="text_27">
     <!-- 10 -->
     <g transform="translate(91 226.242188)scale(0.1 -0.1)">
      <use xlink:href="#DejaVuSans-31"/>
      <use x="63.623047" xlink:href="#DejaVuSans-30"/>
     </g>
    </g>
    <g id="line2d_48">
     <path d="M 63 237.420312 
L 83 237.420312 
" style="fill:none;stroke:#ff7f0e;stroke-linecap:square;stroke-width:1.5;"/>
    </g>
    <g id="line2d_49"/>
    <g id="text_28">
     <!-- 11 -->
     <g transform="translate(91 240.920312)scale(0.1 -0.1)">
      <use xlink:href="#DejaVuSans-31"/>
      <use x="63.623047" xlink:href="#DejaVuSans-31"/>
     </g>
    </g>
   </g>
  </g>
 </g>
 <defs>
  <clipPath id="pfb0023bd0a">
   <rect height="217.44" width="334.8" x="54" y="34.56"/>
  </clipPath>
 </defs>
</svg>
